<svg xmlns="http://www.w3.org/2000/svg" viewBox="0 0 160.74 261.5"><defs><style>.cls-1,.cls-3{fill:#ef4136;}.cls-1,.cls-11,.cls-13,.cls-2{stroke:#231f20;}.cls-1,.cls-10,.cls-11,.cls-12,.cls-13,.cls-14,.cls-15,.cls-16,.cls-2,.cls-3,.cls-4,.cls-5,.cls-7,.cls-8{stroke-miterlimit:10;}.cls-2{fill:#be1e2d;}.cls-3{stroke:#b93426;stroke-width:3px;}.cls-12,.cls-13,.cls-14,.cls-15,.cls-16,.cls-4,.cls-7,.cls-8{fill:none;}.cls-14,.cls-4{stroke:#e6c459;}.cls-5{fill:#f15a29;stroke:#f15a29;}.cls-10,.cls-6{fill:#fff;}.cls-7,.cls-8{stroke:#fff;}.cls-8{stroke-width:1.5px;}.cls-9{fill:#e6c459;}.cls-10,.cls-15{stroke:#fff200;}.cls-11{fill:#424142;}.cls-12{stroke:#ef4136;}.cls-14,.cls-16{stroke-width:2px;}.cls-16{stroke:#468350;}</style></defs><g id="Layer_2" data-name="Layer 2"><g id="Layer_2-2" data-name="Layer 2"><path class="cls-1" d="M92.09,8.56h63.37a0,0,0,0,1,0,0V60.23a31.69,31.69,0,0,1-31.69,31.69h0A31.69,31.69,0,0,1,92.09,60.23V8.56A0,0,0,0,1,92.09,8.56Z" transform="translate(208.46 153.54) rotate(-151.44)"/><path class="cls-2" d="M117.35,67.76c-15-6.93-9-33.38-3.36-43.71,3.74-6.88,15.33-12.17,25-6.91s16.73,15.35,10.73,26.36S128.17,72.75,117.35,67.76Z"/><path class="cls-2" d="M109.37,36.84c5.3-3.49,12.89-4.89,19.57-1.25,7,3.82,13.12,11.78,13.39,19.19"/><path class="cls-3" d="M133.45,82.94a9.06,9.06,0,0,0,5.24-4.29,9.68,9.68,0,0,0-4.25-13,10,10,0,0,0-11,.82A33.56,33.56,0,0,0,112,59.83a9.88,9.88,0,0,0-5.19-10.3A9.67,9.67,0,0,0,93.57,53a9,9,0,0,0-.86,6.32A29,29,0,0,0,75.16,73.26c-7.89,14.5-1.83,33,13.54,41.41s34.23,3.39,42.12-11.11A28.77,28.77,0,0,0,133.45,82.94Z"/><path class="cls-1" d="M141.75.2H151a0,0,0,0,1,0,0V9.73a4.64,4.64,0,0,1-4.64,4.64h0a4.64,4.64,0,0,1-4.64-4.64V.2a0,0,0,0,1,0,0Z" transform="translate(271.49 83.68) rotate(-151.44)"/><path class="cls-4" d="M98.11,57.84c.08-1.15,2.12-1.35,1.94,1-.22,2.88-5.33,1.48-5.32-.69s2.84-2,2.78-3.14,5.21-1.81,5.35-3.77"/><path class="cls-4" d="M106.57,58.48c.09-1.15-1.89-1.65-2.07.68-.22,2.89,5,2.28,5.36.13s-2.51-2.37-2.27-3.52-4.87-2.58-4.73-4.54"/><path class="cls-4" d="M127.92,70.75c.93-.68,2.4.74.51,2.12-2.34,1.71-4.59-3.09-2.93-4.49s3.33.88,4.18.07,4.76,2.79,6.35,1.63"/><path class="cls-4" d="M132.93,77.6c.92-.67,0-2.51-1.87-1.13-2.34,1.71,1.55,5.32,3.39,4.16s.17-3.44,1.2-4-1.21-5.38.38-6.54"/><ellipse class="cls-5" cx="96.52" cy="92.96" rx="1.58" ry="3.11" transform="translate(-31.28 133.29) rotate(-61.44)"/><ellipse class="cls-5" cx="96.33" cy="96.97" rx="1.58" ry="1.36" transform="translate(-34.9 135.21) rotate(-61.44)"/><ellipse class="cls-5" cx="99.05" cy="89.88" rx="1.58" ry="2.36" transform="translate(-27.25 133.91) rotate(-61.44)"/><path class="cls-6" d="M94,78l-.16-.18a3.07,3.07,0,0,0-.25-.26l0,0-.3-.28-.08-.08c-2.06-1.94-4.06-4.69-3.69-6.87.61-3.56.18-4.4.18-4.4-1.76,3.24-10.37,13.4-7.85,18.49A7.05,7.05,0,1,0,94,78Z"/><path class="cls-7" d="M106.33,71.38c2.28-1.18,1.73-3-.08-4.08s-2.43,1.24-1.13,2.08"/><path class="cls-8" d="M100.66,88.88c4.44-2.89,6.25-7.82,3.37-9.52s-7.08-4.5-5.67-7.09,3.79-3.68,6.71-1.5c2.59,1.93.66,4-2.11,2.62"/><path class="cls-9" d="M101,63.75a6.65,6.65,0,0,0-4.47.58,6.36,6.36,0,0,0-2.63,3.07,4.54,4.54,0,0,0-.18,3.77,10.64,10.64,0,0,0,2.71,3.61C97.59,75.9,98.93,77,100.29,78a21.83,21.83,0,0,1,2,1.76,8.43,8.43,0,0,1,.92,1.15,2.89,2.89,0,0,1,.74,1.73,2.06,2.06,0,0,1-.26,1,6.07,6.07,0,0,1-.45.64,5,5,0,0,1-1.17,1.11,3.33,3.33,0,0,1-3.3.31,2.42,2.42,0,0,1-.73-.54,2.49,2.49,0,0,1-.45-.73A3.71,3.71,0,0,1,97.4,83a4.28,4.28,0,0,1,1-2.51,4.43,4.43,0,0,0-.09,2.44c.18.76.62,1.39,1.09,1.41a1.7,1.7,0,0,0,1.54-.5,3.47,3.47,0,0,0,.58-.76c.08-.14.16-.32.22-.45a.39.39,0,0,1,.11-.2.63.63,0,0,0,.11-.71,3.08,3.08,0,0,0-.69-.83,14.94,14.94,0,0,0-2-1.49c-1.39-1-2.9-1.81-4.34-2.88a11.91,11.91,0,0,1-3.82-4.2,6.75,6.75,0,0,1-.68-3.12,7.89,7.89,0,0,1,5.23-7,5.68,5.68,0,0,1,5.47,1.27Z"/><path class="cls-10" d="M95.25,98.82a5.49,5.49,0,1,1-2.2-7.44,4.34,4.34,0,0,1,.76.5"/><polygon class="cls-9" points="86.7 91.56 90.43 96.19 84.93 94.81 86.7 91.56"/><circle class="cls-11" cx="88.62" cy="82.59" r="5.1"/><path class="cls-4" d="M82.39,98.07a58.85,58.85,0,0,1-6.11-7.55"/><path class="cls-4" d="M81.55,99.61c-1.63-.89-7.12-5.88-8.06-7.45"/><path class="cls-4" d="M80.71,101.15c-1.57-.22-7.23-4.14-8.34-5.59"/><circle class="cls-6" cx="87.68" cy="80.34" r="1.3"/><circle class="cls-6" cx="89.64" cy="83.82" r="2.24"/><path class="cls-12" d="M105.24,82.44c1.71-2.71-.38-4.17.56-5.9,1.14-2.09,2.94.16,2.31.77"/><line class="cls-13" x1="110.45" y1="67.31" x2="116.6" y2="70.66"/><line class="cls-13" x1="109.21" y1="69.59" x2="115.36" y2="72.93"/><line class="cls-13" x1="107.97" y1="71.87" x2="114.12" y2="75.21"/><line class="cls-13" x1="113.53" y1="68.98" x2="111.03" y2="73.58"/><ellipse class="cls-5" cx="102.75" cy="96.19" rx="1.58" ry="3.11" transform="translate(-30.86 140.45) rotate(-61.44)"/><ellipse class="cls-5" cx="99.49" cy="98.53" rx="1.58" ry="1.36" transform="translate(-34.61 138.8) rotate(-61.44)"/><ellipse class="cls-5" cx="103.96" cy="92.39" rx="1.58" ry="2.36" transform="translate(-26.89 139.53) rotate(-61.44)"/><path class="cls-6" d="M116.7,90.14l.24,0,.36.07h0l.4.1.1,0c2.75.67,6.15.86,7.78-.63,2.66-2.45,3.59-2.54,3.59-2.54-1.76,3.23-5.62,16-11.26,16.63a7.05,7.05,0,1,1-1.25-13.7Z"/><path class="cls-7" d="M115.55,76.24c-.24-2.56,1.55-3.06,3.48-2.15s.27,2.71-1.13,2.08"/><path class="cls-8" d="M103.93,90.5c0-5.3,3.18-9.49,6.17-8s7.62,3.51,9,.91,1-5.17-2.38-6.45c-3-1.13-3.72,1.62-1.06,3.2"/><path class="cls-9" d="M125,76.29a5.7,5.7,0,0,1,4,3.9,7.2,7.2,0,0,1-.94,5.91A7.34,7.34,0,0,1,126,88.4a6.83,6.83,0,0,1-3,1.12,11.87,11.87,0,0,1-5.6-.93c-1.68-.63-3.23-1.42-4.78-2.08a15.66,15.66,0,0,0-2.31-.83,3.16,3.16,0,0,0-1.07-.13.63.63,0,0,0-.53.48c0,.06,0,.15-.11.2a4.45,4.45,0,0,0-.26.43,3.36,3.36,0,0,0-.32.9,1.71,1.71,0,0,0,.41,1.57c.27.38,1,.4,1.78.14a4.5,4.5,0,0,0,2-1.39,4.43,4.43,0,0,1-1.59,2.17,3.75,3.75,0,0,1-1.36.61,2.4,2.4,0,0,1-.85,0,2.2,2.2,0,0,1-.86-.32A3.32,3.32,0,0,1,106,87.42a5.53,5.53,0,0,1,.29-1.59,7.33,7.33,0,0,1,.3-.72,2,2,0,0,1,.72-.77A2.92,2.92,0,0,1,109.2,84a8.4,8.4,0,0,1,1.47.15,24.28,24.28,0,0,1,2.58.74c1.64.56,3.25,1.12,4.84,1.51a10.7,10.7,0,0,0,4.5.32,4.56,4.56,0,0,0,3.07-2.2,6.41,6.41,0,0,0,1.15-3.87,6.66,6.66,0,0,0-1.94-4.07Z"/><path class="cls-10" d="M98.52,100.44a5.49,5.49,0,1,0,7.45-2.2,5.65,5.65,0,0,0-.84-.37"/><polygon class="cls-9" points="109.26 103.67 103.34 103.06 107.49 106.92 109.26 103.67"/><circle class="cls-11" cx="115.75" cy="97.2" r="5.1"/><path class="cls-4" d="M106.14,110.83a59.93,59.93,0,0,0,9.65,1"/><path class="cls-4" d="M104.81,112.52c1.74.62,9.13,1.39,10.92,1"/><path class="cls-4" d="M104.22,114.17c1.21,1,7.9,2.63,9.72,2.49"/><path class="cls-7" d="M99.91,106.53s-1.19,3.14-.19,4.21"/><path class="cls-7" d="M89.27,101.12c-.75,1.37-2.37,2.81-3.94,2.79"/><path class="cls-14" d="M99,106.66c-.67,1.22-1.67,3.33-3.36,1.86-2.5-2.18-3.26-2.16-5.86-2.73s-.64-3.44-.36-4.35"/><circle class="cls-6" cx="118.15" cy="96.76" r="1.3"/><circle class="cls-6" cx="114.17" cy="97.01" r="2.24"/><path class="cls-12" d="M106.52,83.14c1.35-2.91,3.71-2,4.65-3.68,1.14-2.09-1.7-2.27-1.87-1.4"/><path class="cls-6" d="M107.69,78.11a2.38,2.38,0,0,0,0,1.74,1.84,1.84,0,0,0,1.47-2.7A2.36,2.36,0,0,0,107.69,78.11Z"/><ellipse class="cls-6" cx="102.11" cy="89.8" rx="1.53" ry="0.69" transform="translate(-25.58 136.55) rotate(-61.44)"/><ellipse class="cls-6" cx="100.68" cy="92.44" rx="1.53" ry="0.69" transform="translate(-28.65 136.67) rotate(-61.44)"/><ellipse class="cls-6" cx="99.25" cy="95.07" rx="1.53" ry="0.69" transform="translate(-31.71 136.78) rotate(-61.44)"/><ellipse class="cls-6" cx="97.81" cy="97.71" rx="1.53" ry="0.69" transform="translate(-34.77 136.9) rotate(-61.44)"/><path class="cls-15" d="M95.25,98.82a5.49,5.49,0,1,1-2.2-7.44,4.34,4.34,0,0,1,.76.5"/><path class="cls-15" d="M98.52,100.44a5.49,5.49,0,1,0,7.45-2.2,5.65,5.65,0,0,0-.84-.37"/><path class="cls-16" d="M98.71,67.77c3,2.31,5.8-.88,3.17-2.86-3-2.27-5.83.06-7.24,2.65-2,3.61,2.38,8.08,7.15,11.32,7.94,5.38-6.24,9.35-7.44,11.56-1.1,2-.51,4.57.47,5.24s-1.33,2.51.84,3.69l2.18,1c2.17,1.18,2.45-1.76,3.55-1.3s3.56-.43,4.66-2.44c1.2-2.21-3.16-16.28,5.67-12.53,5.31,2.25,11.42,3.47,13.38-.14,1.42-2.59,1.85-6.21-1.7-7.51-3.09-1.14-4.26,2.93-.68,4.21"/><path class="cls-6" d="M101.49,57.72A2.33,2.33,0,0,0,102.72,59a1.86,1.86,0,0,0-.87-3A2.37,2.37,0,0,0,101.49,57.72Z"/><path class="cls-6" d="M131.41,72.57a2.33,2.33,0,0,0-1.24,1.23,2.35,2.35,0,0,0,1.7.35,2.33,2.33,0,0,0,1.24-1.22A2.34,2.34,0,0,0,131.41,72.57Z"/><path class="cls-1" d="M33.57,145.35h0A31.69,31.69,0,0,1,65.26,177V228.7a0,0,0,0,1,0,0H1.89a0,0,0,0,1,0,0V177A31.69,31.69,0,0,1,33.57,145.35Z" transform="translate(-25.59 6.46) rotate(-7.96)"/><path class="cls-2" d="M33.43,205.68C49.93,204.48,53.58,177.6,52,166c-1.09-7.76-10.07-16.79-21-15.27s-21,8.48-19.32,20.9S21.54,206.55,33.43,205.68Z"/><path class="cls-2" d="M51.77,179.55c-3.73-5.13-10.35-9.12-17.88-8.06C26,172.6,17.46,177.9,14.6,184.75"/><path class="cls-3" d="M13,214.23a9.1,9.1,0,0,1-3.4-5.86c-.72-5.13,3.11-9.91,8.55-10.67a9.94,9.94,0,0,1,10,4.63,33.48,33.48,0,0,1,7.29-1.88,34.26,34.26,0,0,1,5.78-.3,9.91,9.91,0,0,1,8.49-7.82,9.68,9.68,0,0,1,11.15,7.92,9,9,0,0,1-1.41,6.22A29,29,0,0,1,71,225.67c2.29,16.36-9.91,31.58-27.24,34S10.5,250.81,8.22,234.46A28.77,28.77,0,0,1,13,214.23Z"/><path class="cls-1" d="M27.51,131.77h0a4.64,4.64,0,0,1,4.64,4.64v9.52a0,0,0,0,1,0,0H22.86a0,0,0,0,1,0,0v-9.52A4.64,4.64,0,0,1,27.51,131.77Z" transform="translate(-18.97 5.15) rotate(-7.96)"/><path class="cls-4" d="M54.93,203.17c.32-1.11-1.52-2-2.17.24-.81,2.78,4.47,3.26,5.22,1.22s-2-2.83-1.49-3.91-4.24-3.52-3.69-5.41"/><path class="cls-4" d="M46.78,200.79c.32-1.1,2.35-.88,1.7,1.37-.81,2.78-5.53.35-5.06-1.77s3.17-1.33,3.36-2.5,5.47-.69,6-2.58"/><path class="cls-4" d="M22.48,204.76c-.63-1-2.51-.15-1.23,1.81,1.59,2.42,5.39-1.28,4.33-3.17s-3.43-.35-3.95-1.41-5.43.94-6.51-.71"/><path class="cls-4" d="M15.38,209.42c-.63-1,.86-2.36,2.14-.41,1.59,2.43-3.32,4.44-4.63,2.7s1-3.28.28-4.17,3-4.61,1.95-6.26"/><ellipse class="cls-5" cx="44.06" cy="236.61" rx="3.11" ry="1.58" transform="translate(-32.36 8.39) rotate(-7.96)"/><ellipse class="cls-5" cx="42.82" cy="240.42" rx="1.36" ry="1.58" transform="translate(-32.9 8.25) rotate(-7.96)"/><ellipse class="cls-5" cx="42.77" cy="232.83" rx="2.36" ry="1.58" transform="translate(-31.85 8.17) rotate(-7.96)"/><path class="cls-6" d="M51.66,223.44l.21-.11.33-.17h0l.38-.16.1,0c2.61-1.09,5.45-3,5.87-5.13.69-3.55,1.38-4.19,1.38-4.19.51,3.66,5,16.19.85,20.07a7.05,7.05,0,1,1-9.16-10.26Z"/><path class="cls-7" d="M42.46,213c-1.72-1.91-.57-3.38,1.52-3.79s1.83,2,.33,2.34"/><path class="cls-8" d="M41.62,231.33c-3.14-4.27-3.1-9.52.19-10.1s8.21-1.72,7.8-4.65-2.25-4.77-5.75-3.76c-3.1.9-2,3.51,1,3.2"/><path class="cls-9" d="M50.12,207.35a5.7,5.7,0,0,1,5.56.73,7.19,7.19,0,0,1,2.76,5.31,7.45,7.45,0,0,1-.33,3.11,6.84,6.84,0,0,1-1.74,2.68,12,12,0,0,1-5.06,2.59c-1.72.49-3.43.77-5.07,1.17a15.31,15.31,0,0,0-2.35.7,3.05,3.05,0,0,0-.94.54.62.62,0,0,0-.14.7.58.58,0,0,1,0,.23,4.7,4.7,0,0,0,0,.5,2.93,2.93,0,0,0,.28.91,1.66,1.66,0,0,0,1.26,1c.45.15,1.08-.29,1.52-.94a4.51,4.51,0,0,0,.77-2.31,4.33,4.33,0,0,1,0,2.69,3.93,3.93,0,0,1-.73,1.3,2.32,2.32,0,0,1-1.56.78,3.32,3.32,0,0,1-3-1.46,5.32,5.32,0,0,1-.7-1.44,5,5,0,0,1-.19-.76,2,2,0,0,1,.11-1A3,3,0,0,1,42,223a10,10,0,0,1,1.27-.75c.85-.39,1.69-.65,2.52-.94,1.65-.52,3.27-1,4.79-1.67a10.62,10.62,0,0,0,3.8-2.42,4.53,4.53,0,0,0,1.16-3.59,6.38,6.38,0,0,0-1.38-3.8,6.66,6.66,0,0,0-4-2.11Z"/><path class="cls-10" d="M43.18,242.53a5.49,5.49,0,1,0,4.68-6.19,5,5,0,0,0-.89.2"/><polygon class="cls-9" points="53.73 238.75 48.62 241.77 54.25 242.41 53.73 238.75"/><circle class="cls-11" cx="55.1" cy="229.68" r="5.1"/><path class="cls-4" d="M55.49,246.35a59.41,59.41,0,0,0,8.37-4.91"/><path class="cls-4" d="M55.73,248.09c1.83-.26,8.74-3,10.17-4.13"/><path class="cls-4" d="M56,249.83c1.55.35,8.22-1.34,9.77-2.3"/><circle class="cls-6" cx="56.77" cy="227.9" r="1.3"/><circle class="cls-6" cx="53.71" cy="230.47" r="2.24"/><path class="cls-12" d="M39.59,223.69c-.64-3.15,1.83-3.77,1.55-5.72-.33-2.36-2.8-.89-2.43-.09"/><line class="cls-13" x1="40.04" y1="207.69" x2="33.1" y2="208.66"/><line class="cls-13" x1="40.4" y1="210.26" x2="33.46" y2="211.23"/><line class="cls-13" x1="40.76" y1="212.83" x2="33.82" y2="213.8"/><line class="cls-13" x1="36.57" y1="208.17" x2="37.3" y2="213.35"/><ellipse class="cls-5" cx="37.08" cy="237.44" rx="3.11" ry="1.58" transform="translate(-32.54 7.43) rotate(-7.96)"/><ellipse class="cls-5" cx="39.32" cy="240.77" rx="1.36" ry="1.58" transform="translate(-32.98 7.77) rotate(-7.96)"/><ellipse class="cls-5" cx="37.29" cy="233.45" rx="2.36" ry="1.58" transform="translate(-31.99 7.42) rotate(-7.96)"/><path class="cls-6" d="M26.16,226.86l-.24-.05c-.12,0-.24-.05-.36-.06h0l-.41,0-.11,0c-2.81-.33-6.05-1.35-7-3.32-1.63-3.23-2.47-3.65-2.47-3.65.51,3.65-.37,16.94,4.69,19.53a7.05,7.05,0,1,0,6-12.38Z"/><path class="cls-7" d="M32.13,214.25c1.12-2.3-.38-3.41-2.5-3.23s-1.22,2.44.32,2.34"/><path class="cls-8" d="M38,231.69c1.85-5,.37-10-2.95-9.66s-8.37.6-8.78-2.33.85-5.2,4.5-5.19c3.23,0,2.91,2.82-.14,3.36"/><path class="cls-9" d="M23.28,211.31A6.68,6.68,0,0,0,20,214.44a6.42,6.42,0,0,0-.28,4,4.54,4.54,0,0,0,2.1,3.14,10.8,10.8,0,0,0,4.32,1.28c1.63.2,3.33.24,5.07.29a25,25,0,0,1,2.67.22,7.36,7.36,0,0,1,1.43.37,2.88,2.88,0,0,1,1.62.95,2,2,0,0,1,.4,1,5.48,5.48,0,0,1-.26,2.37,3.32,3.32,0,0,1-2.46,2.22,2.37,2.37,0,0,1-.92,0,2.43,2.43,0,0,1-.79-.32,3.79,3.79,0,0,1-1.06-1.05,4.38,4.38,0,0,1-.72-2.6,4.51,4.51,0,0,0,1.38,2c.59.5,1.33.75,1.72.48a1.67,1.67,0,0,0,.93-1.32,2.74,2.74,0,0,0,0-1,3.58,3.58,0,0,0-.08-.49.38.38,0,0,1,0-.23.63.63,0,0,0-.34-.63,2.8,2.8,0,0,0-1-.26,15.28,15.28,0,0,0-2.45,0c-1.68.07-3.41.27-5.2.27a12,12,0,0,1-5.57-1.1,6.92,6.92,0,0,1-2.41-2.1,7.37,7.37,0,0,1-1.17-2.9,7.18,7.18,0,0,1,1.2-5.86A5.69,5.69,0,0,1,23.23,211Z"/><path class="cls-10" d="M39.55,242.89a5.49,5.49,0,1,1-5.29-4.72"/><polygon class="cls-9" points="28.36 242.15 34.12 243.66 28.88 245.81 28.36 242.15"/><circle class="cls-11" cx="24.56" cy="233.8" r="5.1"/><path class="cls-4" d="M28.77,249.94a58.36,58.36,0,0,1-9.4-2.42"/><path class="cls-4" d="M29,251.68c-1.83.26-9.22-.48-10.91-1.18"/><path class="cls-4" d="M29.25,253.42c-1.39.76-8.27,1-10,.47"/><path class="cls-7" d="M36.11,248.11s0,3.36-1.3,4"/><path class="cls-7" d="M48,246.79c.22,1.55,1.23,3.46,2.71,4"/><path class="cls-14" d="M36.93,248.56c.19,1.37.38,3.7,2.48,2.92,3.11-1.16,3.81-.88,6.45-.5s1.81-3,1.86-3.94"/><circle class="cls-6" cx="22.47" cy="232.55" r="1.3"/><circle class="cls-6" cx="26.11" cy="234.18" r="2.24"/><path class="cls-12" d="M38.15,223.89c-.24-3.2-2.79-3.13-3.06-5.08-.33-2.35,2.39-1.52,2.25-.65"/><path class="cls-6" d="M38.82,218.77a2.33,2.33,0,0,1-.6,1.63,1.84,1.84,0,0,1-.43-3A2.38,2.38,0,0,1,38.82,218.77Z"/><ellipse class="cls-6" cx="39.93" cy="231.68" rx="0.69" ry="1.53" transform="translate(-31.72 7.77) rotate(-7.96)"/><ellipse class="cls-6" cx="40.34" cy="234.65" rx="0.69" ry="1.53" transform="translate(-32.12 7.85) rotate(-7.96)"/><ellipse class="cls-6" cx="40.76" cy="237.62" rx="0.69" ry="1.53" transform="translate(-32.53 7.94) rotate(-7.96)"/><ellipse class="cls-6" cx="41.18" cy="240.59" rx="0.69" ry="1.53" transform="translate(-32.94 8.03) rotate(-7.96)"/><path class="cls-15" d="M43.18,242.53a5.49,5.49,0,1,0,4.68-6.19,5,5,0,0,0-.89.2"/><path class="cls-15" d="M39.55,242.89a5.49,5.49,0,1,1-5.29-4.72"/><path class="cls-16" d="M50.87,212.25c-3.64,1.11-5.12-2.86-2-3.79,3.63-1.06,5.43,2.1,5.84,5,.57,4.07-5.07,6.72-10.68,8.07-9.32,2.25,2.55,11,2.9,13.45.32,2.27-1.13,4.46-2.28,4.74s.36,2.81-2.08,3.16l-2.4.19c-2.45.34-1.68-2.52-2.87-2.47s-3.18-1.66-3.5-3.93c-.35-2.49,8.68-14.12-.9-13.72-5.76.24-11.91-.77-12.48-4.84-.41-2.93.45-6.46,4.24-6.43,3.29,0,2.95,4.24-.85,4.18"/><path class="cls-6" d="M51.8,201.87a2.42,2.42,0,0,1-1.59.73,1.85,1.85,0,0,1,1.85-2.46A2.36,2.36,0,0,1,51.8,201.87Z"/><path class="cls-6" d="M18.57,205.24a2.37,2.37,0,0,1,.73,1.59,2.36,2.36,0,0,1-1.72-.27,2.34,2.34,0,0,1-.73-1.58A2.34,2.34,0,0,1,18.57,205.24Z"/></g></g></svg>