<svg xmlns="http://www.w3.org/2000/svg" xmlns:xlink="http://www.w3.org/1999/xlink" viewBox="0 0 199.88 176.18"><defs><style>.cls-1{fill:none;}.cls-2{clip-path:url(#clip-path);}.cls-3{fill:#231f20;}</style><clipPath id="clip-path" transform="translate(0 0)"><rect class="cls-1" width="199.88" height="176.18"/></clipPath></defs><g id="Layer_2" data-name="Layer 2"><g id="Layer_2-2" data-name="Layer 2"><g class="cls-2"><path class="cls-3" d="M166.71,18.78c0,10.37-29.89,18.78-66.77,18.78S33.17,29.15,33.17,18.78,63.06,0,99.94,0s66.77,8.41,66.77,18.78" transform="translate(0 0)"/><path class="cls-3" d="M166.71,55.44c0,10.37-29.89,18.78-66.77,18.78S33.17,65.81,33.17,55.44,63.06,36.66,99.94,36.66s66.77,8.41,66.77,18.78" transform="translate(0 0)"/><path class="cls-3" d="M166.71,92.11c0,10.37-29.89,18.78-66.77,18.78s-66.77-8.41-66.77-18.78S63.06,73.33,99.94,73.33s66.77,8.41,66.77,18.78" transform="translate(0 0)"/><path class="cls-3" d="M166.71,128.77c0,10.37-29.89,18.78-66.77,18.78s-66.77-8.41-66.77-18.78S63.06,110,99.94,110s66.77,8.41,66.77,18.78" transform="translate(0 0)"/></g><polygon class="cls-3" points="0 176.18 199.88 176.18 99.94 148.07 0 176.18"/></g></g></svg>