<svg xmlns="http://www.w3.org/2000/svg" xmlns:xlink="http://www.w3.org/1999/xlink" viewBox="0 0 553.51 568.61"><defs><style>.cls-1,.cls-4,.cls-6,.cls-8{fill:none;}.cls-2{fill:#b1aaa6;}.cls-3{clip-path:url(#clip-path);}.cls-4{stroke:#404042;}.cls-4,.cls-6,.cls-8{stroke-miterlimit:10;stroke-width:0.75px;}.cls-5{fill:#e4e3df;}.cls-6{stroke:#221f20;}.cls-7{fill:#fff;}.cls-8{stroke:#414042;}.cls-9{fill:#6d6e71;}.cls-10{fill:#414042;}</style><clipPath id="clip-path" transform="translate(0 -3.02)"><rect class="cls-1" width="558.49" height="571.63"/></clipPath></defs><g id="Layer_2" data-name="Layer 2"><g id="Layer_3" data-name="Layer 3"><rect class="cls-2" x="0.38" y="158.08" width="552.76" height="410.15"/><g class="cls-3"><rect class="cls-4" x="0.38" y="158.08" width="552.76" height="410.15"/></g><rect class="cls-5" x="159.37" y="59.51" width="393.76" height="142.67"/><rect class="cls-6" x="159.37" y="59.51" width="393.76" height="142.67"/><polygon class="cls-7" points="314.65 95.73 304.4 95.73 304.4 64.45 314.65 66.11 314.65 95.73"/><polygon class="cls-8" points="314.65 95.73 304.4 95.73 304.4 64.45 314.65 66.11 314.65 95.73"/><g class="cls-3"><path class="cls-7" d="M287.38,45.33h-1.59a3.31,3.31,0,0,1,0-6.62h1.59a3.31,3.31,0,1,1,0,6.62" transform="translate(0 -3.02)"/><path class="cls-8" d="M287.38,45.33h-1.59a3.31,3.31,0,0,1,0-6.62h1.59a3.31,3.31,0,1,1,0,6.62Z" transform="translate(0 -3.02)"/><path class="cls-9" d="M412.45,75.76c9.38,9.38-9.26,27.66-9.26,36.92,0,12.65,13.84,22.91,30.91,22.91s26.11-10.26,26.11-22.91c0-15.54-5-21.73-3.93-32.93" transform="translate(0 -3.02)"/><path class="cls-8" d="M412.45,75.76c9.38,9.38-9.26,27.66-9.26,36.92,0,12.65,13.84,22.91,30.91,22.91s26.11-10.26,26.11-22.91c0-15.54-5-21.73-3.93-32.93" transform="translate(0 -3.02)"/></g><rect class="cls-8" x="159.37" y="202.18" width="393.76" height="7.78"/><g class="cls-3"><path class="cls-9" d="M310.93,69c.86.08,1.72.13,2.6.13a25.72,25.72,0,0,0,5.92-.72c17.76-2.48,26.2-12.13,39.37-12.13,15.11,0,50.77,27.53,77.17,27.53V83.7c.87.06,1.74.14,2.62.14a40.23,40.23,0,0,0,0-80.45c-1.23,0-2.48.08-3.74.19l-.6,0c-25.84,2.63-58.53,27-72.83,27-15.12,0-24-12.6-47.91-12.6a25.55,25.55,0,0,0-2.62,51Z" transform="translate(0 -3.02)"/><path class="cls-8" d="M310.93,69c.86.08,1.72.13,2.6.13a25.72,25.72,0,0,0,5.92-.72c17.76-2.48,26.2-12.13,39.37-12.13,15.11,0,50.77,27.53,77.17,27.53V83.7c.87.06,1.74.14,2.62.14a40.23,40.23,0,0,0,0-80.45c-1.23,0-2.48.08-3.74.19l-.6,0c-25.84,2.63-58.53,27-72.83,27-15.12,0-24-12.6-47.91-12.6a25.55,25.55,0,0,0-2.62,51Z" transform="translate(0 -3.02)"/></g><rect class="cls-8" x="261.35" y="323.12" width="191.48" height="74.99"/><rect class="cls-10" x="509.25" y="215.04" width="0.75" height="159.45"/><g class="cls-3"><path class="cls-10" d="M514.77,297.78c0,4.4-2.12,8-4.74,8s-4.74-3.57-4.74-8,2.12-8,4.74-8,4.74,3.57,4.74,8" transform="translate(0 -3.02)"/><ellipse class="cls-8" cx="510.03" cy="294.77" rx="4.74" ry="7.97"/></g><line class="cls-8" x1="324.11" y1="323.12" x2="324.11" y2="398.11"/><line class="cls-8" x1="391.31" y1="323.12" x2="391.31" y2="398.11"/><path class="cls-8" d="M261.35,391.91H452.83m-191.48-7.2H452.83m-191.48-7.2H452.83m-191.48-7.2H452.83m-191.48-7.2H452.83m-191.48-7.2H452.83m-191.48-7.2H452.83m-191.48-7.2H452.83m-191.48-7.2H452.83" transform="translate(0 -3.02)"/><g class="cls-3"><path class="cls-7" d="M480.71,40.23c0,6-3.64,10.79-8.14,10.79s-8.13-4.83-8.13-10.79,3.64-10.79,8.13-10.79,8.14,4.83,8.14,10.79" transform="translate(0 -3.02)"/><path class="cls-8" d="M480.71,40.23c0,6-3.64,10.79-8.14,10.79s-8.13-4.83-8.13-10.79,3.64-10.79,8.13-10.79S480.71,34.27,480.71,40.23Z" transform="translate(0 -3.02)"/></g><line class="cls-8" x1="309.52" y1="95.73" x2="309.52" y2="118.18"/></g></g></svg>