<svg xmlns="http://www.w3.org/2000/svg" xmlns:xlink="http://www.w3.org/1999/xlink" viewBox="0 0 128.21 1298.71"><defs><style>.cls-1{fill:none;}.cls-2{clip-path:url(#clip-path);}.cls-3{fill:#685c79;}</style><clipPath id="clip-path" transform="translate(0)"><rect class="cls-1" width="128.21" height="1298.71"/></clipPath></defs><g id="Layer_2" data-name="Layer 2"><g id="Layer_1-2" data-name="Layer 1"><g class="cls-2"><path class="cls-3" d="M118.14,20.08a10,10,0,1,0-10-10,10,10,0,0,0,10,10" transform="translate(0)"/><path class="cls-3" d="M98.06,20.08A10,10,0,1,0,88,10a10,10,0,0,0,10,10" transform="translate(0)"/><path class="cls-3" d="M78,20.08A10,10,0,1,0,68,10a10,10,0,0,0,10,10" transform="translate(0)"/><path class="cls-3" d="M57.91,20.08a10,10,0,1,0-10-10,10,10,0,0,0,10,10" transform="translate(0)"/><path class="cls-3" d="M37.83,20.08a10,10,0,1,0-10-10,10,10,0,0,0,10,10" transform="translate(0)"/><path class="cls-3" d="M20,17.63A7.59,7.59,0,1,0,12.4,10,7.59,7.59,0,0,0,20,17.63" transform="translate(0)"/><path class="cls-3" d="M118.14,41.69a10,10,0,1,0-10-10,10,10,0,0,0,10,10" transform="translate(0)"/><path class="cls-3" d="M98.06,41.69a10,10,0,1,0-10-10,10,10,0,0,0,10,10" transform="translate(0)"/><path class="cls-3" d="M78,41.69a10,10,0,1,0-10-10,10,10,0,0,0,10,10" transform="translate(0)"/><path class="cls-3" d="M57.91,41.69a10,10,0,1,0-10-10,10,10,0,0,0,10,10" transform="translate(0)"/><path class="cls-3" d="M37.83,41.69a10,10,0,1,0-10-10,10,10,0,0,0,10,10" transform="translate(0)"/><path class="cls-3" d="M18.49,40.74a9.09,9.09,0,1,0-9.08-9.09,9.09,9.09,0,0,0,9.08,9.09" transform="translate(0)"/><path class="cls-3" d="M118.14,64.19a10,10,0,1,0-10-10,10,10,0,0,0,10,10" transform="translate(0)"/><path class="cls-3" d="M98.06,64.19a10,10,0,1,0-10-10,10,10,0,0,0,10,10" transform="translate(0)"/><path class="cls-3" d="M78,64.19a10,10,0,1,0-10-10,10,10,0,0,0,10,10" transform="translate(0)"/><path class="cls-3" d="M57.91,64.19a10,10,0,1,0-10-10,10,10,0,0,0,10,10" transform="translate(0)"/><path class="cls-3" d="M37.83,64.19a10,10,0,1,0-10-10,10,10,0,0,0,10,10" transform="translate(0)"/><path class="cls-3" d="M18,64.19a10,10,0,1,0-10-10,10,10,0,0,0,10,10" transform="translate(0)"/><path class="cls-3" d="M7.11,54.77a.62.62,0,0,0,0-1.24.62.62,0,1,0,0,1.24" transform="translate(0)"/><path class="cls-3" d="M118.14,87.12a10,10,0,1,0-10-10,10,10,0,0,0,10,10" transform="translate(0)"/><path class="cls-3" d="M98.06,87.12a10,10,0,1,0-10-10,10,10,0,0,0,10,10" transform="translate(0)"/><path class="cls-3" d="M78,87.12a10,10,0,1,0-10-10,10,10,0,0,0,10,10" transform="translate(0)"/><path class="cls-3" d="M57.91,87.12a10,10,0,1,0-10-10,10,10,0,0,0,10,10" transform="translate(0)"/><path class="cls-3" d="M37.83,87.12a10,10,0,1,0-10-10,10,10,0,0,0,10,10" transform="translate(0)"/><path class="cls-3" d="M18,87.12a10,10,0,1,0-10-10,10,10,0,0,0,10,10" transform="translate(0)"/><path class="cls-3" d="M5.66,79.15a2.07,2.07,0,1,0-2.07-2.06,2.07,2.07,0,0,0,2.07,2.06" transform="translate(0)"/><path class="cls-3" d="M118.14,110.06a10,10,0,1,0-10-10,10,10,0,0,0,10,10" transform="translate(0)"/><path class="cls-3" d="M98.06,110.06a10,10,0,1,0-10-10,10,10,0,0,0,10,10" transform="translate(0)"/><path class="cls-3" d="M78,110.06a10,10,0,1,0-10-10,10,10,0,0,0,10,10" transform="translate(0)"/><path class="cls-3" d="M57.91,110.06a10,10,0,1,0-10-10,10,10,0,0,0,10,10" transform="translate(0)"/><path class="cls-3" d="M37.83,110.06a10,10,0,1,0-10-10,10,10,0,0,0,10,10" transform="translate(0)"/><path class="cls-3" d="M18,110.06a10,10,0,1,0-10-10,10,10,0,0,0,10,10" transform="translate(0)"/><path class="cls-3" d="M4.52,103.24A3.22,3.22,0,1,0,1.31,100a3.22,3.22,0,0,0,3.21,3.22" transform="translate(0)"/><path class="cls-3" d="M118.14,132.56a10,10,0,1,0-10-10,10,10,0,0,0,10,10" transform="translate(0)"/><path class="cls-3" d="M98.06,132.56a10,10,0,1,0-10-10,10,10,0,0,0,10,10" transform="translate(0)"/><path class="cls-3" d="M78,132.56a10,10,0,1,0-10-10,10,10,0,0,0,10,10" transform="translate(0)"/><path class="cls-3" d="M57.91,132.56a10,10,0,1,0-10-10,10,10,0,0,0,10,10" transform="translate(0)"/><path class="cls-3" d="M37.83,132.56a10,10,0,1,0-10-10,10,10,0,0,0,10,10" transform="translate(0)"/><path class="cls-3" d="M18,132.56a10,10,0,1,0-10-10,10,10,0,0,0,10,10" transform="translate(0)"/><path class="cls-3" d="M3.86,126.38A3.87,3.87,0,1,0,0,122.52a3.86,3.86,0,0,0,3.86,3.86" transform="translate(0)"/><path class="cls-3" d="M118.14,154.61a10,10,0,1,0-10-10,10,10,0,0,0,10,10" transform="translate(0)"/><path class="cls-3" d="M98.06,154.61a10,10,0,1,0-10-10,10,10,0,0,0,10,10" transform="translate(0)"/><path class="cls-3" d="M78,154.61a10,10,0,1,0-10-10,10,10,0,0,0,10,10" transform="translate(0)"/><path class="cls-3" d="M57.91,154.61a10,10,0,1,0-10-10,10,10,0,0,0,10,10" transform="translate(0)"/><path class="cls-3" d="M37.83,154.61a10,10,0,1,0-10-10,10,10,0,0,0,10,10" transform="translate(0)"/><path class="cls-3" d="M18,154.61a10,10,0,1,0-10-10,10,10,0,0,0,10,10" transform="translate(0)"/><path class="cls-3" d="M4.32,148.43a3.86,3.86,0,1,0-3.86-3.86,3.86,3.86,0,0,0,3.86,3.86" transform="translate(0)"/><path class="cls-3" d="M118.14,177.55a10,10,0,1,0-10-10,10,10,0,0,0,10,10" transform="translate(0)"/><path class="cls-3" d="M98.06,177.55a10,10,0,1,0-10-10,10,10,0,0,0,10,10" transform="translate(0)"/><path class="cls-3" d="M78,177.55a10,10,0,1,0-10-10,10,10,0,0,0,10,10" transform="translate(0)"/><path class="cls-3" d="M57.91,177.55a10,10,0,1,0-10-10,10,10,0,0,0,10,10" transform="translate(0)"/><path class="cls-3" d="M37.83,177.55a10,10,0,1,0-10-10,10,10,0,0,0,10,10" transform="translate(0)"/><path class="cls-3" d="M18,177.55a10,10,0,1,0-10-10,10,10,0,0,0,10,10" transform="translate(0)"/><path class="cls-3" d="M4.56,170.68a3.17,3.17,0,1,0-3.17-3.17,3.17,3.17,0,0,0,3.17,3.17" transform="translate(0)"/><path class="cls-3" d="M118.14,200.05a10,10,0,1,0-10-10,10,10,0,0,0,10,10" transform="translate(0)"/><path class="cls-3" d="M98.06,200.05a10,10,0,1,0-10-10,10,10,0,0,0,10,10" transform="translate(0)"/><path class="cls-3" d="M78,200.05a10,10,0,1,0-10-10,10,10,0,0,0,10,10" transform="translate(0)"/><path class="cls-3" d="M57.91,200.05a10,10,0,1,0-10-10,10,10,0,0,0,10,10" transform="translate(0)"/><path class="cls-3" d="M37.83,200.05a10,10,0,1,0-10-10,10,10,0,0,0,10,10" transform="translate(0)"/><path class="cls-3" d="M18,200.05a10,10,0,1,0-10-10,10,10,0,0,0,10,10" transform="translate(0)"/><path class="cls-3" d="M5.88,191.85A1.85,1.85,0,1,0,4,190a1.84,1.84,0,0,0,1.84,1.84" transform="translate(0)"/><path class="cls-3" d="M118.14,221.22a10,10,0,1,0-10-10,10,10,0,0,0,10,10" transform="translate(0)"/><path class="cls-3" d="M98.06,221.22a10,10,0,1,0-10-10,10,10,0,0,0,10,10" transform="translate(0)"/><path class="cls-3" d="M78,221.22a10,10,0,1,0-10-10,10,10,0,0,0,10,10" transform="translate(0)"/><path class="cls-3" d="M57.91,221.22a10,10,0,1,0-10-10,10,10,0,0,0,10,10" transform="translate(0)"/><path class="cls-3" d="M37.83,221.22a10,10,0,1,0-10-10,10,10,0,0,0,10,10" transform="translate(0)"/><path class="cls-3" d="M18.12,221.08a9.9,9.9,0,1,0-9.9-9.9,9.9,9.9,0,0,0,9.9,9.9" transform="translate(0)"/><path class="cls-3" d="M118.14,243.71a10,10,0,1,0-10-10,10,10,0,0,0,10,10" transform="translate(0)"/><path class="cls-3" d="M98.06,243.71a10,10,0,1,0-10-10,10,10,0,0,0,10,10" transform="translate(0)"/><path class="cls-3" d="M78,243.71a10,10,0,1,0-10-10,10,10,0,0,0,10,10" transform="translate(0)"/><path class="cls-3" d="M57.91,243.71a10,10,0,1,0-10-10,10,10,0,0,0,10,10" transform="translate(0)"/><path class="cls-3" d="M37.83,243.71a10,10,0,1,0-10-10,10,10,0,0,0,10,10" transform="translate(0)"/><path class="cls-3" d="M22.28,239.42a5.75,5.75,0,1,0-5.74-5.74,5.74,5.74,0,0,0,5.74,5.74" transform="translate(0)"/><path class="cls-3" d="M118.14,266.21a10,10,0,1,0-10-10,10,10,0,0,0,10,10" transform="translate(0)"/><path class="cls-3" d="M98.06,266.21a10,10,0,1,0-10-10,10,10,0,0,0,10,10" transform="translate(0)"/><path class="cls-3" d="M78,266.21a10,10,0,1,0-10-10,10,10,0,0,0,10,10" transform="translate(0)"/><path class="cls-3" d="M57.91,266.21a10,10,0,1,0-10-10,10,10,0,0,0,10,10" transform="translate(0)"/><path class="cls-3" d="M37.83,266.21a10,10,0,1,0-10-10,10,10,0,0,0,10,10" transform="translate(0)"/><path class="cls-3" d="M24,260.22a4,4,0,1,0-4-4.05,4,4,0,0,0,4,4.05" transform="translate(0)"/><path class="cls-3" d="M118.14,288.71a10,10,0,1,0-10-10,10,10,0,0,0,10,10" transform="translate(0)"/><path class="cls-3" d="M98.06,288.71a10,10,0,1,0-10-10,10,10,0,0,0,10,10" transform="translate(0)"/><path class="cls-3" d="M78,288.71a10,10,0,1,0-10-10,10,10,0,0,0,10,10" transform="translate(0)"/><path class="cls-3" d="M57.91,288.71a10,10,0,1,0-10-10,10,10,0,0,0,10,10" transform="translate(0)"/><path class="cls-3" d="M37.83,289.15a10,10,0,1,0-10-10,10,10,0,0,0,10,10" transform="translate(0)"/><path class="cls-3" d="M118.14,311.2a10,10,0,1,0-10-10,10,10,0,0,0,10,10" transform="translate(0)"/><path class="cls-3" d="M98.06,311.2a10,10,0,1,0-10-10,10,10,0,0,0,10,10" transform="translate(0)"/><path class="cls-3" d="M78,311.2a10,10,0,1,0-10-10,10,10,0,0,0,10,10" transform="translate(0)"/><path class="cls-3" d="M57.91,311.2a10,10,0,1,0-10-10,10,10,0,0,0,10,10" transform="translate(0)"/><path class="cls-3" d="M41.41,307.62A6.46,6.46,0,1,0,35,301.16a6.46,6.46,0,0,0,6.45,6.46" transform="translate(0)"/><path class="cls-3" d="M118.14,333.7a10,10,0,1,0-10-10,10,10,0,0,0,10,10" transform="translate(0)"/><path class="cls-3" d="M98.06,333.7a10,10,0,1,0-10-10,10,10,0,0,0,10,10" transform="translate(0)"/><path class="cls-3" d="M78,333.7a10,10,0,1,0-10-10,10,10,0,0,0,10,10" transform="translate(0)"/><path class="cls-3" d="M57.91,333.7a10,10,0,1,0-10-10,10,10,0,0,0,10,10" transform="translate(0)"/><path class="cls-3" d="M45.62,325.91a2.25,2.25,0,1,0-2.25-2.25,2.25,2.25,0,0,0,2.25,2.25" transform="translate(0)"/><path class="cls-3" d="M118.14,356.19a10,10,0,1,0-10-10,10,10,0,0,0,10,10" transform="translate(0)"/><path class="cls-3" d="M98.06,356.19a10,10,0,1,0-10-10,10,10,0,0,0,10,10" transform="translate(0)"/><path class="cls-3" d="M78,356.19a10,10,0,1,0-10-10,10,10,0,0,0,10,10" transform="translate(0)"/><path class="cls-3" d="M59.32,354.78a8.63,8.63,0,1,0-8.62-8.62,8.62,8.62,0,0,0,8.62,8.62" transform="translate(0)"/><path class="cls-3" d="M118.14,378.69a10,10,0,1,0-10-10,10,10,0,0,0,10,10" transform="translate(0)"/><path class="cls-3" d="M98.06,378.69a10,10,0,1,0-10-10,10,10,0,0,0,10,10" transform="translate(0)"/><path class="cls-3" d="M78,378.69a10,10,0,1,0-10-10,10,10,0,0,0,10,10" transform="translate(0)"/><path class="cls-3" d="M62.85,373.75a5.1,5.1,0,1,0-5.1-5.1,5.1,5.1,0,0,0,5.1,5.1" transform="translate(0)"/><path class="cls-3" d="M118.14,400.75a10,10,0,1,0-10-10,10,10,0,0,0,10,10" transform="translate(0)"/><path class="cls-3" d="M98.06,400.75a10,10,0,1,0-10-10,10,10,0,0,0,10,10" transform="translate(0)"/><path class="cls-3" d="M78,400.75a10,10,0,1,0-10-10,10,10,0,0,0,10,10" transform="translate(0)"/><path class="cls-3" d="M65.94,392.71a2,2,0,1,0-2-2,2,2,0,0,0,2,2" transform="translate(0)"/><path class="cls-3" d="M118.14,422.8a10,10,0,1,0-10-10,10,10,0,0,0,10,10" transform="translate(0)"/><path class="cls-3" d="M98.06,422.8a10,10,0,1,0-10-10,10,10,0,0,0,10,10" transform="translate(0)"/><path class="cls-3" d="M78.56,422.23a9.47,9.47,0,1,0-9.47-9.47,9.47,9.47,0,0,0,9.47,9.47" transform="translate(0)"/><path class="cls-3" d="M118.14,445.3a10,10,0,1,0-10-10,10,10,0,0,0,10,10" transform="translate(0)"/><path class="cls-3" d="M98.06,445.3a10,10,0,1,0-10-10,10,10,0,0,0,10,10" transform="translate(0)"/><path class="cls-3" d="M80.55,442.74a7.48,7.48,0,1,0-7.48-7.48,7.47,7.47,0,0,0,7.48,7.48" transform="translate(0)"/><path class="cls-3" d="M118.14,468.23a10,10,0,1,0-10-10,10,10,0,0,0,10,10" transform="translate(0)"/><path class="cls-3" d="M98.06,468.23a10,10,0,1,0-10-10,10,10,0,0,0,10,10" transform="translate(0)"/><path class="cls-3" d="M81.87,464.35a6.16,6.16,0,1,0-6.15-6.16,6.16,6.16,0,0,0,6.15,6.16" transform="translate(0)"/><path class="cls-3" d="M118.14,490.73a10,10,0,1,0-10-10,10,10,0,0,0,10,10" transform="translate(0)"/><path class="cls-3" d="M98.06,490.73a10,10,0,1,0-10-10,10,10,0,0,0,10,10" transform="translate(0)"/><path class="cls-3" d="M82.53,486.18A5.49,5.49,0,1,0,77,480.69a5.49,5.49,0,0,0,5.49,5.49" transform="translate(0)"/><path class="cls-3" d="M118.14,513.23a10,10,0,1,0-10-10,10,10,0,0,0,10,10" transform="translate(0)"/><path class="cls-3" d="M98.06,513.23a10,10,0,1,0-10-10,10,10,0,0,0,10,10" transform="translate(0)"/><path class="cls-3" d="M82.64,508.57a5.38,5.38,0,1,0-5.38-5.38,5.38,5.38,0,0,0,5.38,5.38" transform="translate(0)"/><path class="cls-3" d="M118.14,535.72a10,10,0,1,0-10-10,10,10,0,0,0,10,10" transform="translate(0)"/><path class="cls-3" d="M98.06,535.72a10,10,0,1,0-10-10,10,10,0,0,0,10,10" transform="translate(0)"/><path class="cls-3" d="M82.39,531.31a5.63,5.63,0,1,0-5.63-5.63,5.64,5.64,0,0,0,5.63,5.63" transform="translate(0)"/><path class="cls-3" d="M118.14,558.22a10,10,0,1,0-10-10,10,10,0,0,0,10,10" transform="translate(0)"/><path class="cls-3" d="M98.06,558.22a10,10,0,1,0-10-10,10,10,0,0,0,10,10" transform="translate(0)"/><path class="cls-3" d="M81.93,554.27a6.09,6.09,0,1,0-6.09-6.09,6.1,6.1,0,0,0,6.09,6.09" transform="translate(0)"/><path class="cls-3" d="M118.14,580.71a10,10,0,1,0-10-10,10,10,0,0,0,10,10" transform="translate(0)"/><path class="cls-3" d="M98.06,580.71a10,10,0,1,0-10-10,10,10,0,0,0,10,10" transform="translate(0)"/><path class="cls-3" d="M81.5,577.2A6.53,6.53,0,1,0,75,570.68a6.52,6.52,0,0,0,6.53,6.52" transform="translate(0)"/><path class="cls-3" d="M118.14,602.77a10,10,0,1,0-10-10,10,10,0,0,0,10,10" transform="translate(0)"/><path class="cls-3" d="M98.06,602.77a10,10,0,1,0-10-10,10,10,0,0,0,10,10" transform="translate(0)"/><path class="cls-3" d="M81.34,599.42a6.69,6.69,0,1,0-6.69-6.69,6.69,6.69,0,0,0,6.69,6.69" transform="translate(0)"/><path class="cls-3" d="M118.14,625.26a10,10,0,1,0-10-10,10,10,0,0,0,10,10" transform="translate(0)"/><path class="cls-3" d="M98.06,625.26a10,10,0,1,0-10-10,10,10,0,0,0,10,10" transform="translate(0)"/><path class="cls-3" d="M81.57,621.68a6.46,6.46,0,1,0-6.46-6.45,6.45,6.45,0,0,0,6.46,6.45" transform="translate(0)"/><path class="cls-3" d="M118.14,647.32a10,10,0,1,0-10-10,10,10,0,0,0,10,10" transform="translate(0)"/><path class="cls-3" d="M98.06,647.32a10,10,0,1,0-10-10,10,10,0,0,0,10,10" transform="translate(0)"/><path class="cls-3" d="M82.25,643.05a5.77,5.77,0,1,0-5.77-5.77,5.77,5.77,0,0,0,5.77,5.77" transform="translate(0)"/><path class="cls-3" d="M118.14,669.82a10,10,0,1,0-10-10,10,10,0,0,0,10,10" transform="translate(0)"/><path class="cls-3" d="M98.06,669.82a10,10,0,1,0-10-10,10,10,0,0,0,10,10" transform="translate(0)"/><path class="cls-3" d="M83.41,664.39a4.62,4.62,0,1,0-4.62-4.61,4.6,4.6,0,0,0,4.62,4.61" transform="translate(0)"/><path class="cls-3" d="M118.14,692.31a10,10,0,1,0-10-10,10,10,0,0,0,10,10" transform="translate(0)"/><path class="cls-3" d="M98.06,692.31a10,10,0,1,0-10-10,10,10,0,0,0,10,10" transform="translate(0)"/><path class="cls-3" d="M84.92,685.37a3.1,3.1,0,1,0-3.1-3.1,3.09,3.09,0,0,0,3.1,3.1" transform="translate(0)"/><path class="cls-3" d="M118.14,714.81a10,10,0,1,0-10-10,10,10,0,0,0,10,10" transform="translate(0)"/><path class="cls-3" d="M98.06,714.81a10,10,0,1,0-10-10,10,10,0,0,0,10,10" transform="translate(0)"/><path class="cls-3" d="M86.62,706.17a1.41,1.41,0,1,0-1.41-1.4,1.4,1.4,0,0,0,1.41,1.4" transform="translate(0)"/><path class="cls-3" d="M118.14,738.19a10,10,0,1,0-10-10,10,10,0,0,0,10,10" transform="translate(0)"/><path class="cls-3" d="M98.29,738a9.81,9.81,0,1,0-9.8-9.8,9.81,9.81,0,0,0,9.8,9.8" transform="translate(0)"/><path class="cls-3" d="M118.14,759.8a10,10,0,1,0-10-10,10,10,0,0,0,10,10" transform="translate(0)"/><path class="cls-3" d="M99.69,758.17a8.41,8.41,0,1,0-8.41-8.41,8.4,8.4,0,0,0,8.41,8.41" transform="translate(0)"/><path class="cls-3" d="M118.14,782.3a10,10,0,1,0-10-10,10,10,0,0,0,10,10" transform="translate(0)"/><path class="cls-3" d="M100.72,779.41a7.16,7.16,0,1,0-7.16-7.15,7.15,7.15,0,0,0,7.16,7.15" transform="translate(0)"/><path class="cls-3" d="M118.14,804.35a10,10,0,1,0-10-10,10,10,0,0,0,10,10" transform="translate(0)"/><path class="cls-3" d="M101.48,800.94a6.63,6.63,0,1,0-6.63-6.63,6.62,6.62,0,0,0,6.63,6.63" transform="translate(0)"/><path class="cls-3" d="M118.14,827.73a10,10,0,1,0-10-10,10,10,0,0,0,10,10" transform="translate(0)"/><path class="cls-3" d="M101.86,823.93a6.24,6.24,0,1,0-6.25-6.24,6.24,6.24,0,0,0,6.25,6.24" transform="translate(0)"/><path class="cls-3" d="M118.14,849.78a10,10,0,1,0-10-10,10,10,0,0,0,10,10" transform="translate(0)"/><path class="cls-3" d="M102,845.82A6.08,6.08,0,1,0,96,839.75a6.07,6.07,0,0,0,6.07,6.07" transform="translate(0)"/><path class="cls-3" d="M118.14,872.72a10,10,0,1,0-10-10,10,10,0,0,0,10,10" transform="translate(0)"/><path class="cls-3" d="M102.13,868.66a6,6,0,1,0-6-6,6,6,0,0,0,6,6" transform="translate(0)"/><path class="cls-3" d="M118.14,894.33a10,10,0,1,0-10-10,10,10,0,0,0,10,10" transform="translate(0)"/><path class="cls-3" d="M102.12,890.28a6,6,0,1,0-6-6,6,6,0,0,0,6,6" transform="translate(0)"/><path class="cls-3" d="M118.14,916.83a10,10,0,1,0-10-10,10,10,0,0,0,10,10" transform="translate(0)"/><path class="cls-3" d="M118.14,940.21a10,10,0,1,0-10-10,10,10,0,0,0,10,10" transform="translate(0)"/><path class="cls-3" d="M102.11,936.16a6,6,0,1,0-6-6,6,6,0,0,0,6,6" transform="translate(0)"/><path class="cls-3" d="M118.14,962.26a10,10,0,1,0-10-10,10,10,0,0,0,10,10" transform="translate(0)"/><path class="cls-3" d="M102.08,958.25a6,6,0,1,0-6-6,6,6,0,0,0,6,6" transform="translate(0)"/><path class="cls-3" d="M118.14,985.2a10,10,0,1,0-10-10,10,10,0,0,0,10,10" transform="translate(0)"/><path class="cls-3" d="M102,981.23A6.07,6.07,0,1,0,96,975.16a6.06,6.06,0,0,0,6.06,6.07" transform="translate(0)"/><path class="cls-3" d="M118.14,1006.81a10,10,0,1,0-10-10,10,10,0,0,0,10,10" transform="translate(0)"/><path class="cls-3" d="M118.14,1028.87a10,10,0,1,0-10-10,10,10,0,0,0,10,10" transform="translate(0)"/><path class="cls-3" d="M118.14,1051.37a10,10,0,1,0-10-10,10,10,0,0,0,10,10" transform="translate(0)"/><path class="cls-3" d="M102.19,1025a6.14,6.14,0,1,0-6.15-6.14,6.14,6.14,0,0,0,6.15,6.14" transform="translate(0)"/><path class="cls-3" d="M102.16,1047.5a6.18,6.18,0,1,0-6.18-6.17,6.17,6.17,0,0,0,6.18,6.17" transform="translate(0)"/><path class="cls-3" d="M118.14,1073.86a10,10,0,1,0-10-10,10,10,0,0,0,10,10" transform="translate(0)"/><path class="cls-3" d="M102.14,1070a6.2,6.2,0,1,0-6.2-6.2,6.2,6.2,0,0,0,6.2,6.2" transform="translate(0)"/><path class="cls-3" d="M118.14,1096.36a10,10,0,1,0-10-10,10,10,0,0,0,10,10" transform="translate(0)"/><path class="cls-3" d="M102.11,1092.54a6.23,6.23,0,1,0-6.23-6.22,6.22,6.22,0,0,0,6.23,6.22" transform="translate(0)"/><path class="cls-3" d="M118.14,1118.41a10,10,0,1,0-10-10,10,10,0,0,0,10,10" transform="translate(0)"/><path class="cls-3" d="M102.08,1114.63a6.26,6.26,0,1,0-6.26-6.26,6.25,6.25,0,0,0,6.26,6.26" transform="translate(0)"/><path class="cls-3" d="M118.14,1140.91a10,10,0,1,0-10-10,10,10,0,0,0,10,10" transform="translate(0)"/><path class="cls-3" d="M102,1137.16a6.29,6.29,0,1,0-6.3-6.29,6.29,6.29,0,0,0,6.3,6.29" transform="translate(0)"/><path class="cls-3" d="M118.14,1163.4a10,10,0,1,0-10-10,10,10,0,0,0,10,10" transform="translate(0)"/><path class="cls-3" d="M102,1159.71a6.35,6.35,0,1,0-6.35-6.34,6.34,6.34,0,0,0,6.35,6.34" transform="translate(0)"/><path class="cls-3" d="M118.14,1186.34a10,10,0,1,0-10-10,10,10,0,0,0,10,10" transform="translate(0)"/><path class="cls-3" d="M101.92,1182.72a6.42,6.42,0,1,0-6.42-6.42,6.41,6.41,0,0,0,6.42,6.42" transform="translate(0)"/><path class="cls-3" d="M118.14,1208.4a10,10,0,1,0-10-10,10,10,0,0,0,10,10" transform="translate(0)"/><path class="cls-3" d="M101.84,1204.85a6.5,6.5,0,1,0-6.5-6.49,6.5,6.5,0,0,0,6.5,6.49" transform="translate(0)"/><path class="cls-3" d="M118.14,1230.89a10,10,0,1,0-10-10,10,10,0,0,0,10,10" transform="translate(0)"/><path class="cls-3" d="M101.74,1227a6.59,6.59,0,1,0-6.58-6.59,6.59,6.59,0,0,0,6.58,6.59" transform="translate(0)"/><path class="cls-3" d="M118.14,1253.83a10,10,0,1,0-10-10,10,10,0,0,0,10,10" transform="translate(0)"/><path class="cls-3" d="M101.65,1250.47a6.68,6.68,0,1,0-6.67-6.68,6.68,6.68,0,0,0,6.67,6.68" transform="translate(0)"/><path class="cls-3" d="M102,1002.88a6.11,6.11,0,1,0-6.11-6.1,6.1,6.1,0,0,0,6.11,6.1" transform="translate(0)"/><path class="cls-3" d="M118.17,1298.71a10,10,0,1,0-10-10,10,10,0,0,0,10,10" transform="translate(0)"/><path class="cls-3" d="M101.5,1295.52a6.86,6.86,0,1,0-6.85-6.85,6.86,6.86,0,0,0,6.85,6.85" transform="translate(0)"/><path class="cls-3" d="M118.17,1276.21a10,10,0,1,0-10-10,10,10,0,0,0,10,10" transform="translate(0)"/><path class="cls-3" d="M101.58,1273a6.78,6.78,0,1,0-6.77-6.78,6.79,6.79,0,0,0,6.77,6.78" transform="translate(0)"/><path class="cls-3" d="M102,913.2a6,6,0,1,0-6-6,6,6,0,0,0,6,6" transform="translate(0)"/></g></g></g></svg>