<svg xmlns="http://www.w3.org/2000/svg" viewBox="0 0 725.86 389.66"><defs><style>.cls-1{fill:#879695;}.cls-2{fill:none;stroke:#bdb294;stroke-miterlimit:10;stroke-width:3px;}</style></defs><g id="Layer_2" data-name="Layer 2"><g id="Layer_1-2" data-name="Layer 1"><path class="cls-1" d="M.86,202.89a55.28,55.28,0,0,0,12.5,2,54.42,54.42,0,0,0,12.5-1.46c4.2-1,8.3-3.1,12.5-4.56s8.3-2.93,12.5-4.56c4.2-1.47,8.3-2.93,12.5-4.72s8.3-3.75,12.5-5.7,8.3-3.58,12.5-5.37,8.3-3.59,12.5-5.54,8.3-3.91,12.5-6,8.3-4.07,12.5-6.18,8.3-4.4,12.5-6.35c4.2-2.12,8.3-3.91,12.5-5.87s8.3-3.74,12.5-5.53,8.3-3.58,12.5-5.21,8.3-3.1,12.5-4.56,8.3-2.77,12.5-4.07,8.3-2.45,12.5-3.59,8.3-2.44,12.5-3.58,8.3-2.44,12.5-3.58l12.5-3.42c4.2-1.14,8.3-2.28,12.5-3.58s8.3-2.77,12.5-4.07,8.3-2.77,12.5-4.07,8.3-2.45,12.5-3.75,8.3-2.6,12.5-3.91,8.3-2.93,12.5-4.39,8.3-3.26,12.5-4.89,8.3-3.26,12.5-4.88,8.3-3.26,12.5-4.73c4.2-1.62,8.3-3.09,12.5-4.55s8.3-2.94,12.5-4.4,8.3-2.61,12.5-3.91,8.3-2.44,12.5-3.74,8.3-2.45,12.5-3.75,8.3-2.44,12.5-3.58,8.3-2.44,12.5-3.58,8.3-2.45,12.5-3.59,8.3-2.28,12.5-3.25,8.3-2.12,12.5-3.1,8.3-2,12.5-2.77,8.3-1.79,12.5-2.6l12.5-2.44c4.2-.82,8.3-1.47,12.5-2.28,4.2-.65,8.3-1.47,12.5-2.12s8.3-1.47,12.5-2.12,8.3-1.3,12.5-2.11l12.5-2,12.5-1.95c4.2-.65,8.3-1.3,12.5-1.79,4.2-.65,8.3-1.14,12.5-1.79s8.3-1.14,12.5-1.79,8.3-1.14,12.5-1.8,8.3-1.3,12.5-1.79,8.3-1.3,12.5-1.95l12.5-2c4.2-.65,8.3-1.3,12.5-2.11,4.2-.65,8.3-1.47,12.5-2.12S721.66.65,725.86,0V389.66H.86V202.89Z"/><path class="cls-2" d="M.86,44.78c4.2-2.93,8.3-5.86,12.5-9s8.3-6.51,12.5-9.44c4.2-3.09,8.3-6,12.5-8.63a94.18,94.18,0,0,1,12.5-6.84C55.06,9.12,59.16,7,63.36,7h12.5c4.2,0,8.3,2.12,12.5,4.07a59.71,59.71,0,0,1,12.5,8,105.34,105.34,0,0,1,12.5,11.89,167.46,167.46,0,0,1,12.5,15.79c4.2,5.87,8.3,12.54,12.5,19.38,4.2,7,8.3,14.49,12.5,22.15s8.3,15.63,12.5,23.61,8.3,16.12,12.5,24.1c4.2,7.81,8.3,15.79,12.5,23.12s8.3,14.49,12.5,21.17,8.3,12.86,12.5,18.56a184,184,0,0,0,12.5,15.47,105.34,105.34,0,0,0,12.5,11.89,67,67,0,0,0,12.5,8c4.2,2,8.3,3.59,12.5,3.91a106.82,106.82,0,0,0,12.5.65,81.89,81.89,0,0,0,12.5-1.46c4.2-.65,8.3-2,12.5-2.77s8.3-1.95,12.5-2.61a81,81,0,0,1,12.5-1,55,55,0,0,1,12.5,1.46,74.92,74.92,0,0,1,12.5,4.07,80.21,80.21,0,0,1,12.5,7,151.86,151.86,0,0,1,12.5,9.11c4.2,3.26,8.3,6.84,12.5,10.26,4.2,3.26,8.3,6.84,12.5,9.77a138.8,138.8,0,0,0,12.5,8.31,114.93,114.93,0,0,0,12.5,6.51,74.86,74.86,0,0,0,12.5,4.23,83,83,0,0,0,12.5,2.28c4.2.49,8.3.82,12.5,1,4.2.33,8.3.33,12.5.49,4.2,0,8.3.16,12.5.16h25c4.2,0,8.3-.16,12.5-.16s8.3-.16,12.5-.16,8.3-.17,12.5-.17,8.3-.16,12.5-.16,8.3-.16,12.5-.16,8.3,0,12.5-.17c4.2,0,8.3-.16,12.5-.16s8.3-.16,12.5-.16,8.3-.16,12.5-.16c4.2-.17,8.3-.17,12.5-.33l12.5-.49,12.5-.49,12.5-.48,12.5-.49c4.2-.17,8.3-.49,12.5-.65s8.3-.49,12.5-.49h12.5"/></g></g></svg>