<svg xmlns="http://www.w3.org/2000/svg" viewBox="0 0 810.13 459.86"><defs><style>.cls-1{fill:none;stroke:#666;}.cls-2,.cls-3,.cls-4,.cls-7{isolation:isolate;}.cls-2{font-size:9px;}.cls-2,.cls-4,.cls-7{fill:#666;font-family:NeueHaasUnicaW1G-Regular, Neue Haas Unica W1G;}.cls-4{font-size:11px;}.cls-5{letter-spacing:0.01em;}.cls-6{letter-spacing:-0.01em;}.cls-7{font-size:12px;}.cls-8{letter-spacing:-0.02em;}.cls-9{letter-spacing:0.01em;}.cls-10{letter-spacing:0.01em;}</style></defs><g id="Layer_2" data-name="Layer 2"><g id="Layer_1-2" data-name="Layer 1"><path class="cls-1" d="M34.58,439.47h726.3"/><line class="cls-1" x1="760.48" y1="447.78" x2="760.48" y2="438.82"/><text class="cls-2" transform="translate(22.96 457.39)">1960</text><line class="cls-1" x1="97.18" y1="438.82" x2="97.18" y2="447.78"/><line class="cls-1" x1="34.18" y1="438.82" x2="34.18" y2="447.78"/><text class="cls-2" transform="translate(85.57 457.39)">1965</text><line class="cls-1" x1="159.78" y1="438.82" x2="159.78" y2="447.78"/><text class="cls-2" transform="translate(148.19 457.39)">1970</text><line class="cls-1" x1="222.38" y1="438.82" x2="222.38" y2="447.78"/><text class="cls-2" transform="translate(210.8 457.39)">1975</text><line class="cls-1" x1="284.98" y1="438.82" x2="284.98" y2="447.78"/><text class="cls-2" transform="translate(273.42 457.39)">1980</text><line class="cls-1" x1="347.58" y1="438.82" x2="347.58" y2="447.78"/><text class="cls-2" transform="translate(336.04 457.39)">1985</text><line class="cls-1" x1="410.28" y1="438.82" x2="410.28" y2="447.78"/><text class="cls-2" transform="translate(398.65 457.39)">1990</text><line class="cls-1" x1="472.88" y1="438.82" x2="472.88" y2="447.78"/><text class="cls-2" transform="translate(461.27 457.39)">1995</text><line class="cls-1" x1="535.48" y1="438.82" x2="535.48" y2="447.78"/><text class="cls-2" transform="translate(523.89 457.39)">2000</text><line class="cls-1" x1="598.08" y1="438.82" x2="598.08" y2="447.78"/><text class="cls-2" transform="translate(586.5 457.39)">2005</text><line class="cls-1" x1="660.68" y1="438.82" x2="660.68" y2="447.78"/><text class="cls-2" transform="translate(649.12 457.39)">2010</text><line class="cls-1" x1="723.28" y1="438.82" x2="723.28" y2="447.78"/><line class="cls-1" x1="760.28" y1="438.82" x2="760.28" y2="447.78"/><text class="cls-2" transform="translate(711.73 457.39)">2015</text><path class="cls-1" d="M760.48,47.86V439.47"/><line class="cls-1" x1="766.58" y1="439.47" x2="760.98" y2="439.47"/><line class="cls-1" x1="766.58" y1="411.63" x2="760.98" y2="411.63"/><text class="cls-2" transform="translate(781.05 414.39)">100</text><line class="cls-1" x1="766.58" y1="383.62" x2="760.98" y2="383.62"/><text class="cls-2" transform="translate(781.05 386.2)">200</text><line class="cls-1" x1="766.58" y1="355.61" x2="760.98" y2="355.61"/><text class="cls-2" transform="translate(781.05 359.02)">300</text><line class="cls-1" x1="766.58" y1="327.61" x2="760.98" y2="327.61"/><text class="cls-2" transform="translate(781.05 331.84)">400</text><line class="cls-1" x1="766.58" y1="299.6" x2="760.98" y2="299.6"/><text class="cls-2" transform="translate(781.05 302.65)">500</text><line class="cls-1" x1="766.58" y1="271.59" x2="760.98" y2="271.59"/><text class="cls-2" transform="translate(781.05 275.47)">600</text><line class="cls-1" x1="766.58" y1="243.75" x2="760.98" y2="243.75"/><text class="cls-2" transform="translate(781.05 248.28)">700</text><line class="cls-1" x1="766.58" y1="215.74" x2="760.98" y2="215.74"/><text class="cls-2" transform="translate(781.05 218.1)">800</text><line class="cls-1" x1="766.58" y1="187.73" x2="760.98" y2="187.73"/><text class="cls-2" transform="translate(781.05 191.92)">900</text><line class="cls-1" x1="766.58" y1="159.73" x2="760.98" y2="159.73"/><text class="cls-2" transform="translate(773.34 163.73)">1,000</text><line class="cls-1" x1="766.58" y1="131.72" x2="760.98" y2="131.72"/><text class="cls-2" transform="translate(773.34 134.55)">1,100</text><line class="cls-1" x1="766.58" y1="103.71" x2="760.98" y2="103.71"/><text class="cls-2" transform="translate(773.34 106.37)">1,200</text><line class="cls-1" x1="766.58" y1="75.87" x2="760.98" y2="75.87"/><text class="cls-2" transform="translate(773.34 80.18)">1,300</text><line class="cls-1" x1="766.58" y1="47.86" x2="760.98" y2="47.86"/><text class="cls-2" transform="translate(773.34 49)">1,400</text><g class="cls-3"><text class="cls-4" transform="translate(757.63 9.42)"><tspan class="cls-5">p</tspan><tspan x="6.45" y="0">opul</tspan><tspan class="cls-6" x="28.02" y="0">a</tspan><tspan x="33.75" y="0">tion</tspan></text><text class="cls-4" transform="translate(757.63 22.62)">(millions)</text></g><text class="cls-7" transform="translate(3.38 441.61)">0.0</text><text class="cls-7" transform="translate(3.38 411.1)">0.5</text><text class="cls-7" transform="translate(3.38 381.6)">1.0</text><text class="cls-7" transform="translate(3.38 351.09)">1.5</text><text class="cls-7" transform="translate(3.38 320.59)">2.0</text><text class="cls-7" transform="translate(3.38 291.08)">2.5</text><text class="cls-7" transform="translate(3.38 260.57)">3.0</text><text class="cls-7" transform="translate(3.38 230.07)">3.5</text><text class="cls-7" transform="translate(3.38 200.56)">4.0</text><text class="cls-7" transform="translate(3.38 169.06)">4.5</text><text class="cls-7" transform="translate(3.38 139.55)">5.0</text><text class="cls-7" transform="translate(3.38 110.05)">5.5</text><text class="cls-7" transform="translate(3.38 79.54)">6.0</text><path class="cls-1" d="M34.18,439V47.21"/><line class="cls-1" x1="33.68" y1="438.99" x2="28.08" y2="438.99"/><line class="cls-1" x1="33.68" y1="408.7" x2="28.08" y2="408.7"/><line class="cls-1" x1="33.68" y1="378.57" x2="28.08" y2="378.57"/><line class="cls-1" x1="33.68" y1="348.45" x2="28.08" y2="348.45"/><line class="cls-1" x1="33.68" y1="318.33" x2="28.08" y2="318.33"/><line class="cls-1" x1="33.68" y1="288.2" x2="28.08" y2="288.2"/><line class="cls-1" x1="33.68" y1="258.08" x2="28.08" y2="258.08"/><line class="cls-1" x1="33.68" y1="227.95" x2="28.08" y2="227.95"/><line class="cls-1" x1="33.68" y1="197.83" x2="28.08" y2="197.83"/><line class="cls-1" x1="33.68" y1="167.71" x2="28.08" y2="167.71"/><line class="cls-1" x1="33.68" y1="137.58" x2="28.08" y2="137.58"/><line class="cls-1" x1="33.68" y1="107.46" x2="28.08" y2="107.46"/><line class="cls-1" x1="33.68" y1="77.33" x2="28.08" y2="77.33"/><line class="cls-1" x1="33.68" y1="47.21" x2="28.08" y2="47.21"/><text class="cls-7" transform="translate(3.38 49.04)">6.5</text><text class="cls-7" transform="translate(0 23.35)"><tspan class="cls-8">f</tspan><tspan x="3.48" y="0">e</tspan><tspan class="cls-9" x="10.08" y="0">r</tspan><tspan x="14.57" y="0">tili</tspan><tspan class="cls-10" x="27.19" y="0">t</tspan><tspan x="31.21" y="0">y</tspan></text><text class="cls-2" transform="translate(782.08 442.34)">0</text></g></g></svg>