<svg xmlns="http://www.w3.org/2000/svg" xmlns:xlink="http://www.w3.org/1999/xlink" viewBox="0 0 794.28 520.61"><defs><style>.cls-1,.cls-12,.cls-14,.cls-18,.cls-21,.cls-24,.cls-27,.cls-3,.cls-31,.cls-6,.cls-8{fill:none;}.cls-2{clip-path:url(#clip-path);}.cls-3{stroke:#c690ca;}.cls-12,.cls-18,.cls-21,.cls-27,.cls-3,.cls-31,.cls-8{stroke-miterlimit:10;}.cls-12,.cls-14,.cls-18,.cls-21,.cls-24,.cls-27,.cls-3,.cls-31,.cls-6,.cls-8{stroke-width:2px;}.cls-13,.cls-15,.cls-19,.cls-22,.cls-25,.cls-28,.cls-4,.cls-5,.cls-7,.cls-9{isolation:isolate;}.cls-5{font-size:10px;fill:#c690ca;font-family:Helvetica;}.cls-6{stroke:#bb889a;}.cls-13,.cls-15,.cls-19,.cls-22,.cls-25,.cls-28,.cls-7,.cls-9{font-size:9px;font-family:NeueHaasUnicaW1G-Regular, Neue Haas Unica W1G;}.cls-7{fill:#bb889a;}.cls-8{stroke:#edc4b5;}.cls-9{fill:#caa278;}.cls-10{letter-spacing:-0.02em;}.cls-11{letter-spacing:0em;}.cls-12{stroke:#7d9394;}.cls-14{stroke:#587d79;}.cls-15{fill:#587d79;}.cls-16{letter-spacing:-0.05em;}.cls-17{letter-spacing:-0.02em;}.cls-18{stroke:#e0c2c0;}.cls-19{fill:#e0c2c0;}.cls-20{letter-spacing:0.01em;}.cls-21{stroke:#99c4c8;}.cls-22{fill:#99c4c8;}.cls-23{letter-spacing:0.01em;}.cls-24,.cls-31{stroke:#c36f6b;}.cls-25{fill:#c36f6b;}.cls-26{letter-spacing:-0.02em;}.cls-27{stroke:#c4b86d;}.cls-28{fill:#c4b86d;}.cls-29{letter-spacing:-0.01em;}.cls-30{letter-spacing:-0.01em;}</style><clipPath id="clip-path" transform="translate(-49.72 -145.01)"><rect class="cls-1" width="905.2" height="681.5"/></clipPath></defs><g id="Layer_2" data-name="Layer 2"><g id="Layer_1-2" data-name="Layer 1"><g class="cls-2"><path class="cls-3" d="M50,597.1c4.1-.4,8.2-.7,12.3-1.1s8.2-.7,12.3-1,8.2-.6,12.3-1l12.3-.9,12.3-.9c4.1-.3,8.2-.5,12.3-.8s8.2-.5,12.3-.8,8.2-.5,12.3-.7,8.2-.4,12.3-.7,8.2-.5,12.3-.8l12.3-.9c4.1-.3,8.2-.5,12.3-.8s8.2-.5,12.3-.7,8.2-.5,12.3-.7,8.2-.5,12.3-.8,8.2-.5,12.3-.7,8.2-.5,12.3-.8,8.2-.6,12.3-.8,8.2-.6,12.3-.9,8.2-.5,12.3-.8,8.2-.5,12.3-.8,8.2-.5,12.3-.8,8.2-.5,12.3-.8,8.2-.5,12.3-.7,8.2-.5,12.3-.7,8.2-.5,12.3-.8,8.2-.5,12.3-.8,8.2-.5,12.3-.8,8.2-.5,12.3-.8,8.2-.6,12.3-1l12.3-1.2c4.1-.4,8.2-.8,12.3-1.3l12.3-1.2c4.1-.4,8.2-.7,12.3-1.1s8.2-.9,12.3-1.3,8.2-.6,12.3-.9,8.2-.8,12.3-1.2,8.2-.8,12.3-1.1,8.2-.8,12.3-1.1,8.2-.8,12.3-1.1,8.2-.7,12.3-1l12.3-.9,12.3-.9c4.1-.3,8.2-.6,12.3-1s8.2-.6,12.3-1,8.2-.7,12.3-1,8.2-.7,12.3-1,8.2-.7,12.3-1,8.2-.6,12.3-1l12.3-.9c4.1-.3,8.2-.5,12.3-.8s8.2-.5,12.3-.8,8.2-.5,12.3-.8,8.2-.5,12.3-.8,8.2-.6,12.3-.8,8.2-.6,12.3-.8,8.2-.5,12.3-.7l12.3-.6c4.1-.2,8.2-.3,12.3-.6s8.2-.6,12.3-1" transform="translate(-49.72 -145.01)"/></g><g class="cls-2"><g class="cls-4"><text class="cls-5" transform="translate(745.3 400.54)">America</text></g></g><g class="cls-2"><path class="cls-6" d="M50,655.1c4.1,0,8.2-.1,12.3-.1s8.2-.1,12.3-.1,8.2-.1,12.3-.1,8.2-.1,12.3-.1,8.2-.1,12.3-.1,8.2-.1,12.3-.1,8.2-.1,12.3-.1,8.2-.1,12.3-.1,8.2-.1,12.3-.1,8.2,0,12.3-.1,8.2-.2,12.3-.2,8.2-.1,12.3-.1,8.2-.1,12.3-.1,8.2-.1,12.3-.1,8.2-.1,12.3-.1,8.2-.1,12.3-.1,8.2-.1,12.3-.1,8.2-.1,12.3-.1,8.2-.1,12.3-.1,8.2-.1,12.3-.1,8.2-.1,12.3-.1,8.2-.1,12.3-.1,8.2-.1,12.3-.1,8.2-.1,12.3-.1,8.2-.1,12.3-.1,8.2-.1,12.3-.1,8.2-.1,12.3-.1,8.2-.1,12.3-.1,8.2-.1,12.3-.2,8.2-.1,12.3-.1,8.2-.1,12.3-.1,8.2-.1,12.3-.1,8.2-.1,12.3-.1,8.2-.1,12.3-.1,8.2-.1,12.3-.1,8.2-.1,12.3-.1,8.2-.1,12.3-.1,8.2-.1,12.3-.1,8.2-.1,12.3-.1,8.2-.1,12.3-.1,8.2-.1,12.3-.1,8.2-.1,12.3-.1,8.2-.1,12.3-.1,8.2-.1,12.3-.1,8.2-.1,12.3-.1,8.2-.1,12.3-.1,8.2-.1,12.3-.1,8.2-.1,12.3-.1,8.2-.1,12.3-.1,8.2-.1,12.3-.1,8.2-.1,12.3-.1,8.2-.1,12.3-.1,8.2-.1,12.3-.1,8.2-.1,12.3-.1,8.2-.1,12.3-.1,8.2-.1,12.3-.1,8.2-.1,12.3-.2,8.2-.1,12.3-.2,8.2-.2,12.3-.2,8.2,0,12.3.1" transform="translate(-49.72 -145.01)"/></g><g class="cls-2"><text class="cls-7" transform="translate(745.3 518.13)">Canada</text></g><g class="cls-2"><path class="cls-8" d="M50,635.8c4.1-.3,8.2-.5,12.3-.8s8.2-.5,12.3-.8,8.2-.5,12.3-.8,8.2-.5,12.3-.8,8.2-.5,12.3-.8,8.2-.6,12.3-.8,8.2-.6,12.3-.8,8.2-.6,12.3-.8,8.2-.6,12.3-.8,8.2-.6,12.3-.8,8.2-.6,12.3-.8,8.2-.6,12.3-.8,8.2-.6,12.3-.9l12.3-.9,12.3-.9,12.3-.9,12.3-.9c4.1-.3,8.2-.6,12.3-1s8.2-.7,12.3-1,8.2-.7,12.3-1,8.2-.7,12.3-1,8.2-.7,12.3-1,8.2-.7,12.3-1.1,8.2-.7,12.3-1,8.2-.7,12.3-1,8.2-.7,12.3-1,8.2-.7,12.3-1,8.2-.7,12.3-1,8.2-.6,12.3-1,8.2-.6,12.3-1,8.2-.6,12.3-.9l12.3-.9,12.3-.9,12.3-.9,12.3-.9,12.3-.9,12.3-.9,12.3-.9,12.3-.9,12.3-.9,12.3-.9c4.1-.3,8.2-.6,12.3-.8s8.2-.5,12.3-.8,8.2-.5,12.3-.8,8.2-.5,12.3-.8,8.2-.5,12.3-.7,8.2-.5,12.3-.7,8.2-.5,12.3-.7,8.2-.4,12.3-.7l12.3-.6,12.3-.6,12.3-.6,12.3-.6,12.3-.6,12.3-.6,12.3-.6,12.3-.6,12.3-.6,12.3-.6c4.1-.2,8.2-.4,12.3-.5" transform="translate(-49.72 -145.01)"/></g><g class="cls-2"><text class="cls-9" transform="translate(745.3 437.74)">B<tspan class="cls-10" x="5.64" y="0">r</tspan><tspan class="cls-11" x="8.69" y="0">azil</tspan></text></g><g class="cls-2"><path class="cls-12" d="M50,501c4.1-1.1,8.2-2.1,12.3-3.2s8.2-2.2,12.3-3.4,8.2-2.3,12.3-3.5l12.3-3.6c4.1-1.2,8.2-2.4,12.3-3.7s8.2-2.5,12.3-3.7,8.2-2.5,12.3-3.8,8.2-2.6,12.3-4,8.2-2.7,12.3-4.1,8.2-2.8,12.3-4.3l12.3-4.5c4.1-1.5,8.2-3.1,12.3-4.7s8.2-3.2,12.3-4.9,8.2-3.3,12.3-5l12.3-5.1c4.1-1.7,8.2-3.4,12.3-5.2s8.2-3.5,12.3-5.3l12.3-5.4c4.1-1.8,8.2-3.7,12.3-5.5l12.3-5.7c4.1-1.9,8.2-3.9,12.3-5.9l12.3-6c4.1-2,8.2-4.1,12.3-6.1s8.2-4.1,12.3-6.2,8.2-4.2,12.3-6.2,8.2-4.2,12.3-6.3l12.3-6.3,12.3-6.3c4.1-2.1,8.2-3,12.3-6.4s8.2-13.5,12.3-13.5,8.2.7,12.3.7,8.2-4.3,12.3-6.4,8.2-4.3,12.3-6.4,8.2-4.3,12.3-6.5,8.2-4.3,12.3-6.5l12.3-6.6,12.3-6.6,12.3-6.6,12.3-6.6,12.3-6.6,12.3-6.6c4.1-2.2,8.2-4.4,12.3-6.5s8.2-4.3,12.3-6.5,8.2-4.3,12.3-6.4,8.2-4.3,12.3-6.4,8.2-4.3,12.3-6.4l12.3-6.3c4.1-2.1,8.2-4.2,12.3-6.2s8.2-4.1,12.3-6.1,8.2-4,12.3-5.9l12.3-5.7c4.1-1.9,8.2-3.7,12.3-5.5l12.3-5.4c4.1-1.8,8.2-3.5,12.3-5.3s8.2-3.5,12.3-5.2l12.3-5.1c4.1-1.7,8.2-3.4,12.3-5s8.2-3.3,12.3-5,8.2-3.3,12.3-4.9l12.3-4.8" transform="translate(-49.72 -145.01)"/></g><g class="cls-2"><text class="cls-13" transform="translate(745.3 28.84)">India</text></g><g class="cls-2"><path class="cls-14" d="M50,652.6l12.3-.3,12.3-.3,12.3-.3,12.3-.3,12.3-.3,12.3-.3c4.1-.1,8.2-.2,12.3-.2s8.2-.2,12.3-.3,8.2-.2,12.3-.2,8.2-.2,12.3-.2,8.2-.2,12.3-.2,8.2-.2,12.3-.2,8.2-.1,12.3-.2,8.2-.1,12.3-.2,8.2-.1,12.3-.2,8.2-.1,12.3-.2,8.2-.1,12.3-.2,8.2-.1,12.3-.2,8.2-.1,12.3-.2,8.2-.1,12.3-.2,8.2-.1,12.3-.2,8.2-.1,12.3-.2,8.2-.1,12.3-.2,8.2-.1,12.3-.2,8.2-.1,12.3-.1,8.2-.1,12.3-.1,8.2-.1,12.3-.1,8.2-.1,12.3-.1,8.2-.1,12.3-.1,8.2-.1,12.3-.1,8.2-.1,12.3-.2,8.2-.1,12.3-.2,8.2-.1,12.3-.2,8.2-.1,12.3-.2,8.2-.1,12.3-.2,8.2-.1,12.3-.2,8.2-.1,12.3-.2,8.2-.1,12.3-.1,8.2-.1,12.3-.1,8.2-.1,12.3-.1,8.2-.1,12.3-.1,8.2-.1,12.3-.1,8.2-.1,12.3-.1,8.2-.1,12.3-.1h12.3c4.1,0,8.2-.1,12.3-.1s8.2,0,12.3-.1,8.2-.1,12.3-.1,8.2-.1,12.3-.1,8.2,0,12.3-.1,8.2-.1,12.3-.1,8.2-.1,12.3-.1,8.2,0,12.3-.1,8.2-.1,12.3-.1,8.2-.1,12.3-.1,8.2-.1,12.3-.1h12.3c4.1,0,8.2-.1,12.3-.1h12.3c4.1,0,8.2.1,12.3.2" transform="translate(-49.72 -145.01)"/></g><g class="cls-2"><text class="cls-15" transform="translate(745.3 501.2)">South <tspan class="cls-16" x="25.88" y="0">K</tspan><tspan x="31.09" y="0">o</tspan><tspan class="cls-17" x="36.17" y="0">r</tspan><tspan class="cls-11" x="39.26" y="0">ea</tspan></text></g><g class="cls-2"><path class="cls-18" d="M50,628.5c4.1-.3,8.2-.7,12.3-.9s8.2-.2,12.3-.3l12.3-.3c4.1-.1,8.2-.2,12.3-.4s8.2-.3,12.3-.4l12.3-.3c4.1-.1,8.2-.3,12.3-.3s8.2,0,12.3-.1,8.2-.6,12.3-.8,8.2-.3,12.3-.4,8.2-.3,12.3-.5,8.2-.4,12.3-.5,8.2-.1,12.3-.3,8.2-.5,12.3-.7,8.2-.5,12.3-.6l12.3-.3c4.1-.1,8.2-.3,12.3-.4s8.2-.2,12.3-.4,8.2-.2,12.3-.4l12.3-.3,12.3-.3,12.3-.3,12.3-.3,12.3-.3,12.3-.3,12.3-.3c4.1-.1,8.2-.1,12.3-.2s8.2-.1,12.3-.2,8.2-.1,12.3-.2,8.2-.1,12.3-.1,8.2-.1,12.3-.1,8.2-.1,12.3-.1,8.2-.1,12.3-.1,8.2-.1,12.3-.1,8.2-.1,12.3-.2,8.2-.1,12.3-.1,8.2-.1,12.3-.1,8.2-.1,12.3-.1,8.2-.1,12.3-.1,8.2,0,12.3-.1,8.2-.1,12.3-.1,8.2-.1,12.3-.1,8.2-.1,12.3-.1h36.9c4.1,0,8.2,0,12.3-.1H665c4.1,0,8.2.1,12.3.1s8.2,0,12.3.1,8.2,0,12.3.1,8.2,0,12.3.1h12.3c4.1,0,8.2,0,12.3.1s8.2,0,12.3.1,8.2.1,12.3.1,8.2.1,12.3.1,8.2,0,12.3-.1" transform="translate(-49.72 -145.01)"/></g><g class="cls-2"><text class="cls-19" transform="translate(745.3 460.4)">Ja<tspan class="cls-20" x="7.98" y="0">p</tspan><tspan x="13.26" y="0">en</tspan></text></g><g class="cls-2"><path class="cls-21" d="M50,645.4l12.3-.3,12.3-.3c4.1-.1,8.2-.2,12.3-.4s8.2-.2,12.3-.4,8.2-.2,12.3-.4,8.2-.3,12.3-.4,8.2-.3,12.3-.4,8.2-.3,12.3-.4,8.2-.3,12.3-.4,8.2-.3,12.3-.4,8.2-.3,12.3-.5,8.2-.3,12.3-.5,8.2-.3,12.3-.5l12.3-.6,12.3-.6c4.1-.2,8.2-.4,12.3-.7s8.2-.5,12.3-.7,8.2-.5,12.3-.7,8.2-.5,12.3-.7,8.2-.5,12.3-.7,8.2-.5,12.3-.7,8.2-.5,12.3-.7,8.2-.5,12.3-.7,8.2-.5,12.3-.7,8.2-.5,12.3-.8,8.2-.5,12.3-.8,8.2-.5,12.3-.8,8.2-.6,12.3-.8,8.2-.6,12.3-.9l12.3-.9,12.3-.9,12.3-.9,12.3-.9,12.3-.9,12.3-.9c4.1-.3,8.2-.7,12.3-1s8.2-.7,12.3-1,8.2-.7,12.3-1,8.2-.7,12.3-1.1,8.2-.7,12.3-1.1,8.2-.7,12.3-1.1,8.2-.8,12.3-1.1l12.3-1.2,12.3-1.2c4.1-.4,8.2-.9,12.3-1.3s8.2-.8,12.3-1.3,8.2-.9,12.3-1.4,8.2-1,12.3-1.4,8.2-.9,12.3-1.4L665,605l12.3-1.5c4.1-.5,8.2-1,12.3-1.6s8.2-1.1,12.3-1.6,8.2-1.1,12.3-1.6,8.2-1.1,12.3-1.7,8.2-1.2,12.3-1.7,8.2-1.2,12.3-1.7,8.2-1.2,12.3-1.8l12.3-1.8,12.3-1.8" transform="translate(-49.72 -145.01)"/></g><g class="cls-2"><text class="cls-22" transform="translate(745.3 449.07)">Nigeria</text></g><g class="cls-2"><text class="cls-13" transform="translate(745.3 493.21)">F<tspan class="cls-10" x="5.16" y="0">r</tspan><tspan x="8.21" y="0">an</tspan><tspan class="cls-23" x="18.17" y="0">c</tspan><tspan x="23.03" y="0">e</tspan></text></g><g class="cls-2"><path class="cls-24" d="M50,641.8c4.1-.1,8.2-.2,12.3-.2s8.2-.1,12.3-.2,8.2-.2,12.3-.2,8.2-.1,12.3-.2l12.3-.3,12.3-.3c4.1-.1,8.2-.1,12.3-.2s8.2,0,12.3-.1,8.2-.1,12.3-.2,8.2-.3,12.3-.3,8.2.1,12.3.1,8.2-.2,12.3-.2,8.2.1,12.3.1,8.2-.3,12.3-.3h12.3c4.1,0,8.2.1,12.3.1s8.2.1,12.3.1H296c4.1,0,8.2-.1,12.3-.1h12.3c4.1,0,8.2,0,12.3.1s8.2.1,12.3.1,8.2.1,12.3.1h36.9c4.1,0,8.2-.1,12.3-.2s8.2-.1,12.3-.3,8.2-6,12.3-6.1,8.2-.1,12.3-.2,8.2-.2,12.3-.2,8.2-.1,12.3-.1,8.2,0,12.3-.1,8.2-.1,12.3-.1h12.3c4.1,0,8.2-.1,12.3-.1h36.9c4.1,0,8.2,0,12.3-.1h73.8c4.1,0,8.2.1,12.3.1s8.2,0,12.3.1,8.2.6,12.3.6h12.3c4.1,0,8.2,0,12.3-.1s8.2,0,12.3-.1,8.2-.1,12.3-.2,8.2-.3,12.3-.3,8.2-.1,12.3-.1,8.2-.1,12.3-.1,8.2,0,12.3-.1l12.3-.3" transform="translate(-49.72 -145.01)"/></g><g class="cls-2"><text class="cls-25" transform="translate(745.3 476.54)">Germa<tspan class="cls-26" x="27.33" y="0">n</tspan><tspan x="32.34" y="0">y</tspan></text></g><g class="cls-2"><path class="cls-27" d="M50,658.3c4.1,0,8.2,0,12.3-.1s8.2,0,12.3-.1,8.2,0,12.3-.1,8.2,0,12.3-.1,8.2-.1,12.3-.1,8.2,0,12.3-.1,8.2-.1,12.3-.1,8.2-.1,12.3-.1,8.2-.1,12.3-.1,8.2-.1,12.3-.1,8.2-.1,12.3-.1,8.2-.1,12.3-.1,8.2-.1,12.3-.1,8.2-.1,12.3-.1,8.2-.1,12.3-.1,8.2-.1,12.3-.1,8.2-.1,12.3-.1,8.2-.1,12.3-.1,8.2,2.1,12.3,2.1H296c4.1,0,8.2-2,12.3-2s8.2.1,12.3.1,8.2.1,12.3.1,8.2.1,12.3.1,8.2.1,12.3.1,8.2.1,12.3.1h24.6c4.1,0,8.2,0,12.3-.1s8.2-.1,12.3-.2l12.3-.3c4.1-.1,8.2-.3,12.3-.4s8.2-.3,12.3-.5,8.2-.3,12.3-.4,8.2-.3,12.3-.4l12.3-.3c4.1-.1,8.2-.1,12.3-.2s8.2-.1,12.3-.1,8.2-.1,12.3-.2,8.2-.1,12.3-.2l12.3-.3c4.1-.1,8.2-.2,12.3-.4s8.2-.3,12.3-.4,8.2-.3,12.3-.4l12.3-.3,12.3-.3c4.1-.1,8.2-.2,12.3-.2s8.2-.1,12.3-.2,8.2-.2,12.3-.2l12.3-.3,12.3-.3c4.1-.1,8.2-.2,12.3-.4s8.2-.3,12.3-.4,8.2-.3,12.3-.4,8.2-.3,12.3-.4l12.3-.3,12.3-.3,12.3-.3,12.3-.3,12.3-.3" transform="translate(-49.72 -145.01)"/></g><g class="cls-2"><text class="cls-28" transform="translate(745.3 509.59)"><tspan class="cls-29">A</tspan><tspan class="cls-30" x="5.95" y="0">f</tspan><tspan x="8.6" y="0">ghanistan</tspan></text></g><g class="cls-2"><path class="cls-31" d="M50,423.8c4.1,1.2,8.2,2.4,12.3,2.4a40.42,40.42,0,0,0,12.3-1.9c4.1-1.3,8.2-4,12.3-5.9l12.3-5.7c4.1-2,8.2-3.8,12.3-6s8.2-4.9,12.3-7.2,8.2-4.5,12.3-6.8,8.2-4.6,12.3-7.1,8.2-5.1,12.3-7.7,8.2-5.3,12.3-7.9,8.2-5.5,12.3-8.1,8.2-5,12.3-7.5,8.2-4.8,12.3-7.1,8.2-4.5,12.3-6.6,8.2-3.9,12.3-5.7,8.2-3.5,12.3-5.1,8.2-3,12.3-4.5l12.3-4.5c4.1-1.5,8.2-3.1,12.3-4.6s8.2-2.9,12.3-4.4,8.2-2.9,12.3-4.5,8.2-3.5,12.3-5.3,8.2-3.6,12.3-5.2,8.2-3.2,12.3-4.8,8.2-3.3,12.3-5.1,8.2-3.7,12.3-5.6,8.2-4.1,12.3-6.1l12.3-6.3c4.1-2.1,8.2-4.1,12.3-6.1s8.2-4,12.3-5.9,8.2-3.8,12.3-5.6,8.2-3.4,12.3-5.1l12.3-4.8,12.3-4.8c4.1-1.6,8.2-3.1,12.3-4.6l12.3-4.5,12.3-4.5c4.1-1.4,8.2-2.9,12.3-4.2s8.2-2.6,12.3-3.8,8.2-2.4,12.3-3.5l12.3-3.3q6.15-1.65,12.3-3c4.1-1,8.2-1.9,12.3-2.9l12.3-2.7,12.3-2.7c4.1-.9,8.2-1.8,12.3-2.6l12.3-2.4,12.3-2.4,12.3-2.4c4.1-.8,8.2-1.5,12.3-2.3s8.2-1.5,12.3-2.3,8.2-1.6,12.3-2.3l12.3-2.4c4.1-.8,8.2-1.6,12.3-2.5s8.2-1.6,12.3-2.5l12.3-2.7c4.1-.9,8.2-1.9,12.3-2.8s8.2-.8,12.3-2.3,8.2-13.3,12.3-14.6,8.2-1.6,12.3-2" transform="translate(-49.72 -145.01)"/></g><g class="cls-2"><text class="cls-25" transform="translate(745.3 7.7)">China</text></g></g></g></svg>