<svg xmlns="http://www.w3.org/2000/svg" xmlns:xlink="http://www.w3.org/1999/xlink" viewBox="0 0 850.98 628.97"><defs><style>.cls-1,.cls-11,.cls-13,.cls-16,.cls-18,.cls-22,.cls-24,.cls-28,.cls-3,.cls-31,.cls-34,.cls-36,.cls-39,.cls-42,.cls-46{fill:none;}.cls-2{clip-path:url(#clip-path);}.cls-3{stroke:#666;}.cls-12,.cls-15,.cls-17,.cls-19,.cls-23,.cls-25,.cls-29,.cls-32,.cls-35,.cls-37,.cls-4,.cls-40,.cls-43,.cls-6,.cls-8{isolation:isolate;}.cls-12,.cls-17,.cls-4{font-size:10px;}.cls-4,.cls-6{fill:#666;}.cls-15,.cls-19,.cls-23,.cls-25,.cls-29,.cls-32,.cls-35,.cls-37,.cls-4,.cls-40,.cls-43,.cls-6{font-family:NeueHaasUnicaW1G-Regular, Neue Haas Unica W1G;}.cls-5{letter-spacing:0em;}.cls-6{font-size:11px;}.cls-7{clip-path:url(#clip-path-43);}.cls-9{letter-spacing:0.01em;}.cls-10{letter-spacing:-0.01em;}.cls-11{stroke:#c690ca;}.cls-11,.cls-18,.cls-22,.cls-28,.cls-34,.cls-36,.cls-42,.cls-46{stroke-miterlimit:10;}.cls-11,.cls-13,.cls-18,.cls-22,.cls-24,.cls-28,.cls-31,.cls-34,.cls-36,.cls-39,.cls-42,.cls-46{stroke-width:2px;}.cls-12{fill:#c690ca;}.cls-12,.cls-17{font-family:Helvetica;}.cls-13{stroke:#bb889a;}.cls-14{clip-path:url(#clip-path-51);}.cls-15,.cls-19,.cls-23,.cls-25,.cls-29,.cls-32,.cls-35,.cls-37,.cls-40,.cls-43{font-size:9px;}.cls-15{fill:#bb889a;}.cls-16{stroke:#3b76ae;}.cls-17,.cls-32{fill:#695c87;}.cls-18{stroke:#edc4b5;}.cls-19{fill:#caa278;}.cls-20{letter-spacing:-0.02em;}.cls-21{letter-spacing:0em;}.cls-22{stroke:#7d9394;}.cls-23{fill:#7d9394;}.cls-24{stroke:#587d79;}.cls-25{fill:#587d79;}.cls-26{letter-spacing:-0.05em;}.cls-27{letter-spacing:-0.02em;}.cls-28{stroke:#e0c2c0;}.cls-29{fill:#e0c2c0;}.cls-30{letter-spacing:0.01em;}.cls-31{stroke:#695c87;}.cls-33{letter-spacing:-0.01em;}.cls-34{stroke:#99c4c8;}.cls-35{fill:#99c4c8;}.cls-36{stroke:#8a5a4c;}.cls-38{letter-spacing:0.01em;}.cls-39,.cls-46{stroke:#c36f6b;}.cls-40{fill:#c36f6b;}.cls-41{letter-spacing:-0.02em;}.cls-42{stroke:#c4b86d;}.cls-43{fill:#c4b86d;}.cls-44{letter-spacing:-0.01em;}.cls-45{letter-spacing:-0.01em;}</style><clipPath id="clip-path" transform="translate(-17.57 -59.71)"><rect class="cls-1" x="3.58" y="8.36" width="905.2" height="681.5"/></clipPath><clipPath id="clip-path-43" transform="translate(-17.57 -59.71)"><rect class="cls-1" x="7.08" y="12.22" width="905.2" height="681.5"/></clipPath><clipPath id="clip-path-51" transform="translate(-17.57 -59.71)"><rect class="cls-1" width="905.2" height="681.5"/></clipPath></defs><g id="Layer_2" data-name="Layer 2"><g id="Layer_1-2" data-name="Layer 1"><g class="cls-2"><path class="cls-3" d="M54.08,670.36h740" transform="translate(-17.57 -59.71)"/></g><g class="cls-2"><line class="cls-3" x1="36.51" y1="610.15" x2="36.51" y2="616.15"/></g><g class="cls-2"><text class="cls-4" transform="translate(26.01 626.22)">1960</text></g><g class="cls-2"><line class="cls-3" x1="98.21" y1="610.15" x2="98.21" y2="616.15"/></g><g class="cls-2"><text class="cls-4" transform="translate(87.68 626.22)">1965</text></g><g class="cls-2"><line class="cls-3" x1="159.81" y1="610.15" x2="159.81" y2="616.15"/></g><g class="cls-2"><text class="cls-4" transform="translate(149.35 626.22)">1970</text></g><g class="cls-2"><line class="cls-3" x1="221.51" y1="610.15" x2="221.51" y2="616.15"/></g><g class="cls-2"><text class="cls-4" transform="translate(211.01 626.22)">1975</text></g><g class="cls-2"><line class="cls-3" x1="283.21" y1="610.15" x2="283.21" y2="616.15"/></g><g class="cls-2"><text class="cls-4" transform="translate(272.68 626.22)">1980</text></g><g class="cls-2"><line class="cls-3" x1="344.81" y1="610.15" x2="344.81" y2="616.15"/></g><g class="cls-2"><text class="cls-4" transform="translate(334.35 626.22)">1985</text></g><g class="cls-2"><line class="cls-3" x1="406.51" y1="610.15" x2="406.51" y2="616.15"/></g><g class="cls-2"><text class="cls-4" transform="translate(396.01 626.22)">1990</text></g><g class="cls-2"><line class="cls-3" x1="468.21" y1="610.15" x2="468.21" y2="616.15"/></g><g class="cls-2"><text class="cls-4" transform="translate(457.68 626.22)">1995</text></g><g class="cls-2"><line class="cls-3" x1="529.81" y1="610.15" x2="529.81" y2="616.15"/></g><g class="cls-2"><text class="cls-4" transform="translate(519.35 626.22)">2000</text></g><g class="cls-2"><line class="cls-3" x1="591.51" y1="610.15" x2="591.51" y2="616.15"/></g><g class="cls-2"><text class="cls-4" transform="translate(581.01 626.22)">2005</text></g><g class="cls-2"><line class="cls-3" x1="653.21" y1="610.15" x2="653.21" y2="616.15"/></g><g class="cls-2"><text class="cls-4" transform="translate(642.68 626.22)">2010</text></g><g class="cls-2"><line class="cls-3" x1="714.81" y1="610.15" x2="714.81" y2="616.15"/></g><g class="cls-2"><text class="cls-4" transform="translate(704.35 626.22)">2015</text></g><g class="cls-2"><line class="cls-3" x1="776.51" y1="610.15" x2="776.51" y2="616.15"/></g><g class="cls-2"><text class="cls-4" transform="translate(766.01 626.22)">2020</text></g><g class="cls-2"><text class="cls-4" transform="translate(831.86 613.95)"><tspan class="cls-5">y</tspan><tspan x="4.69" y="0">ear</tspan></text></g><g class="cls-2"><path class="cls-3" d="M54.08,670.36v-570" transform="translate(-17.57 -59.71)"/></g><g class="cls-2"><line class="cls-3" x1="36.01" y1="610.65" x2="30.01" y2="610.65"/></g><g class="cls-2"><text class="cls-4" transform="translate(21.46 613.82)">0</text></g><g class="cls-2"><line class="cls-3" x1="36.01" y1="539.35" x2="30.01" y2="539.35"/></g><g class="cls-2"><text class="cls-4" transform="translate(8.34 542.57)">200</text></g><g class="cls-2"><line class="cls-3" x1="36.01" y1="468.15" x2="30.01" y2="468.15"/></g><g class="cls-2"><text class="cls-4" transform="translate(8.34 471.32)">400</text></g><g class="cls-2"><line class="cls-3" x1="36.01" y1="396.85" x2="30.01" y2="396.85"/></g><g class="cls-2"><text class="cls-6" transform="translate(10.34 400.07)">600</text></g><g class="cls-2"><line class="cls-3" x1="36.01" y1="325.65" x2="30.01" y2="325.65"/></g><g class="cls-2"><text class="cls-4" transform="translate(8.34 328.82)">800</text></g><g class="cls-2"><line class="cls-3" x1="36.01" y1="254.35" x2="30.01" y2="254.35"/></g><g class="cls-2"><text class="cls-4" transform="translate(0 257.57)">1,000</text></g><g class="cls-2"><line class="cls-3" x1="36.01" y1="183.15" x2="30.01" y2="183.15"/></g><g class="cls-7"><text class="cls-4" transform="translate(3.5 187.18)">1,200</text></g><g class="cls-2"><line class="cls-3" x1="36.01" y1="111.85" x2="30.01" y2="111.85"/></g><g class="cls-2"><text class="cls-4" transform="translate(0 115.07)">1,400</text></g><g class="cls-2"><line class="cls-3" x1="36.01" y1="40.65" x2="30.01" y2="40.65"/></g><text class="cls-4" transform="translate(0 43.82)">1,600</text><g class="cls-2"><g class="cls-8"><text class="cls-6" transform="translate(9.02 9.42)"><tspan class="cls-9">p</tspan><tspan x="6.45" y="0">opul</tspan><tspan class="cls-10" x="28.02" y="0">a</tspan><tspan x="33.75" y="0">tion</tspan></text><text class="cls-6" transform="translate(9.02 22.62)">(millions)</text></g></g><g class="cls-2"><path class="cls-11" d="M53.58,605.46c4.1-.4,8.2-.7,12.3-1.1s8.2-.7,12.3-1,8.2-.6,12.3-1l12.3-.9,12.3-.9c4.1-.3,8.2-.5,12.3-.8s8.2-.5,12.3-.8,8.2-.5,12.3-.7,8.2-.4,12.3-.7,8.2-.5,12.3-.8l12.3-.9c4.1-.3,8.2-.5,12.3-.8s8.2-.5,12.3-.7,8.2-.5,12.3-.7,8.2-.5,12.3-.8,8.2-.5,12.3-.7,8.2-.5,12.3-.8,8.2-.6,12.3-.8,8.2-.6,12.3-.9,8.2-.5,12.3-.8,8.2-.5,12.3-.8,8.2-.5,12.3-.8,8.2-.5,12.3-.8,8.2-.5,12.3-.7,8.2-.5,12.3-.7,8.2-.5,12.3-.8,8.2-.5,12.3-.8,8.2-.5,12.3-.8,8.2-.5,12.3-.8,8.2-.6,12.3-1l12.3-1.2c4.1-.4,8.2-.8,12.3-1.3l12.3-1.2c4.1-.4,8.2-.7,12.3-1.1s8.2-.9,12.3-1.3,8.2-.6,12.3-.9,8.2-.8,12.3-1.2,8.2-.8,12.3-1.1,8.2-.8,12.3-1.1,8.2-.8,12.3-1.1,8.2-.7,12.3-1l12.3-.9,12.3-.9c4.1-.3,8.2-.6,12.3-1s8.2-.6,12.3-1,8.2-.7,12.3-1,8.2-.7,12.3-1,8.2-.7,12.3-1,8.2-.6,12.3-1l12.3-.9c4.1-.3,8.2-.5,12.3-.8s8.2-.5,12.3-.8,8.2-.5,12.3-.8,8.2-.5,12.3-.8,8.2-.6,12.3-.8,8.2-.6,12.3-.8,8.2-.5,12.3-.7l12.3-.6c4.1-.2,8.2-.3,12.3-.6s8.2-.6,12.3-1" transform="translate(-17.57 -59.71)"/></g><g class="cls-2"><g class="cls-8"><text class="cls-12" transform="translate(781.02 494.2)">America</text></g></g><g class="cls-2"><path class="cls-13" d="M53.58,663.46c4.1,0,8.2-.1,12.3-.1s8.2-.1,12.3-.1,8.2-.1,12.3-.1,8.2-.1,12.3-.1,8.2-.1,12.3-.1,8.2-.1,12.3-.1,8.2-.1,12.3-.1,8.2-.1,12.3-.1,8.2-.1,12.3-.1,8.2,0,12.3-.1,8.2-.2,12.3-.2,8.2-.1,12.3-.1,8.2-.1,12.3-.1,8.2-.1,12.3-.1,8.2-.1,12.3-.1,8.2-.1,12.3-.1,8.2-.1,12.3-.1,8.2-.1,12.3-.1,8.2-.1,12.3-.1,8.2-.1,12.3-.1,8.2-.1,12.3-.1,8.2-.1,12.3-.1,8.2-.1,12.3-.1,8.2-.1,12.3-.1,8.2-.1,12.3-.1,8.2-.1,12.3-.1,8.2-.1,12.3-.1,8.2-.1,12.3-.1,8.2-.1,12.3-.2,8.2-.1,12.3-.1,8.2-.1,12.3-.1,8.2-.1,12.3-.1,8.2-.1,12.3-.1,8.2-.1,12.3-.1,8.2-.1,12.3-.1,8.2-.1,12.3-.1,8.2-.1,12.3-.1,8.2-.1,12.3-.1,8.2-.1,12.3-.1,8.2-.1,12.3-.1,8.2-.1,12.3-.1,8.2-.1,12.3-.1,8.2-.1,12.3-.1,8.2-.1,12.3-.1,8.2-.1,12.3-.1,8.2-.1,12.3-.1,8.2-.1,12.3-.1,8.2-.1,12.3-.1,8.2-.1,12.3-.1,8.2-.1,12.3-.1,8.2-.1,12.3-.1,8.2-.1,12.3-.1,8.2-.1,12.3-.1,8.2-.1,12.3-.1,8.2-.1,12.3-.1,8.2-.1,12.3-.1,8.2-.1,12.3-.2,8.2-.1,12.3-.2,8.2-.2,12.3-.2,8.2,0,12.3.1" transform="translate(-17.57 -59.71)"/></g><g class="cls-14"><text class="cls-15" transform="translate(781.44 611.43)">Canada</text></g><g class="cls-2"><path class="cls-16" d="M53.58,651.16c4.1,0,8.2-.1,12.3-.1s8.2-.1,12.3-.2,8.2-.1,12.3-.1,8.2-.1,12.3-.1,8.2-.1,12.3-.1,8.2-.1,12.3-.1,8.2-.1,12.3-.1,8.2-.1,12.3-.1,8.2-.1,12.3-.1,8.2-.1,12.3-.1,8.2-.1,12.3-.1,8.2-.1,12.3-.1H398c4.1,0,8.2,0,12.3-.1s8.2,0,12.3-.1,8.2,0,12.3-.1,8.2,0,12.3-.1,8.2,0,12.3,0,8.2,0,12.3-.1,8.2,0,12.3-.1,8.2,0,12.3-.1,8.2,0,12.3-.1,8.2,0,12.3-.1,8.2,0,12.3-.1,8.2,0,12.3-.1,8.2-.1,12.3-.1,8.2-.1,12.3-.1,8.2-.1,12.3-.1,8.2-.1,12.3-.1,8.2-.1,12.3-.1,8.2-.1,12.3-.2,8.2-.1,12.3-.2,8.2-.1,12.3-.2,8.2-.1,12.3-.2,8.2-.1,12.3-.2,8.2-.1,12.3-.2,8.2-.1,12.3-.2,8.2-.1,12.3-.2,8.2-.1,12.3-.2,8.2-.1,12.3-.2,8.2-.1,12.3-.2,8.2-.1,12.3-.2,8.2-.1,12.3-.1,8.2,0,12.3-.1,8.2-.2,12.3-.4" transform="translate(-17.57 -59.71)"/></g><g class="cls-2"><g class="cls-8"><text class="cls-17" transform="translate(781.02 578.94)">UK</text></g></g><g class="cls-2"><path class="cls-18" d="M53.58,644.16c4.1-.3,8.2-.5,12.3-.8s8.2-.5,12.3-.8,8.2-.5,12.3-.8,8.2-.5,12.3-.8,8.2-.5,12.3-.8,8.2-.6,12.3-.8,8.2-.6,12.3-.8,8.2-.6,12.3-.8,8.2-.6,12.3-.8,8.2-.6,12.3-.8,8.2-.6,12.3-.8,8.2-.6,12.3-.8,8.2-.6,12.3-.9l12.3-.9,12.3-.9,12.3-.9,12.3-.9c4.1-.3,8.2-.6,12.3-1s8.2-.7,12.3-1,8.2-.7,12.3-1,8.2-.7,12.3-1,8.2-.7,12.3-1,8.2-.7,12.3-1.1,8.2-.7,12.3-1,8.2-.7,12.3-1,8.2-.7,12.3-1,8.2-.7,12.3-1,8.2-.7,12.3-1,8.2-.6,12.3-1,8.2-.6,12.3-1,8.2-.6,12.3-.9l12.3-.9,12.3-.9,12.3-.9,12.3-.9,12.3-.9,12.3-.9,12.3-.9,12.3-.9,12.3-.9,12.3-.9c4.1-.3,8.2-.6,12.3-.8s8.2-.5,12.3-.8,8.2-.5,12.3-.8,8.2-.5,12.3-.8,8.2-.5,12.3-.7,8.2-.5,12.3-.7,8.2-.5,12.3-.7,8.2-.4,12.3-.7l12.3-.6,12.3-.6,12.3-.6,12.3-.6,12.3-.6,12.3-.6,12.3-.6,12.3-.6,12.3-.6,12.3-.6c4.1-.2,8.2-.4,12.3-.5" transform="translate(-17.57 -59.71)"/></g><g class="cls-2"><text class="cls-19" transform="translate(781.02 531.4)">B<tspan class="cls-20" x="5.64" y="0">r</tspan><tspan class="cls-21" x="8.69" y="0">azil</tspan></text></g><g class="cls-2"><path class="cls-22" d="M53.58,509.36c4.1-1.1,8.2-2.1,12.3-3.2s8.2-2.2,12.3-3.4,8.2-2.3,12.3-3.5l12.3-3.6c4.1-1.2,8.2-2.4,12.3-3.7s8.2-2.5,12.3-3.7,8.2-2.5,12.3-3.8,8.2-2.6,12.3-4,8.2-2.7,12.3-4.1,8.2-2.8,12.3-4.3l12.3-4.5c4.1-1.5,8.2-3.1,12.3-4.7s8.2-3.2,12.3-4.9,8.2-3.3,12.3-5l12.3-5.1c4.1-1.7,8.2-3.4,12.3-5.2s8.2-3.5,12.3-5.3L275,432c4.1-1.8,8.2-3.7,12.3-5.5l12.3-5.7c4.1-1.9,8.2-3.9,12.3-5.9l12.3-6c4.1-2,8.2-4.1,12.3-6.1s8.2-4.1,12.3-6.2,8.2-4.2,12.3-6.2,8.2-4.2,12.3-6.3l12.3-6.3,12.3-6.3c4.1-2.1,8.2-3,12.3-6.4s8.2-13.5,12.3-13.5,8.2.7,12.3.7,8.2-4.3,12.3-6.4,8.2-4.3,12.3-6.4,8.2-4.3,12.3-6.5,8.2-4.3,12.3-6.5l12.3-6.6,12.3-6.6,12.3-6.6,12.3-6.6,12.3-6.6,12.3-6.6c4.1-2.2,8.2-4.4,12.3-6.5s8.2-4.3,12.3-6.5,8.2-4.3,12.3-6.4,8.2-4.3,12.3-6.4,8.2-4.3,12.3-6.4l12.3-6.3c4.1-2.1,8.2-4.2,12.3-6.2s8.2-4.1,12.3-6.1,8.2-4,12.3-5.9l12.3-5.7c4.1-1.9,8.2-3.7,12.3-5.5l12.3-5.4c4.1-1.8,8.2-3.5,12.3-5.3s8.2-3.5,12.3-5.2l12.3-5.1c4.1-1.7,8.2-3.4,12.3-5s8.2-3.3,12.3-5,8.2-3.3,12.3-4.9l12.3-4.8" transform="translate(-17.57 -59.71)"/></g><g class="cls-2"><text class="cls-23" transform="translate(781.02 122.49)">India</text></g><g class="cls-2"><path class="cls-24" d="M53.58,661l12.3-.3,12.3-.3,12.3-.3,12.3-.3,12.3-.3,12.3-.3c4.1-.1,8.2-.2,12.3-.2s8.2-.2,12.3-.3,8.2-.2,12.3-.2,8.2-.2,12.3-.2,8.2-.2,12.3-.2,8.2-.2,12.3-.2,8.2-.1,12.3-.2,8.2-.1,12.3-.2,8.2-.1,12.3-.2,8.2-.1,12.3-.2,8.2-.1,12.3-.2,8.2-.1,12.3-.2,8.2-.1,12.3-.2,8.2-.1,12.3-.2,8.2-.1,12.3-.2,8.2-.1,12.3-.2,8.2-.1,12.3-.2,8.2-.1,12.3-.2,8.2-.1,12.3-.1,8.2-.1,12.3-.1,8.2-.1,12.3-.1,8.2-.1,12.3-.1,8.2-.1,12.3-.1,8.2-.1,12.3-.1,8.2-.1,12.3-.2,8.2-.1,12.3-.2,8.2-.1,12.3-.2,8.2-.1,12.3-.2,8.2-.1,12.3-.2,8.2-.1,12.3-.2,8.2-.1,12.3-.2,8.2-.1,12.3-.1,8.2-.1,12.3-.1,8.2-.1,12.3-.1,8.2-.1,12.3-.1,8.2-.1,12.3-.1,8.2-.1,12.3-.1,8.2-.1,12.3-.1h12.3c4.1,0,8.2-.1,12.3-.1s8.2,0,12.3-.1,8.2-.1,12.3-.1,8.2-.1,12.3-.1,8.2,0,12.3-.1,8.2-.1,12.3-.1,8.2-.1,12.3-.1,8.2,0,12.3-.1,8.2-.1,12.3-.1,8.2-.1,12.3-.1,8.2-.1,12.3-.1h12.3c4.1,0,8.2-.1,12.3-.1h12.3c4.1,0,8.2.1,12.3.2" transform="translate(-17.57 -59.71)"/></g><g class="cls-2"><text class="cls-25" transform="translate(781.02 594.86)">South <tspan class="cls-26" x="25.88" y="0">K</tspan><tspan x="31.09" y="0">o</tspan><tspan class="cls-27" x="36.17" y="0">r</tspan><tspan class="cls-21" x="39.26" y="0">ea</tspan></text></g><g class="cls-2"><path class="cls-28" d="M53.58,636.86c4.1-.3,8.2-.7,12.3-.9s8.2-.2,12.3-.3l12.3-.3c4.1-.1,8.2-.2,12.3-.4s8.2-.3,12.3-.4l12.3-.3c4.1-.1,8.2-.3,12.3-.3s8.2,0,12.3-.1,8.2-.6,12.3-.8,8.2-.3,12.3-.4,8.2-.3,12.3-.5,8.2-.4,12.3-.5,8.2-.1,12.3-.3,8.2-.5,12.3-.7,8.2-.5,12.3-.6l12.3-.3c4.1-.1,8.2-.3,12.3-.4s8.2-.2,12.3-.4,8.2-.2,12.3-.4l12.3-.3,12.3-.3,12.3-.3,12.3-.3,12.3-.3,12.3-.3,12.3-.3c4.1-.1,8.2-.1,12.3-.2s8.2-.1,12.3-.2,8.2-.1,12.3-.2,8.2-.1,12.3-.1,8.2-.1,12.3-.1,8.2-.1,12.3-.1,8.2-.1,12.3-.1,8.2-.1,12.3-.1,8.2-.1,12.3-.2,8.2-.1,12.3-.1,8.2-.1,12.3-.1,8.2-.1,12.3-.1,8.2-.1,12.3-.1,8.2,0,12.3-.1,8.2-.1,12.3-.1,8.2-.1,12.3-.1,8.2-.1,12.3-.1h36.9c4.1,0,8.2,0,12.3-.1h36.9c4.1,0,8.2.1,12.3.1s8.2,0,12.3.1,8.2,0,12.3.1,8.2,0,12.3.1h12.3c4.1,0,8.2,0,12.3.1s8.2,0,12.3.1,8.2.1,12.3.1,8.2.1,12.3.1,8.2,0,12.3-.1" transform="translate(-17.57 -59.71)"/></g><g class="cls-2"><text class="cls-29" transform="translate(781.02 554.06)">Ja<tspan class="cls-30" x="7.98" y="0">p</tspan><tspan x="13.26" y="0">en</tspan></text></g><g class="cls-2"><path class="cls-31" d="M53.58,658.16c4.1-.1,8.2-.2,12.3-.4s8.2-.2,12.3-.4,8.2-.2,12.3-.4,8.2-.3,12.3-.4,8.2-.3,12.3-.4,8.2-.3,12.3-.4,8.2-.3,12.3-.4,8.2-.3,12.3-.4,8.2-.3,12.3-.4,8.2-.3,12.3-.4,8.2-.3,12.3-.4,8.2-.3,12.3-.4,8.2-.2,12.3-.4,8.2-.3,12.3-.4,8.2-.3,12.3-.4,8.2-.3,12.3-.4,8.2-.3,12.3-.4,8.2-.3,12.3-.4,8.2-.3,12.3-.4,8.2-.3,12.3-.4,8.2-.3,12.3-.4,8.2-.3,12.3-.5,8.2-.3,12.3-.5,8.2-.3,12.3-.5,8.2-.3,12.3-.5,8.2-.3,12.3-.5,8.2-.3,12.3-.5,8.2-.3,12.3-.5,8.2-.3,12.3-.5,8.2-.3,12.3-.5,8.2-.3,12.3-.5,8.2-.3,12.3-.5,8.2-.3,12.3-.5,8.2-.3,12.3-.5,8.2-.3,12.3-.4,8.2-.3,12.3-.4,8.2-.3,12.3-.4,8.2-.2,12.3-.4l12.3-.3,12.3-.3,12.3-.3,12.3-.3,12.3-.3,12.3-.3,12.3-.3,12.3-.3,12.3-.3,12.3-.3,12.3-.3,12.3-.3,12.3-.3,12.3-.3,12.3-.3,12.3-.3,12.3-.3,12.3-.3,12.3-.3,12.3-.3,12.3-.3,12.3-.3" transform="translate(-17.57 -59.71)"/></g><g class="cls-2"><text class="cls-32" transform="translate(781.02 562.44)">Vi<tspan class="cls-33" x="7.81" y="0">e</tspan><tspan class="cls-21" x="12.71" y="0">tnam</tspan></text></g><g class="cls-2"><path class="cls-34" d="M53.58,653.76l12.3-.3,12.3-.3c4.1-.1,8.2-.2,12.3-.4s8.2-.2,12.3-.4,8.2-.2,12.3-.4,8.2-.3,12.3-.4,8.2-.3,12.3-.4,8.2-.3,12.3-.4,8.2-.3,12.3-.4,8.2-.3,12.3-.4,8.2-.3,12.3-.5,8.2-.3,12.3-.5,8.2-.3,12.3-.5l12.3-.6,12.3-.6c4.1-.2,8.2-.4,12.3-.7s8.2-.5,12.3-.7,8.2-.5,12.3-.7,8.2-.5,12.3-.7,8.2-.5,12.3-.7,8.2-.5,12.3-.7,8.2-.5,12.3-.7,8.2-.5,12.3-.7,8.2-.5,12.3-.7,8.2-.5,12.3-.8,8.2-.5,12.3-.8,8.2-.5,12.3-.8,8.2-.6,12.3-.8,8.2-.6,12.3-.9l12.3-.9,12.3-.9,12.3-.9,12.3-.9,12.3-.9,12.3-.9c4.1-.3,8.2-.7,12.3-1s8.2-.7,12.3-1,8.2-.7,12.3-1,8.2-.7,12.3-1.1,8.2-.7,12.3-1.1,8.2-.7,12.3-1.1,8.2-.8,12.3-1.1l12.3-1.2,12.3-1.2c4.1-.4,8.2-.9,12.3-1.3s8.2-.8,12.3-1.3,8.2-.9,12.3-1.4,8.2-1,12.3-1.4,8.2-.9,12.3-1.4l12.3-1.5,12.3-1.5c4.1-.5,8.2-1,12.3-1.6s8.2-1.1,12.3-1.6,8.2-1.1,12.3-1.6,8.2-1.1,12.3-1.7,8.2-1.2,12.3-1.7,8.2-1.2,12.3-1.7,8.2-1.2,12.3-1.8l12.3-1.8,12.3-1.8" transform="translate(-17.57 -59.71)"/></g><g class="cls-2"><text class="cls-35" transform="translate(781.02 542.73)">Nigeria</text></g><g class="cls-2"><path class="cls-36" d="M53.58,653.26c4.1-.1,8.2-.1,12.3-.2s8.2-.2,12.3-.2,8.2-.2,12.3-.2,8.2-.2,12.3-.2,8.2-.1,12.3-.2,8.2-.1,12.3-.2,8.2-.1,12.3-.2,8.2-.1,12.3-.1,8.2-.1,12.3-.1,8.2-.1,12.3-.1,8.2-.1,12.3-.1,8.2-.1,12.3-.1,8.2-.1,12.3-.1,8.2-.1,12.3-.1,8.2-.1,12.3-.1,8.2-.1,12.3-.1,8.2-.1,12.3-.1,8.2-.1,12.3-.1,8.2-.1,12.3-.1,8.2-.1,12.3-.1,8.2-.1,12.3-.1,8.2-.1,12.3-.1,8.2-.1,12.3-.1,8.2-.1,12.3-.1,8.2-.1,12.3-.1,8.2-.1,12.3-.1,8.2-.1,12.3-.1,8.2-.1,12.3-.1,8.2-.1,12.3-.1,8.2-.1,12.3-.1,8.2-.1,12.3-.1,8.2-.1,12.3-.1,8.2-.1,12.3-.1,8.2-.1,12.3-.1,8.2,0,12.3-.1,8.2-.1,12.3-.1h12.3c4.1,0,8.2-.1,12.3-.2s8.2-.1,12.3-.1,8.2-.1,12.3-.1,8.2-.1,12.3-.2,8.2-.1,12.3-.2,8.2-.1,12.3-.2,8.2-.1,12.3-.2,8.2-.1,12.3-.2,8.2-.1,12.3-.2,8.2-.1,12.3-.1,8.2-.1,12.3-.1,8.2-.1,12.3-.1,8.2-.1,12.3-.1,8.2-.1,12.3-.1,8.2-.1,12.3-.1,8.2-.1,12.3-.1,8.2-.1,12.3-.1,8.2-.1,12.3-.1,8.2,0,12.3-.1h36.9c4.1,0,8.2.3,12.3.6" transform="translate(-17.57 -59.71)"/></g><g class="cls-2"><text class="cls-37" transform="translate(781.02 586.87)">F<tspan class="cls-20" x="5.16" y="0">r</tspan><tspan x="8.21" y="0">an</tspan><tspan class="cls-38" x="18.17" y="0">c</tspan><tspan x="23.03" y="0">e</tspan></text></g><g class="cls-2"><path class="cls-39" d="M53.58,650.16c4.1-.1,8.2-.2,12.3-.2s8.2-.1,12.3-.2,8.2-.2,12.3-.2,8.2-.1,12.3-.2l12.3-.3,12.3-.3c4.1-.1,8.2-.1,12.3-.2s8.2,0,12.3-.1,8.2-.1,12.3-.2,8.2-.3,12.3-.3,8.2.1,12.3.1,8.2-.2,12.3-.2,8.2.1,12.3.1,8.2-.3,12.3-.3h12.3c4.1,0,8.2.1,12.3.1s8.2.1,12.3.1h36.9c4.1,0,8.2-.1,12.3-.1h12.3c4.1,0,8.2,0,12.3.1s8.2.1,12.3.1,8.2.1,12.3.1H398c4.1,0,8.2-.1,12.3-.2s8.2-.1,12.3-.3,8.2-6,12.3-6.1,8.2-.1,12.3-.2,8.2-.2,12.3-.2,8.2-.1,12.3-.1,8.2,0,12.3-.1,8.2-.1,12.3-.1h12.3c4.1,0,8.2-.1,12.3-.1h36.9c4.1,0,8.2,0,12.3-.1H644c4.1,0,8.2.1,12.3.1s8.2,0,12.3.1,8.2.6,12.3.6h12.3c4.1,0,8.2,0,12.3-.1s8.2,0,12.3-.1,8.2-.1,12.3-.2,8.2-.3,12.3-.3,8.2-.1,12.3-.1,8.2-.1,12.3-.1,8.2,0,12.3-.1l12.3-.3" transform="translate(-17.57 -59.71)"/></g><g class="cls-2"><text class="cls-40" transform="translate(781.02 570.2)">Germa<tspan class="cls-41" x="27.33" y="0">n</tspan><tspan x="32.34" y="0">y</tspan></text></g><g class="cls-2"><path class="cls-42" d="M53.58,666.66c4.1,0,8.2,0,12.3-.1s8.2,0,12.3-.1,8.2,0,12.3-.1,8.2,0,12.3-.1,8.2-.1,12.3-.1,8.2,0,12.3-.1,8.2-.1,12.3-.1,8.2-.1,12.3-.1,8.2-.1,12.3-.1,8.2-.1,12.3-.1,8.2-.1,12.3-.1,8.2-.1,12.3-.1,8.2-.1,12.3-.1,8.2-.1,12.3-.1,8.2-.1,12.3-.1,8.2-.1,12.3-.1,8.2-.1,12.3-.1,8.2-.1,12.3-.1,8.2,2.1,12.3,2.1h12.3c4.1,0,8.2-2,12.3-2s8.2.1,12.3.1,8.2.1,12.3.1,8.2.1,12.3.1,8.2.1,12.3.1,8.2.1,12.3.1H398c4.1,0,8.2,0,12.3-.1s8.2-.1,12.3-.2l12.3-.3c4.1-.1,8.2-.3,12.3-.4s8.2-.3,12.3-.5,8.2-.3,12.3-.4,8.2-.3,12.3-.4l12.3-.3c4.1-.1,8.2-.1,12.3-.2s8.2-.1,12.3-.1,8.2-.1,12.3-.2,8.2-.1,12.3-.2l12.3-.3c4.1-.1,8.2-.2,12.3-.4s8.2-.3,12.3-.4,8.2-.3,12.3-.4l12.3-.3,12.3-.3c4.1-.1,8.2-.2,12.3-.2s8.2-.1,12.3-.2,8.2-.2,12.3-.2l12.3-.3,12.3-.3c4.1-.1,8.2-.2,12.3-.4s8.2-.3,12.3-.4,8.2-.3,12.3-.4,8.2-.3,12.3-.4l12.3-.3,12.3-.3,12.3-.3,12.3-.3,12.3-.3" transform="translate(-17.57 -59.71)"/></g><g class="cls-2"><text class="cls-43" transform="translate(781.02 603.25)"><tspan class="cls-44">A</tspan><tspan class="cls-45" x="5.95" y="0">f</tspan><tspan x="8.6" y="0">ghanistan</tspan></text></g><g class="cls-2"><path class="cls-46" d="M53.58,432.16c4.1,1.2,8.2,2.4,12.3,2.4a40.42,40.42,0,0,0,12.3-1.9c4.1-1.3,8.2-4,12.3-5.9l12.3-5.7c4.1-2,8.2-3.8,12.3-6s8.2-4.9,12.3-7.2,8.2-4.5,12.3-6.8,8.2-4.6,12.3-7.1,8.2-5.1,12.3-7.7,8.2-5.3,12.3-7.9,8.2-5.5,12.3-8.1,8.2-5,12.3-7.5,8.2-4.8,12.3-7.1,8.2-4.5,12.3-6.6,8.2-3.9,12.3-5.7,8.2-3.5,12.3-5.1,8.2-3,12.3-4.5l12.3-4.5c4.1-1.5,8.2-3.1,12.3-4.6s8.2-2.9,12.3-4.4,8.2-2.9,12.3-4.5,8.2-3.5,12.3-5.3,8.2-3.6,12.3-5.2,8.2-3.2,12.3-4.8,8.2-3.3,12.3-5.1,8.2-3.7,12.3-5.6,8.2-4.1,12.3-6.1l12.3-6.3c4.1-2.1,8.2-4.1,12.3-6.1s8.2-4,12.3-5.9,8.2-3.8,12.3-5.6,8.2-3.4,12.3-5.1l12.3-4.8,12.3-4.8c4.1-1.6,8.2-3.1,12.3-4.6l12.3-4.5,12.3-4.5c4.1-1.4,8.2-2.9,12.3-4.2s8.2-2.6,12.3-3.8,8.2-2.4,12.3-3.5l12.3-3.3q6.15-1.65,12.3-3c4.1-1,8.2-1.9,12.3-2.9l12.3-2.7,12.3-2.7c4.1-.9,8.2-1.8,12.3-2.6l12.3-2.4L644,198l12.3-2.4c4.1-.8,8.2-1.5,12.3-2.3s8.2-1.5,12.3-2.3,8.2-1.6,12.3-2.3l12.3-2.4c4.1-.8,8.2-1.6,12.3-2.5s8.2-1.6,12.3-2.5l12.3-2.7c4.1-.9,8.2-1.9,12.3-2.8s8.2-.8,12.3-2.3,8.2-13.3,12.3-14.6,8.2-1.6,12.3-2" transform="translate(-17.57 -59.71)"/></g><g class="cls-2"><text class="cls-40" transform="translate(781.02 101.36)">China</text></g></g></g></svg>