<svg xmlns="http://www.w3.org/2000/svg" viewBox="0 0 867.98 641.67"><defs><style>.cls-1,.cls-18,.cls-2,.cls-26,.cls-4{fill:none;}.cls-1{stroke:#000;}.cls-2,.cls-4{stroke:#666;}.cls-19,.cls-27,.cls-3,.cls-5{isolation:isolate;font-family:NeueHaasUnicaW1G-Regular, Neue Haas Unica W1G;}.cls-3{font-size:11px;}.cls-3,.cls-5{fill:#666;}.cls-18,.cls-4{stroke-miterlimit:10;}.cls-19,.cls-27,.cls-5{font-size:15px;}.cls-6{letter-spacing:-0.11em;}.cls-7{letter-spacing:-0.01em;}.cls-8{letter-spacing:0em;}.cls-9{letter-spacing:0.01em;}.cls-10{letter-spacing:0.02em;}.cls-11{letter-spacing:0em;}.cls-12{letter-spacing:-0.02em;}.cls-13{letter-spacing:-0.01em;}.cls-14{letter-spacing:-0.02em;}.cls-15{letter-spacing:-0.02em;}.cls-16{letter-spacing:0.01em;}.cls-17{letter-spacing:0em;}.cls-18{stroke:#a0baae;}.cls-18,.cls-26{stroke-width:2px;}.cls-19{fill:#a0baae;}.cls-20{letter-spacing:-0.02em;}.cls-21{letter-spacing:-0.05em;}.cls-22{letter-spacing:-0.01em;}.cls-23{letter-spacing:0.01em;}.cls-24{letter-spacing:-0.02em;}.cls-25{letter-spacing:-0.01em;}.cls-26{stroke:#c36f6b;}.cls-27{fill:#c36f6b;}</style></defs><g id="Layer_2" data-name="Layer 2"><g id="Layer_1-2" data-name="Layer 1"><path class="cls-1" d="M46.48,623.09h740"/><line class="cls-2" x1="46.48" y1="622.59" x2="46.48" y2="628.59"/><text class="cls-3" transform="translate(33.99 638.65)">1960</text><line class="cls-4" x1="108.15" y1="622.59" x2="108.15" y2="628.59"/><text class="cls-3" transform="translate(95.65 638.65)">1965</text><line class="cls-4" x1="169.82" y1="622.59" x2="169.82" y2="628.59"/><text class="cls-3" transform="translate(157.32 638.65)">1970</text><line class="cls-4" x1="231.48" y1="622.59" x2="231.48" y2="628.59"/><text class="cls-3" transform="translate(218.99 638.65)">1975</text><line class="cls-4" x1="293.15" y1="622.59" x2="293.15" y2="628.59"/><text class="cls-3" transform="translate(280.65 638.65)">1980</text><line class="cls-4" x1="354.82" y1="622.59" x2="354.82" y2="628.59"/><text class="cls-3" transform="translate(342.32 638.65)">1985</text><line class="cls-4" x1="416.48" y1="622.59" x2="416.48" y2="628.59"/><text class="cls-3" transform="translate(403.99 638.65)">1990</text><line class="cls-4" x1="478.15" y1="622.59" x2="478.15" y2="628.59"/><text class="cls-3" transform="translate(465.65 638.65)">1995</text><line class="cls-4" x1="539.82" y1="622.59" x2="539.82" y2="628.59"/><text class="cls-3" transform="translate(527.32 638.65)">2000</text><line class="cls-4" x1="601.48" y1="622.59" x2="601.48" y2="628.59"/><text class="cls-3" transform="translate(588.99 638.65)">2005</text><line class="cls-4" x1="663.15" y1="622.59" x2="663.15" y2="628.59"/><text class="cls-3" transform="translate(650.65 638.65)">2010</text><line class="cls-4" x1="724.82" y1="622.59" x2="724.82" y2="628.59"/><text class="cls-3" transform="translate(712.32 638.65)">2015</text><line class="cls-4" x1="786.48" y1="622.59" x2="786.48" y2="628.59"/><text class="cls-3" transform="translate(773.99 638.65)">2020</text><text class="cls-5" transform="translate(770.83 614.26)"><tspan class="cls-6">Y</tspan><tspan x="7.6" y="0">ear</tspan></text><path class="cls-2" d="M46.48,623.09v-570"/><line class="cls-2" x1="45.98" y1="623.09" x2="39.98" y2="623.09"/><text class="cls-3" transform="translate(31.44 626.25)">0</text><line class="cls-2" x1="45.98" y1="551.84" x2="39.98" y2="551.84"/><text class="cls-3" transform="translate(31.44 555)">1</text><line class="cls-2" x1="45.98" y1="480.59" x2="39.98" y2="480.59"/><text class="cls-3" transform="translate(31.44 483.75)">2</text><line class="cls-2" x1="45.98" y1="409.34" x2="39.98" y2="409.34"/><text class="cls-3" transform="translate(31.44 412.5)">3</text><line class="cls-2" x1="45.98" y1="338.09" x2="39.98" y2="338.09"/><text class="cls-3" transform="translate(31.44 341.25)">4</text><line class="cls-2" x1="45.98" y1="266.84" x2="39.98" y2="266.84"/><text class="cls-3" transform="translate(31.44 270)">5</text><line class="cls-2" x1="45.98" y1="195.59" x2="39.98" y2="195.59"/><text class="cls-3" transform="translate(31.44 198.75)">6</text><line class="cls-2" x1="45.98" y1="124.34" x2="39.98" y2="124.34"/><text class="cls-3" transform="translate(31.44 127.5)">7</text><line class="cls-2" x1="45.98" y1="53.09" x2="39.98" y2="53.09"/><text class="cls-3" transform="translate(31.44 56.25)">8</text><text class="cls-5" transform="translate(0 12.84)"><tspan class="cls-7">F</tspan><tspan class="cls-8" x="8.4" y="0">e</tspan><tspan class="cls-9" x="16.65" y="0">r</tspan><tspan x="22.26" y="0">tili</tspan><tspan class="cls-10" x="38.04" y="0">t</tspan><tspan class="cls-11" x="43.06" y="0">y </tspan><tspan class="cls-12" x="53.59" y="0">r</tspan><tspan class="cls-13" x="58.68" y="0">a</tspan><tspan class="cls-14" x="66.49" y="0">t</tspan><tspan x="71.05" y="0">e</tspan></text><text class="cls-5" transform="translate(0 30.84)">(child<tspan class="cls-15" x="36.99" y="0">r</tspan><tspan class="cls-8" x="42.13" y="0">en </tspan><tspan class="cls-16" x="62.47" y="0">p</tspan><tspan class="cls-8" x="71.26" y="0">er </tspan><tspan class="cls-17" x="88.39" y="0">w</tspan><tspan x="99.9" y="0">oman)</tspan></text><path class="cls-18" d="M46,362.49l12.3,2.1L70.58,376l12.3,10,12.3,9.3,12.3,20,12.3,13.5,12.3,11.4,12.3,7.1H157l12.3-1.4,12.3,15,12.3,18.5,12.3,9.3,12.3,3.6,12.3,4.3,12.3,2.1,12.3-3.6,12.3,2.1,12.3-3.6,12.3-2.1,12.3,2.1,12.3-1.4,12.3,2.1,12.3-.7,12.3-2.1h12.3l12.3-2.1,12.3-4.3,12.3-5.7,12.3-5,12.3,1.4,12.3.7,12.3,2.1,12.3,1.4,12.3,1.4H490l12.3.7,12.3-2.1,12.3-.7,12.3-3.6,12.3,2.1,12.3.7,12.3-2.1h12.3l12.3-.7,12.3-3.6,12.3-.7,12.3,3.6,12.3,5,12.3,5,12.3,2.8,12.3.7,12.3,1.4H712l12.3,1.4,12.3,1.4,12.3,3.6,12.3,2.8"/><text class="cls-19" transform="translate(786.33 494.28)">US</text><path class="cls-18" d="M46,351.09l12.3,4.3,12.3,5,12.3,5,12.3,10.7,12.3,24.2,12.3,26.4,12.3,15.7,12.3,10,12.3,4.3,12.3,5,12.3,8.5,12.3,11.4,12.3,6.4,12.3,3.6,12.3,1.4,12.3,1.4,12.3,1.4,12.3.7,12.3,1.4,12.3.7,12.3,2.8,12.3.7,12.3.7,12.3,2.1,12.3-1.4,12.3-.7h25.5l12.3-6.4,12.3-4.3,12.3,9.3,12.3-.7,12.3.7,12.3,2.1,12.3,2.1,12.3,3.6L502,512l12.3,1.4,12.3,1.4,12.3,1.4,12.3-1.4,12.3.7,12.3-2.1h12.3l12.3-.7,12.3-3.6,12.3-5,12.3-1.4,12.3.7,12.3,2.8,12.3,1.4h12.3l12.3,1.4,12.3.7,12.3,1.4,12.3,1.4,12.3,2.8h12.3"/><text class="cls-19" transform="translate(787.33 552.67)">Canada</text><path class="cls-18" d="M46,430.89l12.3-6.4,12.3-5.7,12.3-1.4,12.3-3.6,12.3,5,12.3,5.7,12.3,7.1,12.3,5.7,12.3,6.4,12.3,5,12.3,2.1,12.3,15,12.3,11.4,12.3,8.6,12.3,7.8,12.3,5,12.3,3.6,12.3-4.3,12.3-7.8,12.3-2.9,12.3,5.7,12.3,2.8,12.3.7H342l12.3-1.4,12.3.7,12.3-2.1,12.3-.7,12.3,2.1,12.3-2.8,12.3.7,12.3,2.1,12.3,2.1,12.3,1.4,12.3,2.1,12.3-1.4,12.3.7,12.3.7,12.3,2.1,12.3,2.8,12.3.7H564l12.3-5,12.3-3.6,12.3-.7,12.3-4.3,12.3-2.8,12.3-3.6,12.3,1.4,12.3-2.1,12.3.7,12.3-.7,12.3,6.4,12.3,1.4,12.3.7,12.3.7,12.3,3.6,12.3,4.3"/><text class="cls-19" transform="translate(787.44 523.61)">UK</text><path class="cls-18" d="M46,190.79l12.3,2.1,12.3,3.6,12.3,5,12.3,6.4,12.3,8.5,12.3,9.3,12.3,10.7,12.3,10.7,12.3,10.7,12.3,10.7,12.3,9.3,12.3,9.3,12.3,7.8,12.3,7.1,12.3,5.7,12.3,5.7,12.3,5,12.3,5,12.3,5.7,12.3,5.7,12.3,7.1,12.3,7.1,12.3,8.6,12.3,8.5,12.3,9.3,12.3,9.3,12.3,8.6,12.3,8.5,12.3,7.1L415,416l12.3,5.7,12.3,5,12.3,4.3,12.3,3.6,12.3,3.6,12.3,3.6,12.3,4.3,12.3,3.6,12.3,4.3,12.3,5,12.3,5,12.3,5,12.3,4.3,12.3,5,12.3,3.6,12.3,3.6,12.3,3.6,12.3,2.1,12.3,2.1,12.3,1.4,12.3,1.4,12.3.7,12.3.7H712l12.3.7h12.3l12.3.7,12.3.7"/><text class="cls-19" transform="translate(809.33 494.28)">B<tspan class="cls-20" x="9.4" y="0">r</tspan><tspan x="14.49" y="0">azil</tspan></text><path class="cls-18" d="M46,201.49l12.3.7,12.3.7,12.3.7,12.3,1.4,12.3,2.1,12.3,2.8,12.3,2.8,12.3,3.6,12.3,3.6,12.3,4.3,12.3,5,12.3,5.7,12.3,5.7,12.3,5.7,12.3,6.4,12.3,5.7,12.3,5.7,12.3,5,12.3,5,12.3,4.3,12.3,4.3,12.3,5,12.3,4.3,12.3,5.7,12.3,5.7,12.3,5.7,12.3,6.4,12.3,6.4,12.3,6.4,12.3,6.4,12.3,5.7,12.3,5.7,12.3,5.7,12.3,5.7,12.3,5,12.3,5,12.3,5,12.3,4.3,12.3,5,12.3,5,12.3,5,12.3,4.3,12.3,5,12.3,5,12.3,5,12.3,5,12.3,5.7,12.3,5.7,12.3,5.7,12.3,5.7,12.3,5,12.3,5,12.3,4.3,12.3,3.6,12.3,2.8,12.3,1.4,12.3,2.1,12.3,1.4"/><text class="cls-19" transform="translate(786.33 438.37)">India</text><path class="cls-18" d="M46,188.59,58.28,200l12.3,13.5,12.3,15,12.3,14.2,12.3,14.2,12.3,13.5,12.3,12.1,12.3,10.7,12.3,10.7,12.3-4.3,12.3-.7,12.3,29.9,12.3,3.6,12.3,21.4,12.8,24.4,12.3,30.6,12.3.7,12.3,24.9,12.3-18.5,12.3,5.7,12.3,17.8,12.3,12.8,12.3,23.5,12.3,22.8,12.3,5.7,12.3,5.7,12.3,3.6,12.3-1.4,12.3-.7,12.3-.7,12.3-10,12.3-3.6,12.3,7.8,12.3-.7,12.3,2.1,12.3,4.3,12.3,3.6,12.3,5,12.3,2.9,12.3-4.3,12.3,12.1,12.3,9.3,12.3-.7,12.3,2.1,12.3,5,12.3-2.8,12.3-9.3,12.3,4.3,12.3,2.8,12.3-5.7,12.3-.7,12.3-4.3,12.3,7.8,12.3-1.4,12.3-2.1,12.3,5,12.3,8.5,12.3,5"/><text class="cls-19" transform="translate(786.33 583.72)">South <tspan class="cls-21" x="43.14" y="0">K</tspan><tspan class="cls-11" x="51.81" y="0">o</tspan><tspan class="cls-15" x="60.28" y="0">r</tspan><tspan class="cls-8" x="65.43" y="0">ea</tspan></text><path class="cls-18" d="M46,480.09l12.3-3.6,12.3,2.9,12.3-.7,12.3-2.1,12.3-6.4,12.3,39.9,12.3-31.3,12.3-7.8h24.9l12.3-2.1,12.3,1.4h12.3l12.3,6.4,12.3,10,12.3,4.3,12.3,3.6,12.3.7,12.3,1.4,12.3,1.4,12.3.7,12.3-2.1,12.3-2.1,12.3-.7,12.3,3.6,12.3,2.8,12.3,2.1,12.3,2.1,12.3,6.4,12.3,2.1,12.3.7,12.3,2.1,12.3,2.9,12.3-2.9,12.3,5.7,12.3-.7,12.3,2.8,12.3.7,12.3,2.8,12.3-1.4,12.3,2.1,12.3.7,12.3,2.1h12.3l12.3,2.1,12.3-4.3,12.3-1.4,12.3-2.1H649l12.3-1.4H675l12.3-1.4,12.3-1.4,12.3.7,12.3-2.1,12.3.7,12.3.7,12.3.7"/><text class="cls-19" transform="translate(787.33 567.37)">Japan</text><path class="cls-18" d="M46,170.09l12.3-2.8,12.3-2.1,12.3-2.1,12.3-.7,12.3-.7,12.3-1.4H157l12.3,2.1,12.3,2.8,12.3,5,12.3,7.1,12.3,8.6,12.5,11.3,12.3,12.1,12.3,13.5,12.3,13.5,12.3,13.5,12.3,12.8,12.3,12.8,12.3,12.8,12.3,12.1,12.3,11.4,12.3,10.7,12.3,10.7,12.3,9.3,12.3,9.3,12.3,8.6,12.3,9.3,12.3,9.3,12.3,11.4,12.3,12.1,12.3,13.5,12.3,13.5,12.3,12.8,12.3,12.1,12.3,10.7,12.3,7.8,12.3,6.4,12.3,4.3,12.3,2.1,12.3,1.4,12.3.7H601l12.3-.7,12.3-.7,12.3-.7,12.3-.7,12.3-.7,12.3-.7,12.3-.7,12.3-1.4,12.3-1.4,12.3-.7,12.3-1.4,12.3-.7,12.3-.7"/><text class="cls-19" transform="translate(786.33 460.48)">Vi<tspan class="cls-22" x="13.02" y="0">e</tspan><tspan x="21.18" y="0">tnam</tspan></text><path class="cls-18" d="M46,419.49l12.3-1.4,12.3-1.4H83l12.3,1.4,12.3,2.1,12.3,2.8,12.3,3.6,12.3,4.3,12.3,5,12.3,5,12.3,5.7,12.3,6.4,12.3,7.1,12.3,7.1,12.3,6.4,12.3,5.7,12.3,5,12.3,3.6,12.3,1.4,12.3,1.4H305l12.3-.7h37l12.3.7,12.3,1.4,12.3,1.4,12.3,1.4,12.3,1.4,12.3,1.4,12.3.7,12.3.7H465l12.3-.7,12.3-.7,12.3-1.4,12.3-.7,12.3-2.1,12.3-5.7,12.3-.7,12.3,1.4,12.3-.7,12.3-2.1,12.3-1.4,12.3-4.3,12.3,1.4,12.3-2.1,12.3.7,12.3-2.1,12.3,1.4h12.3l12.3,1.4L711,480l12.3,2.9,12.3,2.8,12.3,1.4,12.3,1.4"/><text class="cls-19" transform="translate(786.33 477.6)">F<tspan class="cls-20" x="8.59" y="0">r</tspan><tspan x="13.68" y="0">an</tspan><tspan class="cls-23" x="30.28" y="0">c</tspan><tspan class="cls-8" x="38.38" y="0">e</tspan></text><path class="cls-18" d="M46,453.69l12.3-5.7,12.3.7,12.3-5,12.3-2.1,12.3,2.8,12.3-2.1,12.3,3.6,12.3,7.1,12.3,12.1,12.3,12.8,12.3,7.8,12.3,15,12.3,12.1,12.3,2.1,12.3,4.3h12.3l12.3,3.6,12.3,1.4h12.3l12.3-4.3,12.3.7,12.3,1.4,12.3,5.7,12.3,2.8,12.3-5.7,12.3-4.3H379l12.3-2.1,12.3,2.8,12.3-2.1,12.3,8.6,12.3,2.8,12.3.7,12.3,2.8,12.3-.7,12.3-3.6,12.3-3.6,12.3-.7H527l12.3-1.4,12.3,2.1,12.3.7h12.3l12.3-1.4,12.3,1.4,12.3.7,12.3-2.8,12.3-.7,12.3,1.4,12.3-2.1H675l12.3-1.4,12.3-.7,12.3-3.6,12.3-2.1,12.3-7.1,12.3,2.1h12.3"/><text class="cls-19" transform="translate(787.33 538.68)">Germa<tspan class="cls-24" x="45.55" y="0">n</tspan><tspan x="53.89" y="0">y</tspan></text><path class="cls-18" d="M46,91.69h283.6l12.3-.7h61.7l12.3-.7,12.3-.7,12.3-1.4,12.3-2.8,12.3-2.1,12.3-2.8,12.3-1.4H502l12.3,1.4,12.3,3.6,12.3,5,12.3,7.1,12.3,8.6,12.3,8.5,12.3,9.3,12.3,10,12.3,11.4,12.3,12.1,12.3,12.8,12.3,13.5,12.3,14.2,12.3,15,12.3,15,12.3,14.2,12.3,14.2,12.3,12.8,12.3,12.8,12.3,12.1,12.3,11.4"/><text class="cls-19" transform="translate(786.33 308.06)"><tspan class="cls-25">A</tspan><tspan class="cls-13" x="9.92" y="0">f</tspan><tspan x="14.34" y="0">ghanistan</tspan></text><path class="cls-18" d="M46,170.09h24.6l12.3.7h12.3l12.3.7,12.3-.7,12.3-1.4,12.3-2.1,12.3-2.1,12.3-3.6,12.3-3.6,12.3-4.3,12.3-3.6,12.3-2.8,12.3-2.8,12.3-2.1,12.3-1.4,12.3-.7,12.3-.7H305l12.3.7,12.3,1.4,12.3,1.4,12.3,2.1,12.3,2.9,12.3,2.1,12.3,3.6,12.3,2.8,12.3,3.6,12.3,3.6,12.3,3.6,12.3,2.8,12.3,3.6,12.3,2.9,12.3,2.8,12.3,2.1,12.3,2.1,12.3,2.1,12.3,1.4,12.3,2.1,12.3,1.4,12.3,1.4,12.3,2.1,12.3,1.4,12.3,2.1,12.3,2.1,12.3,2.1,12.3,2.1,12.3,2.1,12.3,2.8,12.3,2.9,12.3,3.6,12.3,4.3,12.3,4.3,12.3,4.3,12.3,5,12.3,5"/><text class="cls-19" transform="translate(786.33 242.51)">Nigeria</text><path class="cls-26" d="M46,212.19l12.3-10.7,12.3-10.7,12.3-10.7,12.3-7.8,12.3-4.3H120l12.3,4.3,12.3,10,12.3,13.5,12.3,19.2,12.3,22.8,12.3,25.7,12.3,28.5,12.3,28.5,12.3,27.1,12.3,24.9,12.3,22.1,12.3,18.5,12.3,13.5,12.3,10,12.3,4.3,12.3.7,12.3-1.4,12.3-3.6,12.3-2.9,12.3-1.4,12.3,2.1,12.3,4.3,12.3,8.6,12.3,10.7,12.3,12.1,12.3,11.4,12.3,10,12.3,7.8,12.3,5,12.3,2.8,12.3,1.4h12.3l12.3.7,12.3-.7h38.1l12.3-.7h24.7l12.3-.7h24.7l12.3-.7H675l12.3-.7,12.3-.7,12.3-.7,12.3-.7,12.3-.7H749l12.3-.7"/><text class="cls-27" transform="translate(786.44 508.89)">China</text></g></g></svg>