<svg xmlns="http://www.w3.org/2000/svg" width="626.464" height="221.8" viewBox="0 0 626.464 221.8">
  <defs>
    <style>
      .cls-1, .cls-2 {
        fill: #425b6d;
        font-size: 48px;
        font-family: KeplerStd-Medium, Kepler Std;
        font-weight: 500;
      }

      .cls-1 {
        letter-spacing: 0.01em;
      }
    </style>
  </defs>
  <g id="Group_57" data-name="Group 57" transform="translate(-9.544 344.4)">
    <g id="Group">
      <text id="_" data-name="“" class="cls-1" transform="translate(9.544 -309.4)"><tspan x="0" y="0">“</tspan></text>
      <text id="E" class="cls-1" transform="translate(28.072 -309.4)"><tspan x="0" y="0">E</tspan></text>
      <text id="ve" class="cls-1" transform="translate(54.76 -309.4)"><tspan x="0" y="0">ve</tspan></text>
      <text id="r" class="cls-1" transform="translate(99.016 -309.4)"><tspan x="0" y="0">r</tspan></text>
      <text id="y" class="cls-1" transform="translate(119.272 -309.4)"><tspan x="0" y="0">y</tspan></text>
      <text id="t" class="cls-1" transform="translate(142.024 -309.4)"><tspan x="0" y="0">t</tspan></text>
      <text id="hin" class="cls-1" transform="translate(158.68 -309.4)"><tspan x="0" y="0">hin</tspan></text>
      <text id="g_se" data-name="g se" class="cls-1" transform="translate(225.976 -309.4)"><tspan x="0" y="0">g se</tspan></text>
      <text id="e-2" data-name="e" class="cls-1" transform="translate(302.536 -309.4)"><tspan x="0" y="0">e</tspan></text>
      <text id="ms_to_in" data-name="ms to in" class="cls-1" transform="translate(324.376 -309.4)"><tspan x="0" y="0">ms to in</tspan></text>
      <text id="dic" class="cls-1" transform="translate(488.008 -309.4)"><tspan x="0" y="0">dic</tspan></text>
      <text id="a" class="cls-1" transform="translate(550.36 -309.4)"><tspan x="0" y="0">a</tspan></text>
      <text id="t-2" data-name="t" class="cls-1" transform="translate(573.928 -309.4)"><tspan x="0" y="0">t</tspan></text>
      <text id="e-3" data-name="e" class="cls-1" transform="translate(590.488 -309.4)"><tspan x="0" y="0">e</tspan></text>
      <text id="_2" data-name=" " class="cls-1" transform="translate(612.472 -309.4)"><tspan x="0" y="0"> </tspan></text>
      <text id="_3" data-name=" " class="cls-2" transform="translate(623.32 -309.4)"><tspan x="0" y="0"> </tspan></text>
      <text id="t-3" data-name="t" class="cls-1" transform="translate(22.792 -251.8)"><tspan x="0" y="0">t</tspan></text>
      <text id="hat_t" data-name="hat t" class="cls-1" transform="translate(39.448 -251.8)"><tspan x="0" y="0">hat t</tspan></text>
      <text id="h" class="cls-1" transform="translate(133.672 -251.8)"><tspan x="0" y="0">h</tspan></text>
      <text id="e_pas" data-name="e pas" class="cls-1" transform="translate(160.168 -251.8)"><tspan x="0" y="0">e pas</tspan></text>
      <text id="t_i" data-name="t i" class="cls-1" transform="translate(262.888 -251.8)"><tspan x="0" y="0">t i</tspan></text>
      <text id="s_not_p" data-name="s not p" class="cls-1" transform="translate(304.264 -251.8)"><tspan x="0" y="0">s not p</tspan></text>
      <text id="r-2" data-name="r" class="cls-1" transform="translate(440.776 -251.8)"><tspan x="0" y="0">r</tspan></text>
      <text id="e-4" data-name="e" class="cls-1" transform="translate(459.016 -251.8)"><tspan x="0" y="0">e</tspan></text>
      <text id="ser" class="cls-1" transform="translate(481.72 -251.8)"><tspan x="0" y="0">ser</tspan></text>
      <text id="ved" class="cls-1" transform="translate(544.12 -251.8)"><tspan x="0" y="0">ved</tspan></text>
      <text id="_4" data-name=" " class="cls-1" transform="translate(615.16 -251.8)"><tspan x="0" y="0"> </tspan></text>
      <text id="_5" data-name=" " class="cls-2" transform="translate(626.008 -251.8)"><tspan x="0" y="0"> </tspan></text>
      <text id="bu" class="cls-1" transform="translate(23.368 -194.2)"><tspan x="0" y="0">bu</tspan></text>
      <text id="t_i-2" data-name="t i" class="cls-1" transform="translate(76.024 -194.2)"><tspan x="0" y="0">t i</tspan></text>
      <text id="s_r" data-name="s r" class="cls-1" transform="translate(117.4 -194.2)"><tspan x="0" y="0">s r</tspan></text>
      <text id="eco" class="cls-1" transform="translate(165.928 -194.2)"><tspan x="0" y="0">eco</tspan></text>
      <text id="nst" class="cls-1" transform="translate(235 -194.2)"><tspan x="0" y="0">nst</tspan></text>
      <text id="r-3" data-name="r" class="cls-1" transform="translate(298.408 -194.2)"><tspan x="0" y="0">r</tspan></text>
      <text id="uc" class="cls-1" transform="translate(317.944 -194.2)"><tspan x="0" y="0">uc</tspan></text>
      <text id="t-4" data-name="t" class="cls-1" transform="translate(367.576 -194.2)"><tspan x="0" y="0">t</tspan></text>
      <text id="ed_on_t" data-name="ed on t" class="cls-1" transform="translate(384.179 -194.2)"><tspan x="0" y="0">ed on t</tspan></text>
      <text id="h-2" data-name="h" class="cls-1" transform="translate(523.288 -194.2)"><tspan x="0" y="0">h</tspan></text>
      <text id="e-5" data-name="e" class="cls-1" transform="translate(549.688 -194.2)"><tspan x="0" y="0">e</tspan></text>
      <text id="_6" data-name=" " class="cls-1" transform="translate(571.672 -194.2)"><tspan x="0" y="0"> </tspan></text>
      <text id="bas" class="cls-1" transform="translate(23.368 -136.6)"><tspan x="0" y="0">bas</tspan></text>
      <text id="i" class="cls-1" transform="translate(93.016 -136.6)"><tspan x="0" y="0">i</tspan></text>
      <text id="s_o" data-name="s o" class="cls-1" transform="translate(107.128 -136.6)"><tspan x="0" y="0">s o</tspan></text>
      <text id="f_t" data-name="f t" class="cls-1" transform="translate(162.424 -136.6)"><tspan x="0" y="0">f t</tspan></text>
      <text id="h-3" data-name="h" class="cls-1" transform="translate(203.896 -136.6)"><tspan x="0" y="0">h</tspan></text>
      <text id="e_pr" data-name="e pr" class="cls-1" transform="translate(231.256 -136.6)"><tspan x="0" y="0">e pr</tspan></text>
      <text id="e-6" data-name="e" class="cls-1" transform="translate(308.68 -136.6)"><tspan x="0" y="0">e</tspan></text>
      <text id="sent." class="cls-1" transform="translate(331.384 -136.6)"><tspan x="0" y="0">sent.</tspan></text>
      <text id="_7" data-name="”" class="cls-1" transform="translate(422.056 -136.6)"><tspan x="0" y="0">”</tspan></text>
    </g>
  </g>
</svg>
