<svg xmlns="http://www.w3.org/2000/svg" width="262.63" height="82.8" viewBox="0 0 262.63 82.8">
  <defs>
    <style>
      .cls-1 {
        fill: #2b2e34;
        font-size: 18px;
        font-family: KeplerStd-Medium, Kepler Std;
        font-weight: 500;
      }
    </style>
  </defs>
  <g id="Group_48" data-name="Group 48" transform="translate(-15 -422.22)">
    <text id="_" data-name="“" class="cls-1" transform="translate(15 435.22)"><tspan x="0" y="0">“</tspan></text>
    <text id="Y" class="cls-1" transform="translate(22.47 435.22)"><tspan x="0" y="0">Y</tspan></text>
    <text id="ou_just_think_I_am_un" data-name="ou just think I am un" class="cls-1" transform="translate(31.308 435.22)"><tspan x="0" y="0">ou just think I am un</tspan></text>
    <text id="educated" class="cls-1" transform="translate(186.088 435.22)"><tspan x="0" y="0">educated</tspan></text>
    <text id="_." data-name="." class="cls-1" transform="translate(255.586 435.22)"><tspan x="0" y="0">.</tspan></text>
    <text id="_2" data-name=" " class="cls-1" transform="translate(259.456 435.22)"><tspan x="0" y="0"> </tspan></text>
    <text id="Th" class="cls-1" transform="translate(19.284 456.82)"><tspan x="0" y="0">Th</tspan></text>
    <text id="ese_ar" data-name="ese ar" class="cls-1" transform="translate(39.624 456.82)"><tspan x="0" y="0">ese ar</tspan></text>
    <text id="e_the_kn" data-name="e the kn" class="cls-1" transform="translate(82.696 456.82)"><tspan x="0" y="0">e the kn</tspan></text>
    <text id="o" class="cls-1" transform="translate(141.178 456.82)"><tspan x="0" y="0">o</tspan></text>
    <text id="w" class="cls-1" transform="translate(150.34 456.82)"><tspan x="0" y="0">w</tspan></text>
    <text id="ledge_handed_" data-name="ledge handed " class="cls-1" transform="translate(163.282 456.82)"><tspan x="0" y="0">ledge handed </tspan></text>
    <text id="_3" data-name=" " class="cls-1" transform="translate(266.798 456.82)"><tspan x="0" y="0"> </tspan></text>
    <text id="down_by_the_ancest" data-name="down by the ancest" class="cls-1" transform="translate(20.238 478.42)"><tspan x="0" y="0">down by the ancest</tspan></text>
    <text id="ors._I" data-name="ors. I" class="cls-1" transform="translate(163.732 478.42)"><tspan x="0" y="0">ors. I</tspan></text>
    <text id="_4" data-name="’" class="cls-1" transform="translate(201.19 478.42)"><tspan x="0" y="0">’</tspan></text>
    <text id="am_doing_" data-name="am doing " class="cls-1" transform="translate(202.63 478.42)"><tspan x="0" y="0">am doing </tspan></text>
    <text id="these_for_yo" data-name="these for yo" class="cls-1" transform="translate(19.968 500.02)"><tspan x="0" y="0">these for yo</tspan></text>
    <text id="ur_good_" data-name="ur good!”" class="cls-1" transform="translate(105.934 500.02)"><tspan x="0" y="0">ur good!”</tspan></text>
  </g>
</svg>
