<svg xmlns="http://www.w3.org/2000/svg" xmlns:xlink="http://www.w3.org/1999/xlink" width="323" height="465" viewBox="0 0 323 465">
  <defs>
    <style>
      .cls-1 {
        clip-path: url(#clip-Artboard_2);
      }

      .cls-2 {
        fill: #d9d9d1;
      }

      .cls-3 {
        fill: none;
        stroke: #2b2e34;
      }

      .cls-4, .cls-5, .cls-6, .cls-7 {
        fill: #2b2e34;
      }

      .cls-4, .cls-5 {
        font-size: 24px;
        font-family: KeplerStd-Medium, Kepler Std;
        font-weight: 500;
      }

      .cls-5 {
        letter-spacing: -0.002em;
      }

      .cls-6 {
        font-size: 80px;
        font-family: NeueHaasUnicaW1G-Light, Neue Haas Unica W1G;
        font-weight: 300;
      }

      .cls-7 {
        font-size: 9px;
        font-family: NeueHaasUnicaW1G-Regular, Neue Haas Unica W1G;
      }

      .cls-8 {
        letter-spacing: 0.002em;
      }

      .cls-9 {
        fill: #fff;
      }
    </style>
    <clipPath id="clip-Artboard_2">
      <rect width="323" height="465"/>
    </clipPath>
  </defs>
  <g id="Artboard_2" data-name="Artboard – 2" class="cls-1">
    <rect class="cls-9" width="323" height="465"/>
    <path id="Path_20" data-name="Path 20" class="cls-2" d="M40.58,16h324V-540h-324Z" transform="translate(-40.58 540)"/>
    <g id="Group_18" data-name="Group 18" transform="translate(280.5 385.408)">
      <path id="Path_18" data-name="Path 18" class="cls-3" d="M0,0"/>
    </g>
    <g id="Group" transform="translate(-40.58 475)">
      <text id="_" data-name="“" class="cls-4" transform="translate(59.029 -191.704)"><tspan x="0" y="0">“</tspan></text>
      <text id="Y" class="cls-4" transform="translate(68.99 -191.704)"><tspan x="0" y="0">Y</tspan></text>
      <text id="ou_sh" data-name="ou sh" class="cls-4" transform="translate(80.773 -191.704)"><tspan x="0" y="0">ou sh</tspan></text>
      <text id="o" class="cls-4" transform="translate(133.619 -191.704)"><tspan x="0" y="0">o</tspan></text>
      <text id="u" class="cls-4" transform="translate(145.715 -191.704)"><tspan x="0" y="0">u</tspan></text>
      <text id="ld_take_goo" data-name="ld take goo" class="cls-4" transform="translate(159.131 -191.704)"><tspan x="0" y="0">ld take goo</tspan></text>
      <text id="d_" data-name="d " class="cls-4" transform="translate(267.419 -191.704)"><tspan x="0" y="0">d </tspan></text>
      <text id="car" class="cls-4" transform="translate(64.333 -165.712)"><tspan x="0" y="0">car</tspan></text>
      <text id="e_o" data-name="e o" class="cls-4" transform="translate(95.894 -165.712)"><tspan x="0" y="0">e o</tspan></text>
      <text id="f_yo" data-name="f yo" class="cls-4" transform="translate(124.094 -165.712)"><tspan x="0" y="0">f yo</tspan></text>
      <text id="ur_yo" data-name="ur yo" class="cls-4" transform="translate(159.083 -165.712)"><tspan x="0" y="0">ur yo</tspan></text>
      <text id="unger_" data-name="unger " class="cls-4" transform="translate(209.219 -165.712)"><tspan x="0" y="0">unger </tspan></text>
      <text id="_2" data-name=" " class="cls-4" transform="translate(272.339 -165.712)"><tspan x="0" y="0"> </tspan></text>
      <text id="si" class="cls-5" transform="translate(64.357 -139.72)"><tspan x="0" y="0">si</tspan></text>
      <text id="blings_at_sch" data-name="blings at sch" class="cls-5" transform="translate(80.581 -139.72)"><tspan x="0" y="0">blings at sch</tspan></text>
      <text id="ool" class="cls-5" transform="translate(204.035 -139.72)"><tspan x="0" y="0">ool</tspan></text>
      <text id="_." data-name="." class="cls-5" transform="translate(235.883 -139.72)"><tspan x="0" y="0">.</tspan></text>
      <text id="_3" data-name="”" class="cls-5" transform="translate(237.803 -139.72)"><tspan x="0" y="0">”</tspan></text>
    </g>
    <text id="_75" data-name="’75" class="cls-6" transform="translate(-1 148.619)"><tspan x="0" y="0">’75</tspan></text>
    <text id="You_were_helping_your_mom_weaving_baskets_for_selling_from_the_age_of_7_to_support_the_family._You_were_always_jealous_of_your_friends_who_had_already_been_going_to_school_for_years._Finally_at_the_age_of_12_you_and_your_siblings_went_to_school_togethe" data-name="You were helping your mom weaving 
baskets for selling from the age of 7 to support the family. You were always jealous of your friends who had already been going to school for years. Finally, at the age of 12, you and your 
siblings went to school togethe" class="cls-7" transform="translate(98 165)"><tspan class="cls-8"><tspan x="0" y="10">You were helping your mom weaving </tspan></tspan><tspan x="0" y="22">baskets for selling from the age of 7 to support </tspan><tspan x="0" y="34">the family. You were always jealous of your </tspan><tspan x="0" y="46">friends who had already been going to school </tspan><tspan x="0" y="58">for years. Finally, at the age of 12, you and your </tspan><tspan x="0" y="70">siblings went to school together and started </tspan><tspan x="0" y="82">in first grade.</tspan><tspan x="0" y="94"></tspan><tspan x="0" y="106"></tspan><tspan x="0" y="118"></tspan><tspan x="0" y="130"></tspan><tspan x="0" y="142"></tspan><tspan x="0" y="154"></tspan><tspan x="0" y="166"></tspan><tspan x="0" y="178"></tspan><tspan x="0" y="190">Your mother said.</tspan><tspan x="0" y="202"></tspan><tspan x="0" y="214">After the first day of school, you went to </tspan><tspan x="0" y="226">your mom with new textbooks, asking for </tspan><tspan x="0" y="238">some leftover cloth to make a book cover.</tspan><tspan x="0" y="250"></tspan></text>
  </g>
</svg>
