<svg xmlns="http://www.w3.org/2000/svg" xmlns:xlink="http://www.w3.org/1999/xlink" width="323" height="465" viewBox="0 0 323 465">
  <defs>
    <style>
      .cls-1 {
        clip-path: url(#clip-Artboard_12);
      }

      .cls-2 {
        fill: #d9d9d1;
      }

      .cls-3, .cls-5, .cls-6, .cls-7, .cls-8 {
        fill: #2b2e34;
      }

      .cls-3 {
        font-size: 80px;
        font-family: NeueHaasUnicaW1G-Light, Neue Haas Unica W1G;
        font-weight: 300;
      }

      .cls-4 {
        fill: none;
        stroke: #2b2e34;
      }

      .cls-5 {
        font-size: 10px;
      }

      .cls-5, .cls-7, .cls-8 {
        font-family: KeplerStd-Medium, Kepler Std;
        font-weight: 500;
      }

      .cls-6 {
        font-size: 9px;
        font-family: NeueHaasUnicaW1G-Regular, Neue Haas Unica W1G;
      }

      .cls-7, .cls-8 {
        font-size: 18px;
      }

      .cls-8 {
        letter-spacing: -0.008em;
      }

      .cls-9 {
        fill: #fff;
      }
    </style>
    <clipPath id="clip-Artboard_12">
      <rect width="323" height="465"/>
    </clipPath>
  </defs>
  <g id="Artboard_12" data-name="Artboard – 12" class="cls-1">
    <rect class="cls-9" width="323" height="465"/>
    <path id="Path_19" data-name="Path 19" class="cls-2" d="M41-.724H365V-468H41Z" transform="translate(-42 467.724)"/>
    <text id="_89" data-name="’89" class="cls-3" transform="translate(-1 148.619)"><tspan x="0" y="0">’89</tspan></text>
    <g id="Group_18" data-name="Group 18" transform="translate(280.5 322.329)">
      <path id="Path_18" data-name="Path 18" class="cls-4" d="M0,0"/>
    </g>
    <g id="Group" transform="translate(-39.313 467)">
      <text id="_" data-name=" " class="cls-5" transform="translate(59.313 -202.3)"><tspan x="0" y="0"> </tspan></text>
      <text id="_2" data-name="  " class="cls-5" transform="translate(95.313 -202.3)"><tspan x="0" y="0" xml:space="preserve">  </tspan></text>
    </g>
    <text id="_You_went_to_the_hospital_to_get_sterilized._Have_you_considered_your_husband_getting_sterilization_instead_of_you_No_A_few_days_later_when_the_family_planning_staff_in_your_village_heard_that_you_had_the_operation_she_came_to_you_with_" data-name="
You went to the hospital to get sterilized. 


Have you considered your husband getting sterilization instead of you? “No… 









A few days later, when the family planning staff 
in your village heard that you had the operation, 
she came to you with " class="cls-6" transform="translate(94 165)"><tspan x="0" y="10"></tspan><tspan x="0" y="22">You went to the hospital to get sterilized. </tspan><tspan x="0" y="34"></tspan><tspan x="0" y="46"></tspan><tspan x="0" y="58">Have you considered your husband getting </tspan><tspan x="0" y="70">sterilization instead of you? “No… </tspan><tspan x="0" y="82"></tspan><tspan x="0" y="94"></tspan><tspan x="0" y="106"></tspan><tspan x="0" y="118"></tspan><tspan x="0" y="130"></tspan><tspan x="0" y="142"></tspan><tspan x="0" y="154"></tspan><tspan x="0" y="166"></tspan><tspan x="0" y="178"></tspan><tspan x="0" y="190">A few days later, when the family planning staff </tspan><tspan x="0" y="202">in your village heard that you had the operation, </tspan><tspan x="0" y="214">she came to you with a basket of eggs. “We can </tspan><tspan x="0" y="226">also drive you to the hospital instead of you going </tspan><tspan x="0" y="238">there by yourself.” </tspan></text>
    <g id="Group_37" data-name="Group 37" transform="translate(13.796 400.4)">
      <g id="Group-2" data-name="Group">
        <text id="_P" data-name="“P" class="cls-7" transform="translate(4.204 -138.4)"><tspan x="0" y="0">“P</tspan></text>
        <text id="eo" class="cls-7" transform="translate(20.746 -138.4)"><tspan x="0" y="0">eo</tspan></text>
        <text id="ple_all_said_a_man_af" data-name="ple all said a man af" class="cls-7" transform="translate(38.134 -138.4)"><tspan x="0" y="0">ple all said a man af</tspan></text>
        <text id="t" class="cls-7" transform="translate(185.336 -138.4)"><tspan x="0" y="0">t</tspan></text>
        <text id="er_" data-name="er " class="cls-7" transform="translate(191.148 -138.4)"><tspan x="0" y="0">er </tspan></text>
        <text id="_3" data-name=" " class="cls-7" transform="translate(209.996 -138.4)"><tspan x="0" y="0"> </tspan></text>
        <text id="st" class="cls-7" transform="translate(11.062 -114.406)"><tspan x="0" y="0">st</tspan></text>
        <text id="erili" class="cls-7" transform="translate(24.364 -114.406)"><tspan x="0" y="0">erili</tspan></text>
        <text id="zation_cannot_do_h" data-name="zation cannot do h" class="cls-7" transform="translate(54.404 -114.406)"><tspan x="0" y="0">zation cannot do h</tspan></text>
        <text id="ea" class="cls-7" transform="translate(193.706 -114.406)"><tspan x="0" y="0">ea</tspan></text>
        <text id="v" class="cls-7" transform="translate(210.356 -114.406)"><tspan x="0" y="0">v</tspan></text>
        <text id="y_work._" data-name="y work. " class="cls-7" transform="translate(218.852 -114.406)"><tspan x="0" y="0">y work. </tspan></text>
        <text id="I" class="cls-7" transform="translate(10.918 -90.412)"><tspan x="0" y="0">I</tspan></text>
        <text id="_4" data-name="’" class="cls-7" transform="translate(17.29 -90.412)"><tspan x="0" y="0">’</tspan></text>
        <text id="d_r" data-name="d r" class="cls-7" transform="translate(18.73 -90.412)"><tspan x="0" y="0">d r</tspan></text>
        <text id="ather_be_that_one_w" data-name="ather be that one w" class="cls-7" transform="translate(38.926 -90.412)"><tspan x="0" y="0">ather be that one w</tspan></text>
        <text id="h" class="cls-7" transform="translate(182.906 -90.412)"><tspan x="0" y="0">h</tspan></text>
        <text id="o_goes_" data-name="o goes " class="cls-7" transform="translate(192.554 -90.412)"><tspan x="0" y="0">o goes </tspan></text>
        <text id="_5" data-name=" " class="cls-7" transform="translate(243.024 -90.412)"><tspan x="0" y="0"> </tspan></text>
        <text id="to_the_hospit" data-name="to the hospit" class="cls-8" transform="translate(11.026 -66.418)"><tspan x="0" y="0">to the hospit</tspan></text>
        <text id="al" class="cls-8" transform="translate(104.426 -66.418)"><tspan x="0" y="0">al</tspan></text>
        <text id="_." data-name="." class="cls-8" transform="translate(118.34 -66.418)"><tspan x="0" y="0">.</tspan></text>
        <text id="_6" data-name="”" class="cls-8" transform="translate(119.78 -66.418)"><tspan x="0" y="0">”</tspan></text>
      </g>
    </g>
  </g>
</svg>
