<svg xmlns="http://www.w3.org/2000/svg" width="2675.252" height="1022.668" viewBox="0 0 2675.252 1022.668">
  <defs>
    <style>
      .cls-1, .cls-10, .cls-11, .cls-12, .cls-2, .cls-3, .cls-4, .cls-5, .cls-6, .cls-7, .cls-8, .cls-9 {
        fill: #425c6d;
        font-family: KeplerStd-Medium, Kepler Std;
        font-weight: 500;
      }

      .cls-1, .cls-4, .cls-8 {
        font-size: 176px;
      }

      .cls-1, .cls-12, .cls-2, .cls-3, .cls-5, .cls-6 {
        letter-spacing: 0.01em;
      }

      .cls-2, .cls-7 {
        font-size: 175px;
      }

      .cls-10, .cls-3 {
        font-size: 174px;
      }

      .cls-5 {
        font-size: 169px;
      }

      .cls-11, .cls-6 {
        font-size: 173px;
      }

      .cls-10, .cls-11, .cls-7, .cls-8, .cls-9 {
        letter-spacing: 0.006em;
      }

      .cls-12, .cls-9 {
        font-size: 171px;
      }
    </style>
  </defs>
  <g id="Group_55" data-name="Group 55" transform="translate(-9.543 333.4)">
    <g id="Group" transform="translate(9.544 -333.4)">
      <text id="Thi" class="cls-1" transform="translate(0 123)"><tspan x="0" y="0">Thi</tspan></text>
      <text id="s_proje" data-name="s proje" class="cls-1" transform="translate(239.713 123)"><tspan x="0" y="0">s proje</tspan></text>
      <text id="ct_do" data-name="ct do" class="cls-1" transform="translate(742.775 123)"><tspan x="0" y="0">ct do</tspan></text>
      <text id="cum" class="cls-1" transform="translate(1118.466 123)"><tspan x="0" y="0">cum</tspan></text>
      <text id="ent" class="cls-1" transform="translate(1450.078 123)"><tspan x="0" y="0">ent</tspan></text>
      <text id="s_anot" data-name="s anot" class="cls-2" transform="translate(1695.082 123)"><tspan x="0" y="0">s anot</tspan></text>
      <text id="h" class="cls-3" transform="translate(2149.46 122)"><tspan x="0" y="0">h</tspan></text>
      <text id="er" class="cls-1" transform="translate(2250.002 123)"><tspan x="0" y="0">er</tspan></text>
      <text id="_" data-name=" " class="cls-4" transform="translate(2400.127 123)"><tspan x="0" y="0"> </tspan></text>
      <text id="p" class="cls-3" transform="translate(1 333.667)"><tspan x="0" y="0">p</tspan></text>
      <text id="erc" class="cls-1" transform="translate(99.307 334.667)"><tspan x="0" y="0">erc</tspan></text>
      <text id="e" class="cls-2" transform="translate(333.905 334.667)"><tspan x="0" y="0">e</tspan></text>
      <text id="ption_o" data-name="ption o" class="cls-1" transform="translate(418.513 334.667)"><tspan x="0" y="0">ption o</tspan></text>
      <text id="f_t" data-name="f t" class="cls-2" transform="translate(949.679 334.667)"><tspan x="0" y="0">f t</tspan></text>
      <text id="h-2" data-name="h" class="cls-3" transform="translate(1102.079 333.667)"><tspan x="0" y="0">h</tspan></text>
      <text id="e_on" data-name="e on" class="cls-1" transform="translate(1202.621 334.667)"><tspan x="0" y="0">e on</tspan></text>
      <text id="e_chi" data-name="e–chi" class="cls-1" transform="translate(1518.887 334.667)"><tspan x="0" y="0">e–chi</tspan></text>
      <text id="l" class="cls-1" transform="translate(1930.05 334.667)"><tspan x="0" y="0">l</tspan></text>
      <text id="d_p" data-name="d p" class="cls-1" transform="translate(1979.598 334.667)"><tspan x="0" y="0">d p</tspan></text>
      <text id="ol" class="cls-3" transform="translate(2213.86 333.667)"><tspan x="0" y="0">ol</tspan></text>
      <text id="ic" class="cls-1" transform="translate(2355.307 334.667)"><tspan x="0" y="0">ic</tspan></text>
      <text id="y" class="cls-1" transform="translate(2490.539 334.667)"><tspan x="0" y="0">y</tspan></text>
      <text id="_." data-name="." class="cls-5" transform="translate(2560.447 329.667)"><tspan x="0" y="0">.</tspan></text>
      <text id="_2" data-name=" " class="cls-1" transform="translate(2598.371 334.667)"><tspan x="0" y="0"> </tspan></text>
      <text id="_3" data-name=" " class="cls-4" transform="translate(2638.252 334.667)"><tspan x="0" y="0"> </tspan></text>
      <text id="I" class="cls-1" transform="translate(0 546.334)"><tspan x="0" y="0">I</tspan></text>
      <text id="t_i" data-name="t i" class="cls-6" transform="translate(55.739 544.334)"><tspan x="0" y="0">t i</tspan></text>
      <text id="s_a_r" data-name="s a r" class="cls-1" transform="translate(207.786 546.334)"><tspan x="0" y="0">s a r</tspan></text>
      <text id="e-2" data-name="e" class="cls-2" transform="translate(511.881 546.334)"><tspan x="0" y="0">e</tspan></text>
      <text id="cr" class="cls-1" transform="translate(595.49 546.334)"><tspan x="0" y="0">cr</tspan></text>
      <text id="eation_o" data-name="eation o" class="cls-1" transform="translate(744.539 546.334)"><tspan x="0" y="0">eation o</tspan></text>
      <text id="f_m" data-name="f m" class="cls-1" transform="translate(1349.377 546.334)"><tspan x="0" y="0">f m</tspan></text>
      <text id="emori" class="cls-2" transform="translate(1591.559 546.334)"><tspan x="0" y="0">emori</tspan></text>
      <text id="e-3" data-name="e" class="cls-2" transform="translate(2037.118 546.334)"><tspan x="0" y="0">e</tspan></text>
      <text id="s_" data-name="s—" class="cls-1" transform="translate(2120.55 546.334)"><tspan x="0" y="0">s—</tspan></text>
      <text id="_4" data-name=" " class="cls-4" transform="translate(2355.324 546.334)"><tspan x="0" y="0"> </tspan></text>
      <text id="a_r" data-name="a r" class="cls-7" transform="translate(0 758.001)"><tspan x="0" y="0">a r</tspan></text>
      <text id="e-4" data-name="e" class="cls-7" transform="translate(192.088 758.001)"><tspan x="0" y="0">e</tspan></text>
      <text id="c" class="cls-8" transform="translate(275.696 758.001)"><tspan x="0" y="0">c</tspan></text>
      <text id="on" class="cls-8" transform="translate(359.481 758.001)"><tspan x="0" y="0">on</tspan></text>
      <text id="s" class="cls-9" transform="translate(553.685 755.001)"><tspan x="0" y="0">s</tspan></text>
      <text id="tr" class="cls-8" transform="translate(624.947 758.001)"><tspan x="0" y="0">tr</tspan></text>
      <text id="u" class="cls-10" transform="translate(757.768 757.001)"><tspan x="0" y="0">u</tspan></text>
      <text id="c-2" data-name="c" class="cls-8" transform="translate(856.898 758.001)"><tspan x="0" y="0">c</tspan></text>
      <text id="tion_pro" data-name="tion pro" class="cls-8" transform="translate(939.448 758.001)"><tspan x="0" y="0">tion pro</tspan></text>
      <text id="du" class="cls-8" transform="translate(1542.682 758.001)"><tspan x="0" y="0">du</tspan></text>
      <text id="c-3" data-name="c" class="cls-8" transform="translate(1738.809 758.001)"><tspan x="0" y="0">c</tspan></text>
      <text id="t_thro" data-name="t thro" class="cls-7" transform="translate(1821.359 758.001)"><tspan x="0" y="0">t thro</tspan></text>
      <text id="u-2" data-name="u" class="cls-10" transform="translate(2243.105 757.001)"><tspan x="0" y="0">u</tspan></text>
      <text id="g" class="cls-11" transform="translate(2342.765 756.001)"><tspan x="0" y="0">g</tspan></text>
      <text id="h-3" data-name="h" class="cls-10" transform="translate(2430.607 757.001)"><tspan x="0" y="0">h</tspan></text>
      <text id="_5" data-name=" " class="cls-8" transform="translate(2527.268 758.001)"><tspan x="0" y="0"> </tspan></text>
      <text id="_6" data-name=" " class="cls-4" transform="translate(2569.284 758.001)"><tspan x="0" y="0"> </tspan></text>
      <text id="t" class="cls-12" transform="translate(0 966.668)"><tspan x="0" y="0">t</tspan></text>
      <text id="h-4" data-name="h" class="cls-3" transform="translate(61.207 968.668)"><tspan x="0" y="0">h</tspan></text>
      <text id="e_e" data-name="e e" class="cls-1" transform="translate(161.749 969.668)"><tspan x="0" y="0">e e</tspan></text>
      <text id="y-2" data-name="y" class="cls-1" transform="translate(367.007 969.668)"><tspan x="0" y="0">y</tspan></text>
      <text id="e-5" data-name="e" class="cls-2" transform="translate(446.088 969.668)"><tspan x="0" y="0">e</tspan></text>
      <text id="s_o" data-name="s o" class="cls-2" transform="translate(529.52 969.668)"><tspan x="0" y="0">s o</tspan></text>
      <text id="f_pr" data-name="f pr" class="cls-1" transform="translate(732.72 969.668)"><tspan x="0" y="0">f pr</tspan></text>
      <text id="e-6" data-name="e" class="cls-2" transform="translate(987.779 969.668)"><tspan x="0" y="0">e</tspan></text>
      <text id="sent." class="cls-1" transform="translate(1071.211 969.668)"><tspan x="0" y="0">sent.</tspan></text>
      <text id="_7" data-name=" " class="cls-1" transform="translate(1426.459 969.668)"><tspan x="0" y="0"> </tspan></text>
    </g>
  </g>
</svg>
