<svg xmlns="http://www.w3.org/2000/svg" xmlns:xlink="http://www.w3.org/1999/xlink" width="1279" height="698.608" viewBox="0 0 1279 698.608">
  <defs>
    <style>
      .cls-1, .cls-2 {
        fill: none;
      }

      .cls-2 {
        stroke: #2b2e34;
      }

      .cls-3 {
        clip-path: url(#clip-path);
      }
    </style>
    <clipPath id="clip-path">
      <path id="Path_38" data-name="Path 38" class="cls-1" d="M0,0H1279V-698.608H0Z"/>
    </clipPath>
  </defs>
  <g id="Group_45" data-name="Group 45" transform="translate(0 698.608)">
    <path id="Path_26" data-name="Path 26" class="cls-2" d="M129.5-36.5h1019v-627H129.5Z"/>
    <g id="Group_44" data-name="Group 44" class="cls-3">
      <path id="Path_27" data-name="Path 27" class="cls-2" d="M.5-.5h1278V-698.108H.5Z"/>
      <path id="Path_28" data-name="Path 28" class="cls-2" d="M264.929-.5h11V-698.108h-11Z"/>
      <path id="Path_29" data-name="Path 29" class="cls-2" d="M411.929-.5h11V-698.108h-11Z"/>
      <path id="Path_30" data-name="Path 30" class="cls-2" d="M558.929-.5h11V-698.108h-11Z"/>
      <path id="Path_31" data-name="Path 31" class="cls-2" d="M706.929-.5h11V-698.108h-11Z"/>
      <path id="Path_32" data-name="Path 32" class="cls-2" d="M854.929-.5h11V-698.108h-11Z"/>
      <path id="Path_33" data-name="Path 33" class="cls-2" d="M1001.929-.5h11V-698.108h-11Z"/>
      <path id="Path_34" data-name="Path 34" class="cls-2" d="M.5-536.5h1278v-11H.5Z"/>
      <path id="Path_35" data-name="Path 35" class="cls-2" d="M.5-408.5h1278v-11H.5Z"/>
      <path id="Path_36" data-name="Path 36" class="cls-2" d="M.5-279.5h1278v-11H.5Z"/>
      <path id="Path_37" data-name="Path 37" class="cls-2" d="M.5-152.5h1278v-11H.5Z"/>
    </g>
  </g>
</svg>
