<svg xmlns="http://www.w3.org/2000/svg" viewBox="0 0 176.8 185.4"><defs><style>.cls-1,.cls-4,.cls-6,.cls-7{fill:none;}.cls-1,.cls-10,.cls-11,.cls-2,.cls-3,.cls-5,.cls-6,.cls-7,.cls-9{stroke:#414042;}.cls-1,.cls-10,.cls-11,.cls-2,.cls-3,.cls-4,.cls-5,.cls-6,.cls-7,.cls-9{stroke-miterlimit:10;}.cls-2{fill:#fff;}.cls-3{fill:#6d6e71;}.cls-4{stroke:#231f20;}.cls-5{fill:#424142;}.cls-10,.cls-11,.cls-6{stroke-width:2px;}.cls-7{stroke-width:3px;}.cls-11,.cls-8,.cls-9{fill:#414042;}.cls-10{fill:#231f20;}</style></defs><g id="Layer_2" data-name="Layer 2"><g id="Layer_2-2" data-name="Layer 2"><rect class="cls-1" x="9.42" y="32.54" width="164.07" height="59.44"/><rect class="cls-1" x="54.6" y="43.11" width="85.25" height="40.44"/><rect class="cls-1" x="54.6" y="43.11" width="85.25" height="29.28"/><polygon class="cls-2" points="74.11 47.63 69.84 47.63 69.84 34.6 74.11 35.29 74.11 47.63"/><rect class="cls-2" x="72.65" y="11.02" width="1.46" height="7.86"/><rect class="cls-2" x="60.71" y="22.62" width="3.42" height="2.76" rx="1.38"/><path class="cls-3" d="M114.87,38.05C118.78,42,111,49.58,111,53.44c0,5.27,5.76,9.54,12.88,9.54s10.88-4.27,10.88-9.54c0-6.48-2.08-9.06-1.64-13.72"/><rect class="cls-1" x="0.5" y="32.54" width="8.92" height="83.34"/><rect class="cls-1" x="9.42" y="91.99" width="164.07" height="3.24"/><rect class="cls-1" x="38.77" y="95.23" width="107.78" height="17.67"/><rect class="cls-1" x="36.49" y="95.23" width="2.28" height="72.05"/><rect class="cls-4" x="146.49" y="95.23" width="2.28" height="72.05"/><path class="cls-3" d="M72.57,35.25a9.65,9.65,0,0,0,1.08,0A11,11,0,0,0,76.11,35C83.52,34,87,30,92.52,30c6.3,0,21.15,11.47,32.15,11.47v-.06c.36,0,.72.06,1.09.06a16.76,16.76,0,1,0,0-33.52c-.51,0-1,0-1.56.08L124,8C113.19,9.1,99.57,19.27,93.61,19.27c-6.3,0-10-5.25-20-5.25a10.64,10.64,0,0,0-1.09,21.23Z"/><rect class="cls-2" x="122.01" y="0.5" width="2.1" height="11.78"/><path class="cls-5" d="M37.45,167.28H38a4.18,4.18,0,0,1,4.18,4.18V184.9a0,0,0,0,1,0,0H33.27a0,0,0,0,1,0,0V171.45A4.18,4.18,0,0,1,37.45,167.28Z"/><path class="cls-5" d="M152.15,184.9h-8.88V171.45a4.18,4.18,0,0,1,4.18-4.17H148a4.17,4.17,0,0,1,4.17,4.17Z"/><rect class="cls-6" x="51.91" y="142.38" width="79.78" height="31.25"/><polyline class="cls-1" points="47.59 112.9 47.59 157.22 51.91 157.22"/><polyline class="cls-1" points="136.59 112.9 136.59 157.22 131.91 157.22"/><ellipse class="cls-7" cx="155.53" cy="130.56" rx="19.77" ry="33.22"/><rect class="cls-8" x="155.03" y="97.34" width="1" height="66.44"/><line class="cls-1" x1="175.3" y1="130.56" x2="135.75" y2="130.56"/><line class="cls-1" x1="169.51" y1="107.07" x2="141.54" y2="154.05"/><line class="cls-1" x1="141.54" y1="107.07" x2="169.51" y2="154.05"/><ellipse class="cls-9" cx="155.53" cy="130.56" rx="1.98" ry="3.32"/><line class="cls-10" x1="78.06" y1="142.38" x2="78.06" y2="173.62"/><line class="cls-10" x1="106.06" y1="142.38" x2="106.06" y2="173.62"/><line class="cls-1" x1="51.91" y1="145.78" x2="131.69" y2="145.78"/><line class="cls-1" x1="51.91" y1="148.78" x2="131.69" y2="148.78"/><line class="cls-1" x1="51.91" y1="151.78" x2="131.69" y2="151.78"/><line class="cls-1" x1="51.91" y1="154.78" x2="131.69" y2="154.78"/><line class="cls-1" x1="51.91" y1="157.78" x2="131.69" y2="157.78"/><line class="cls-1" x1="51.91" y1="160.78" x2="131.69" y2="160.78"/><line class="cls-1" x1="51.91" y1="163.78" x2="131.69" y2="163.78"/><line class="cls-1" x1="51.91" y1="166.78" x2="131.69" y2="166.78"/><line class="cls-1" x1="51.91" y1="169.78" x2="131.69" y2="169.78"/><ellipse class="cls-11" cx="50.83" cy="157.58" rx="1.08" ry="3.2"/><ellipse class="cls-11" cx="132.77" cy="157.78" rx="1.08" ry="3.2"/><ellipse class="cls-7" cx="139.54" cy="23.46" rx="12.63" ry="16.76"/><line class="cls-1" x1="139.54" y1="6.7" x2="139.54" y2="40.21"/><line class="cls-1" x1="152.18" y1="23.46" x2="126.91" y2="23.46"/><line class="cls-1" x1="148.48" y1="11.6" x2="130.61" y2="35.31"/><line class="cls-1" x1="148.48" y1="35.31" x2="130.61" y2="11.6"/><ellipse class="cls-2" cx="139.92" cy="23.25" rx="3.39" ry="4.5"/><line class="cls-1" x1="71.98" y1="47.63" x2="71.98" y2="56.99"/><rect class="cls-1" x="9.42" y="95.23" width="20.66" height="17.67"/></g></g></svg>