<svg xmlns="http://www.w3.org/2000/svg" viewBox="0 0 71.25 76.56"><defs><style>.cls-1{fill:#414042;}</style></defs><g id="Layer_2" data-name="Layer 2"><g id="Layer_6" data-name="Layer 6"><path class="cls-1" d="M71.25,61c0,8.59-7.54,15.55-7.54,15.55s-7.55-7-7.55-15.55,7.55-15.55,7.55-15.55S71.25,52.42,71.25,61Z"/><polygon class="cls-1" points="69.12 3.93 64.38 7.49 65.18 13.35 61.63 8.62 55.77 9.42 60.5 5.87 59.7 0 63.25 4.74 69.12 3.93"/></g><g id="Layer_3" data-name="Layer 3"><path class="cls-1" d="M29,45.46c0,1.46-2.18,2.56-2.61,3.87s.66,3.53-.16,4.67-3.24.76-4.39,1.59S20.37,58.83,19,59.27,16,58,14.52,58,11.35,59.7,10,59.27,8.3,56.42,7.16,55.59,3.61,55.14,2.77,54s.28-3.3-.16-4.67S0,46.92,0,45.46s2.18-2.55,2.61-3.87-.66-3.53.16-4.66,3.24-.76,4.39-1.6S8.67,32.09,10,31.65s3,1.29,4.49,1.29,3.17-1.72,4.49-1.29,1.73,2.85,2.87,3.68,3.55.45,4.39,1.6-.28,3.3.16,4.66S29,44,29,45.46Z"/></g></g></svg>