<svg xmlns="http://www.w3.org/2000/svg" viewBox="0 0 179.67 106.35"><defs><style>.cls-1{fill:#414042;}</style></defs><g id="Layer_2" data-name="Layer 2"><g id="Layer_6" data-name="Layer 6"><path class="cls-1" d="M145.12,0H34.55A34.55,34.55,0,0,0,0,34.55V71.8a34.55,34.55,0,0,0,17.49,30.05V28.75h4.84v75.37A33.64,33.64,0,0,0,29.49,106V28.75h4.84v77.6h7.16V28.75h4.84v77.6h7.16V28.75h4.84v77.6h7.16V28.75h4.84v77.6h7.16V28.75h4.84v77.6h7.16V28.75h4.84v77.6h7.16V28.75h4.84v77.6h7.16V28.75h4.84v77.6h7.16V28.75h4.84v77.6h7.16V28.75h4.84v77.6h2.79a35,35,0,0,0,4.37-.28V28.75h4.84V105.1a33.8,33.8,0,0,0,7.16-2.87V28.75h4.84V99.07A34.5,34.5,0,0,0,179.67,71.8V34.55A34.55,34.55,0,0,0,145.12,0Z"/></g></g></svg>