<svg xmlns="http://www.w3.org/2000/svg" xmlns:xlink="http://www.w3.org/1999/xlink" viewBox="0 0 399.96 303.92"><defs><style>.cls-1{font-size:12px;font-family:NeueHaasUnicaW1G-Regular, Neue Haas Unica W1G;}.cls-2{letter-spacing:0em;}.cls-3{letter-spacing:-0.02em;}.cls-4{letter-spacing:-0.02em;}.cls-5{letter-spacing:-0.01em;}.cls-6{letter-spacing:-0.02em;}.cls-7{letter-spacing:-0.03em;}.cls-8{fill:#fff;}</style></defs><g id="Layer_2" data-name="Layer 2"><g id="Layer_2-2" data-name="Layer 2"><rect x="140.24" y="10" width="26.54" height="131.31"/><rect x="188.24" y="40" width="26.54" height="131.31"/><rect x="237.24" y="20" width="26.54" height="131.31"/><rect x="286.24" width="26.54" height="131.31"/><path d="M56.78,21l-.72-2.63c-.23-.89-.46-1.76-.67-2.64h0c-.22.88-.44,1.75-.67,2.64L54,21H52.46l-1.62-6.09h1.07l.64,2.54c.23.9.46,1.84.68,2.74h0c.2-.88.43-1.79.67-2.68l.7-2.6h1.51l.69,2.6c.23.89.46,1.8.68,2.68h0c.22-.9.44-1.84.67-2.74l.65-2.54h1.07L58.29,21Z"/><path d="M65.45,17.07V19.4A6.75,6.75,0,0,0,65.6,21h-1a4.38,4.38,0,0,1-.09-.88h0a2.38,2.38,0,0,1-2.11,1,1.84,1.84,0,0,1-2.06-1.79c0-1,.56-1.64,2.31-1.92.54-.08,1.28-.17,1.76-.2V17a1.26,1.26,0,0,0-1.38-1.43,1.24,1.24,0,0,0-1.39,1.21h-1a2.17,2.17,0,0,1,2.44-2A2.14,2.14,0,0,1,65.45,17.07Zm-1,.92c-.46,0-1.12.11-1.59.19-1.05.16-1.41.46-1.41,1.06s.46,1,1.25,1a1.69,1.69,0,0,0,1.75-1.92Z"/><path d="M71.56,16.78h-1a1.19,1.19,0,0,0-1.36-1.26c-.73,0-1.18.33-1.18.86s.44.75,1.46,1,2.3.52,2.3,1.94c0,1.09-.93,1.82-2.41,1.82s-2.54-.77-2.55-2.19h1.06c0,.87.56,1.35,1.5,1.35s1.32-.36,1.32-.91c0-.71-.5-.84-1.68-1.13-1-.25-2.06-.45-2.06-1.78,0-1,.92-1.77,2.26-1.77S71.56,15.43,71.56,16.78Z"/><path d="M80.51,17.07V19.4A6.75,6.75,0,0,0,80.66,21h-1a4.38,4.38,0,0,1-.09-.88h0a2.38,2.38,0,0,1-2.11,1,1.84,1.84,0,0,1-2.06-1.79c0-1,.56-1.64,2.31-1.92.54-.08,1.28-.17,1.76-.2V17a1.26,1.26,0,0,0-1.38-1.43,1.24,1.24,0,0,0-1.39,1.21h-1a2.17,2.17,0,0,1,2.44-2A2.14,2.14,0,0,1,80.51,17.07Zm-1,.92c-.47,0-1.12.11-1.59.19-1.05.16-1.41.46-1.41,1.06s.46,1,1.25,1a1.69,1.69,0,0,0,1.75-1.92Z"/><path d="M83.39,15.71a2.1,2.1,0,0,1,1.86-1c1.55,0,2.55,1.25,2.55,3.2s-1,3.2-2.56,3.2a2.07,2.07,0,0,1-1.86-1h0V21h-1V12.42h1.06v3.29Zm-.07,2.2c0,1.45.65,2.35,1.66,2.35s1.71-.93,1.71-2.35S86,15.57,85,15.57,83.32,16.47,83.32,17.91Z"/><path d="M93.8,17.07V19.4A7.48,7.48,0,0,0,93.94,21H93a4.37,4.37,0,0,1-.08-.88h0a2.36,2.36,0,0,1-2.11,1,1.84,1.84,0,0,1-2.06-1.79c0-1,.56-1.64,2.31-1.92.54-.08,1.29-.17,1.77-.2V17a1.26,1.26,0,0,0-1.38-1.43A1.23,1.23,0,0,0,90,16.73H89a2.17,2.17,0,0,1,2.45-2A2.14,2.14,0,0,1,93.8,17.07Zm-1,.92c-.47,0-1.13.11-1.6.19-1,.16-1.4.46-1.4,1.06s.45,1,1.25,1a1.69,1.69,0,0,0,1.75-1.92Z"/><path d="M100.7,17.25V21H99.64V17.33c0-1.27-.53-1.73-1.4-1.73s-1.59.65-1.59,1.87V21H95.6V14.87h1v.8h0a2.16,2.16,0,0,1,1.85-.93C99.88,14.74,100.7,15.58,100.7,17.25Z"/><path d="M106.52,21v-.88h0a2.06,2.06,0,0,1-1.87,1c-1.56,0-2.55-1.26-2.55-3.2s1-3.2,2.54-3.2a2.08,2.08,0,0,1,1.86,1h0V12.42h1.06V21Zm-3.35-3.05c0,1.42.67,2.35,1.72,2.35s1.66-.9,1.66-2.35-.66-2.34-1.66-2.34S103.17,16.48,103.17,17.91Z"/><path d="M114.77,17.92c0,2-1.11,3.21-2.9,3.21S109,19.91,109,17.92s1.1-3.22,2.89-3.22S114.77,15.93,114.77,17.92Zm-4.69,0c0,1.45.69,2.35,1.79,2.35s1.8-.9,1.8-2.35-.69-2.35-1.8-2.35S110.08,16.47,110.08,17.92Z"/><path d="M121.3,17.25V21h-1V17.33c0-1.27-.53-1.73-1.41-1.73s-1.58.65-1.58,1.87V21H116.2V14.87h1v.8h0a2.16,2.16,0,0,1,1.84-.93C120.48,14.74,121.3,15.58,121.3,17.25Z"/><path d="M127.14,19.14h1.08a2.52,2.52,0,0,1-2.68,2c-1.8,0-2.87-1.31-2.87-3.3a2.83,2.83,0,0,1,2.83-3.13,2.61,2.61,0,0,1,2.66,2.13,5.32,5.32,0,0,1,.12,1.3h-4.55c0,1.5.81,2.19,1.81,2.19A1.51,1.51,0,0,0,127.14,19.14Zm-3.4-1.81h3.5a1.75,1.75,0,1,0-3.5,0Z"/><path d="M133.84,21v-.88h0a2.08,2.08,0,0,1-1.87,1c-1.56,0-2.56-1.26-2.56-3.2s1-3.2,2.54-3.2a2.07,2.07,0,0,1,1.86,1h0V12.42h1.05V21Zm-3.35-3.05c0,1.42.68,2.35,1.72,2.35s1.67-.9,1.67-2.35-.66-2.34-1.67-2.34S130.49,16.48,130.49,17.91Z"/><path d="M53.86,28V26.83h1V28Zm0,7.35V29.27h1v6.09Z"/><path d="M61.88,31.65v3.71H60.83V31.73c0-1.27-.53-1.73-1.41-1.73s-1.58.65-1.58,1.87v3.49H56.78V29.27h1v.81h0a2.14,2.14,0,0,1,1.85-.94C61.07,29.14,61.88,30,61.88,31.65Z"/><path d="M71,31.47V33.8a7.48,7.48,0,0,0,.14,1.56h-1a4.37,4.37,0,0,1-.08-.88h0a2.38,2.38,0,0,1-2.11,1,1.84,1.84,0,0,1-2.06-1.79c0-1,.56-1.64,2.31-1.92.54-.08,1.29-.17,1.77-.2v-.24a1.26,1.26,0,0,0-1.38-1.43,1.23,1.23,0,0,0-1.39,1.21H66.18a2.17,2.17,0,0,1,2.45-2A2.14,2.14,0,0,1,71,31.47Zm-1,.92c-.47,0-1.13.11-1.6.19-1,.16-1.4.46-1.4,1.06s.45,1,1.25,1A1.7,1.7,0,0,0,70,32.76Z"/><path d="M76.67,30.11a2.06,2.06,0,0,1,1.86-1c1.54,0,2.54,1.24,2.54,3.19s-1,3.2-2.56,3.2a2,2,0,0,1-1.85-1h0v.88h-1V26.83h1v3.28Zm-.07,2.2c0,1.45.64,2.35,1.65,2.35S80,33.73,80,32.31,79.29,30,78.25,30,76.6,30.87,76.6,32.31Z"/><path d="M82.44,33V29.27H83.5v3.64c0,1.27.52,1.72,1.4,1.72s1.58-.64,1.58-1.87V29.27h1.06v6.09h-1v-.8h0a2.18,2.18,0,0,1-1.85.94C83.24,35.5,82.44,34.66,82.44,33Z"/><path d="M93.72,31.18h-1a1.19,1.19,0,0,0-1.36-1.26c-.73,0-1.19.33-1.19.86s.45.75,1.47,1,2.3.52,2.3,1.94c0,1.09-.94,1.82-2.41,1.82s-2.54-.77-2.56-2.19H90c0,.87.55,1.35,1.5,1.35.79,0,1.32-.36,1.32-.91,0-.71-.5-.84-1.68-1.13-1-.25-2.06-.45-2.06-1.78,0-1.05.92-1.77,2.25-1.77C92.83,29.1,93.72,29.83,93.72,31.18Z"/><path d="M102.41,31.18h-1A1.18,1.18,0,0,0,100,29.92c-.73,0-1.19.33-1.19.86s.45.75,1.46,1,2.31.52,2.31,1.94c0,1.09-.94,1.82-2.41,1.82s-2.55-.77-2.56-2.19H98.7c0,.87.55,1.35,1.5,1.35.79,0,1.32-.36,1.32-.91,0-.71-.51-.84-1.68-1.13s-2.06-.45-2.06-1.78c0-1.05.92-1.77,2.25-1.77C101.52,29.1,102.41,29.83,102.41,31.18Z"/><path d="M106.61,34.48v.86a2.9,2.9,0,0,1-.68.07c-1.16,0-1.65-.49-1.65-1.75V30.11h-1.06v-.84h1.06V27.8h1.06v1.47h1.21v.84h-1.21v3.44c0,.7.22,1,.83,1A1.8,1.8,0,0,0,106.61,34.48Z"/><path d="M112.44,31.47V33.8a7.48,7.48,0,0,0,.14,1.56h-1a4.37,4.37,0,0,1-.08-.88h0a2.36,2.36,0,0,1-2.11,1,1.84,1.84,0,0,1-2.06-1.79c0-1,.56-1.64,2.31-1.92.54-.08,1.29-.17,1.77-.2v-.24A1.26,1.26,0,0,0,110,29.92a1.23,1.23,0,0,0-1.39,1.21h-1.06a2.17,2.17,0,0,1,2.45-2A2.14,2.14,0,0,1,112.44,31.47Zm-1,.92c-.47,0-1.13.11-1.6.19-1,.16-1.4.46-1.4,1.06s.46,1,1.25,1a1.69,1.69,0,0,0,1.75-1.92Z"/><path d="M116.7,34.48v.86a2.87,2.87,0,0,1-.67.07c-1.17,0-1.66-.49-1.66-1.75V30.11h-1.05v-.84h1.05V27.8h1.06v1.47h1.21v.84h-1.21v3.44c0,.7.22,1,.84,1A1.78,1.78,0,0,0,116.7,34.48Z"/><path d="M118,28V26.83H119V28Zm0,7.35V29.27H119v6.09Z"/><path d="M126.24,32.32c0,2-1.12,3.21-2.91,3.21s-2.89-1.22-2.89-3.21,1.11-3.22,2.89-3.22S126.24,30.33,126.24,32.32Zm-4.69,0c0,1.45.68,2.35,1.78,2.35s1.8-.9,1.8-2.35-.68-2.35-1.8-2.35S121.55,30.87,121.55,32.32Z"/><path d="M132.76,31.65v3.71h-1V31.73c0-1.27-.53-1.73-1.4-1.73s-1.59.65-1.59,1.87v3.49h-1V29.27h1v.81h0a2.14,2.14,0,0,1,1.85-.94C132,29.14,132.76,30,132.76,31.65Z"/><text class="cls-1" transform="translate(17.94 84.2)">and <tspan class="cls-2" x="22.96" y="0">w</tspan><tspan x="32.16" y="0">e</tspan><tspan class="cls-3" x="38.76" y="0">r</tspan><tspan x="42.88" y="0">e b</tspan><tspan class="cls-4" x="59.15" y="0">r</tspan><tspan x="63.26" y="0">oug</tspan><tspan class="cls-5" x="83.83" y="0">h</tspan><tspan x="90.62" y="0">t </tspan><tspan class="cls-6" x="97.22" y="0">t</tspan><tspan x="100.87" y="0">o </tspan><tspan x="9.3" y="14.4">Child</tspan><tspan class="cls-3" x="37.25" y="14.4">r</tspan><tspan x="41.36" y="14.4">en </tspan><tspan class="cls-7" x="57.63" y="14.4">W</tspan><tspan x="68.27" y="14.4">el</tspan><tspan class="cls-6" x="77.79" y="14.4">f</tspan><tspan x="81.26" y="14.4">a</tspan><tspan class="cls-3" x="87.63" y="14.4">r</tspan><tspan x="91.75" y="14.4">e</tspan></text><text class="cls-1" transform="translate(193.38 291.6) rotate(-81.39)">A</text><text class="cls-1" transform="translate(194.55 284.11) rotate(-78.96)">t</text><text class="cls-1" transform="translate(195.28 280.38) rotate(-77.59)"> </text><text class="cls-1" transform="translate(195.86 277.74) rotate(-76.29)">t</text><text class="cls-1" transform="translate(196.73 274.05) rotate(-74.26)">h</text><text class="cls-1" transform="translate(198.59 267.47) rotate(-71.9)">e</text><text class="cls-1" transform="translate(200.64 261.28) rotate(-70.37)"> </text><text class="cls-1" transform="translate(201.53 258.7) rotate(-68.93)">a</text><text class="cls-1" transform="translate(203.79 252.83) rotate(-66.96)">g</text><text class="cls-1" transform="matrix(0.42, -0.91, 0.91, 0.42, 206.46, 246.56)">e</text><text class="cls-1" transform="matrix(0.44, -0.9, 0.9, 0.44, 209.24, 240.62)"> </text><text class="cls-1" transform="translate(210.42 238.17) rotate(-62.57)">o</text><text class="cls-1" transform="translate(213.54 232.2) rotate(-61.26)">f</text><text class="cls-1" transform="translate(215.29 229.02) rotate(-60.48)"> </text><text class="cls-1" transform="matrix(0.51, -0.86, 0.86, 0.51, 216.6, 226.66)">2</text><text class="cls-1" transform="translate(220.04 220.89) rotate(-58.23)">,</text><text class="cls-1" transform="translate(221.46 218.61) rotate(-57.61)"> </text><image width="750" height="465" transform="translate(93.28 56.49) scale(0.31)" xlink:href="../5caaa19bf690f369.png"/><path class="cls-8" d="M169.77,303a140.75,140.75,0,0,1,6.89-39.55,215.31,215.31,0,0,1,15.7-36.76,285.38,285.38,0,0,1,47.17-64.07c18.55-19,39.7-35.61,63.25-47.92a184.16,184.16,0,0,1,37-14.6A147.53,147.53,0,0,1,379,94.88a147.43,147.43,0,0,0-39.17,5.74,183.25,183.25,0,0,0-36.61,15C280,128.17,259.15,145,241,164.05A282.49,282.49,0,0,0,195,228.12a212.33,212.33,0,0,0-15,36.4A137.09,137.09,0,0,0,173.77,303Z"/><rect x="119.24" y="90" width="26.54" height="131.31"/></g></g></svg>