<svg xmlns="http://www.w3.org/2000/svg" viewBox="0 0 248.87 186.46"><defs><style>.cls-1{fill:#14683d;}.cls-2,.cls-3{fill:none;stroke:#fff;}.cls-2{stroke-miterlimit:10;stroke-width:0.5px;}.cls-3{stroke-linecap:round;stroke-linejoin:round;}</style></defs><g id="Layer_2" data-name="Layer 2"><g id="Layer_3" data-name="Layer 3"><path class="cls-1" d="M248.62,93.23c0,10.78-52.39,4.74-59.15,13.73-6,8,20.47,54.81,10.38,60.51-8.84,5-38.51-40.83-49.59-38.21-10,2.38-14.59,57-25.83,57s-15.78-54.57-25.82-57c-11.08-2.62-40.76,43.2-49.59,38.21C38.92,161.77,65.42,115,59.4,107,52.64,98,.25,104,.25,93.23S52.64,88.49,59.4,79.5c6-8-20.47-54.81-10.38-60.51,8.84-5,38.51,40.83,49.59,38.2C108.65,54.82,113.2.25,124.43.25s15.79,54.57,25.83,56.94C161.34,59.82,191,14,199.85,19c10.1,5.7-16.4,52.5-10.38,60.51C196.23,88.49,248.62,82.44,248.62,93.23Z"/><path class="cls-2" d="M248.62,93.23c0,10.78-52.39,4.74-59.15,13.73-6,8,20.47,54.81,10.38,60.51-8.84,5-38.51-40.83-49.59-38.21-10,2.38-14.59,57-25.83,57s-15.78-54.57-25.82-57c-11.08-2.62-40.76,43.2-49.59,38.21C38.92,161.77,65.42,115,59.4,107,52.64,98,.25,104,.25,93.23S52.64,88.49,59.4,79.5c6-8-20.47-54.81-10.38-60.51,8.84-5,38.51,40.83,49.59,38.2C108.65,54.82,113.2.25,124.43.25s15.79,54.57,25.83,56.94C161.34,59.82,191,14,199.85,19c10.1,5.7-16.4,52.5-10.38,60.51C196.23,88.49,248.62,82.44,248.62,93.23Z"/><path class="cls-3" d="M105.35,127.34a4.63,4.63,0,0,0,3.49,4.3,4.21,4.21,0,0,0,4.48-2.93,1.09,1.09,0,0,1,.17-.36.85.85,0,0,1,.62-.21A4.4,4.4,0,0,0,117,126.3a11.5,11.5,0,0,0,1.65-3.37c.49-1.46.81-3.33-.2-4.41"/><path class="cls-3" d="M133.7,65.28a5.83,5.83,0,0,1,5.59,1,5.42,5.42,0,0,1,1.45,5.88,9.15,9.15,0,0,1,10,2.67"/><path class="cls-3" d="M77.44,115.14c-.58,1.37-2.24,1.47-3.58,1.37a9.83,9.83,0,0,1-3.13-.56,3.94,3.94,0,0,1-2.29-2.32A4.6,4.6,0,0,1,69,109.9a10.41,10.41,0,0,1,2.57-2.64A7.55,7.55,0,0,1,74,105.84a2.64,2.64,0,0,1,2.61.61c.73-2.8,3.38-4.84,6-4.47a9.75,9.75,0,0,1,3.54,1.54c1.55.94,3.3,2.32,3.19,4.29"/><path class="cls-3" d="M120.45,99.27c1.16-2.51,3.93-3.46,6.43-3.67a8.88,8.88,0,0,1,3.25.22c2.83.84,4.92,4.12,4.7,7.4"/><path class="cls-3" d="M80.38,89.48a9.29,9.29,0,0,1,1.11-3.69,6.48,6.48,0,0,1,4.43-2.42,8.71,8.71,0,0,1,5.94.46,4.9,4.9,0,0,1,2.35,5.58"/><path class="cls-3" d="M111,73.44a11.77,11.77,0,0,1,4.73,1.9,5.54,5.54,0,0,1,2.13,2.36,8,8,0,0,1,.42,3.13,10.18,10.18,0,0,1-.33,3,6,6,0,0,1-.66,1.37,7.64,7.64,0,0,1-4,3.21"/><path class="cls-3" d="M150.56,107.2c-1.62-.74-3.2.22-4.54,1.59-1.68,1.7-1.8,5.14-.66,6.44"/></g></g></svg>