<svg xmlns="http://www.w3.org/2000/svg" viewBox="0 0 46.92 67.94"><defs><style>.cls-1{fill:#fff;}</style></defs><g id="Layer_2" data-name="Layer 2"><g id="Layer_3" data-name="Layer 3"><path d="M27.3,43.32c.54,1.07,1.06,2.07,1.57,3.08l7.68,15.07c.11.22.21.44.31.66a.94.94,0,0,1-.48,1.4c-1.75.84-3.52,1.67-5.3,2.45-1.5.65-3,1.24-4.56,1.83-.74.28-1.12.12-1.48-.61q-3.45-6.84-6.86-13.7c-.92-1.83-1.82-3.68-2.73-5.52a2.1,2.1,0,0,0-.28-.41,2.39,2.39,0,0,1-.26.41c-3.4,3.57-6.8,7.15-10.21,10.7-.88.93-1.83,1.8-2.73,2.71a.84.84,0,0,1-1,.16c-.41-.19-.78-.44-.8-.95,0-.83-.07-1.66-.07-2.49Q0,33.72,0,9.32C0,6.78.05,4.24.08,1.7A1.88,1.88,0,0,1,.36.48,1,1,0,0,1,1.52.07,5.18,5.18,0,0,1,2.85.89c2.53,2.29,5,4.6,7.54,6.91Q22.66,19.05,34.92,30.3l11,10.12c.23.22.44.45.65.68a1.23,1.23,0,0,1,.29,1.16.9.9,0,0,1-1,.86c-1.38.05-2.75.08-4.12.09l-13.58.07C27.92,43.28,27.65,43.3,27.3,43.32Zm6.57,18.6-.21-.45q-2.92-5.69-5.83-11.36c-1.32-2.6-2.59-5.23-3.9-7.83a1.07,1.07,0,0,1,.91-1.52c.92,0,1.84-.1,2.77-.11L41.7,40.5l.43,0C29,28.48,16,16.44,2.86,4.55c-.26,1-.31,51.65,0,52.39a2.88,2.88,0,0,1,.27-.39q3-3.13,6-6.25t5.81-5.9c.59-.59,1-.54,1.51.15a20.55,20.55,0,0,1,1.19,2c2.07,4.09,4.11,8.19,6.18,12.27,1,1.91,2,3.8,3,5.7.13.26.27.3.54.18l3.47-1.47Z"/><path class="cls-1" d="M33.87,61.92l-3.1,1.33L27.3,64.72c-.27.12-.41.08-.54-.18-1-1.9-2-3.79-3-5.7-2.07-4.08-4.11-8.18-6.18-12.27a20.55,20.55,0,0,0-1.19-2c-.47-.69-.92-.74-1.51-.15Q12,47.33,9.09,50.3t-6,6.25a2.88,2.88,0,0,0-.27.39c-.28-.74-.23-51.44,0-52.39C16,16.44,29,28.48,42.13,40.48l-.43,0-14.09.15c-.93,0-1.85.1-2.77.11a1.07,1.07,0,0,0-.91,1.52c1.31,2.6,2.58,5.23,3.9,7.83q2.9,5.69,5.83,11.36Z"/></g></g></svg>