<svg xmlns="http://www.w3.org/2000/svg" viewBox="0 0 50.97 68.21"><defs><style>.cls-1{fill:#fff;}</style></defs><g id="Layer_2" data-name="Layer 2"><g id="Layer_3" data-name="Layer 3"><path d="M13.41,36V34.68c0-9.2,0-18.4,0-27.61a9.77,9.77,0,0,1,.4-2.9A5.76,5.76,0,0,1,19.56,0,5.94,5.94,0,0,1,25,4.61a8.9,8.9,0,0,1,.24,2.12c0,3.83,0,7.67,0,11.63,4-1.68,6.88-.47,8.79,3.34a6.11,6.11,0,0,1,5.57-.07A6.26,6.26,0,0,1,43,26.08c.6-.12,1.12-.27,1.65-.32a5.48,5.48,0,0,1,6.2,5.72c.08,5.67.21,11.35-.06,17A28.63,28.63,0,0,1,49,56.07c-1.28,3.86-2.8,7.65-4.26,11.45a1.26,1.26,0,0,1-.93.65c-9.27,0-18.54,0-27.81,0-.51,0-.81-.11-.91-.69-1.39-8.9-5.57-16.59-10.45-24C3.32,41.59,2.07,39.6.81,37.63a4.29,4.29,0,0,1,2.68-6.76,6.53,6.53,0,0,1,6.74,1.76C11.23,33.68,12.22,34.76,13.41,36Zm18-1.78V33c0-3.12,0-6.25,0-9.37a3.1,3.1,0,0,0-3-3.18,3.2,3.2,0,0,0-3.11,3.25c0,.78,0,1.56,0,2.34v6.46H22.46V7.07a9.68,9.68,0,0,0-.08-1.52,3.28,3.28,0,0,0-3.05-2.79,3.25,3.25,0,0,0-3.06,2.89,11.12,11.12,0,0,0-.07,1.53q0,16.14,0,32.28v1.33c-1.57.21-2.85.31-3.89-1.24a48.62,48.62,0,0,0-4.07-4.81,3.72,3.72,0,0,0-3.82-1.09c-1.48.32-1.87,1.24-1.06,2.52Q5.78,40,8.23,43.8C12.4,50.26,16,57,17.45,64.62c.12.58.39.67.9.67q11.66,0,23.32,0a.92.92,0,0,0,1-.72c1.39-3.9,2.86-7.77,4.19-11.69a16.34,16.34,0,0,0,1-4.65c.12-5.43.06-10.86,0-16.29a5,5,0,0,0-.47-2.05,2.29,2.29,0,0,0-2.65-1.22,1.94,1.94,0,0,0-1.65,1.92c-.09.84-.09,1.69-.1,2.54,0,1.17,0,2.35,0,3.53H40.15v-1.1c0-2.71,0-5.43,0-8.14A3.27,3.27,0,0,0,37,23.92c-1.67,0-2.7,1.21-2.72,3.35,0,2,0,3.94,0,5.91,0,.35,0,.71,0,1.07Z"/><path class="cls-1" d="M31.41,34.25h2.77c0-.36,0-.72,0-1.07,0-2,0-3.94,0-5.91,0-2.14,1-3.38,2.72-3.35a3.27,3.27,0,0,1,3.19,3.51c0,2.71,0,5.43,0,8.14v1.1H43c0-1.18,0-2.36,0-3.53,0-.85,0-1.7.1-2.54a1.94,1.94,0,0,1,1.65-1.92,2.29,2.29,0,0,1,2.65,1.22A5,5,0,0,1,47.92,32c0,5.43.1,10.86,0,16.29a16.34,16.34,0,0,1-1,4.65c-1.33,3.92-2.8,7.79-4.19,11.69a.92.92,0,0,1-1,.72q-11.66,0-23.32,0c-.51,0-.78-.09-.9-.67C16,57,12.4,50.26,8.23,43.8Q5.77,40,3.35,36.17c-.81-1.28-.42-2.2,1.06-2.52a3.72,3.72,0,0,1,3.82,1.09,48.62,48.62,0,0,1,4.07,4.81c1,1.55,2.32,1.45,3.89,1.24V39.46q0-16.14,0-32.28a11.12,11.12,0,0,1,.07-1.53,3.25,3.25,0,0,1,3.06-2.89,3.28,3.28,0,0,1,3.05,2.79,9.68,9.68,0,0,1,.08,1.52V32.51h2.76V26.05c0-.78,0-1.56,0-2.34a3.2,3.2,0,0,1,3.11-3.25,3.1,3.1,0,0,1,3,3.18c.06,3.12,0,6.25,0,9.37Z"/></g></g></svg>