<svg xmlns="http://www.w3.org/2000/svg" xmlns:xlink="http://www.w3.org/1999/xlink" viewBox="0 0 852.9 629.52"><defs><style>.cls-1,.cls-3{fill:none;}.cls-2{clip-path:url(#clip-path);}.cls-3{stroke:#666;}.cls-11,.cls-12,.cls-13,.cls-14,.cls-17,.cls-20,.cls-22,.cls-24,.cls-25,.cls-27,.cls-29,.cls-4,.cls-5,.cls-6,.cls-8{isolation:isolate;}.cls-4{font-size:12px;}.cls-4,.cls-5,.cls-6{fill:#666;}.cls-12,.cls-14,.cls-17,.cls-20,.cls-22,.cls-24,.cls-25,.cls-27,.cls-29,.cls-4,.cls-5,.cls-6{font-family:NeueHaasUnicaW1G-Regular, Neue Haas Unica W1G;}.cls-12,.cls-14,.cls-17,.cls-20,.cls-22,.cls-24,.cls-25,.cls-27,.cls-29,.cls-5{font-size:9px;}.cls-6{font-size:11px;}.cls-7{letter-spacing:0em;}.cls-9{letter-spacing:0.01em;}.cls-10{letter-spacing:-0.01em;}.cls-11,.cls-13{font-size:10px;font-family:Helvetica;}.cls-11{fill:#c690ca;}.cls-12{fill:#bb889a;}.cls-13,.cls-22{fill:#695c87;}.cls-14{fill:#caa278;}.cls-15{letter-spacing:-0.02em;}.cls-16{letter-spacing:0em;}.cls-17{fill:#587d79;}.cls-18{letter-spacing:-0.05em;}.cls-19{letter-spacing:-0.02em;}.cls-20{fill:#e0c2c0;}.cls-21{letter-spacing:0.01em;}.cls-23{letter-spacing:-0.01em;}.cls-24{fill:#99c4c8;}.cls-26{letter-spacing:0.01em;}.cls-27{fill:#c36f6b;}.cls-28{letter-spacing:-0.02em;}.cls-29{fill:#c4b86d;}.cls-30{letter-spacing:-0.01em;}.cls-31{letter-spacing:-0.01em;}</style><clipPath id="clip-path" transform="translate(-13.99 -51.35)"><rect class="cls-1" width="905.2" height="681.5"/></clipPath></defs><g id="Layer_2" data-name="Layer 2"><g id="Layer_1-2" data-name="Layer 1"><g class="cls-2"><path class="cls-3" d="M50.5,662h740" transform="translate(-13.99 -51.35)"/></g><g class="cls-2"><line class="cls-3" x1="36.51" y1="610.15" x2="36.51" y2="616.15"/></g><g class="cls-2"><text class="cls-4" transform="translate(26.01 626.22)">1960</text></g><g class="cls-2"><line class="cls-3" x1="98.21" y1="610.15" x2="98.21" y2="616.15"/></g><g class="cls-2"><text class="cls-4" transform="translate(87.68 626.22)">1965</text></g><g class="cls-2"><line class="cls-3" x1="159.81" y1="610.15" x2="159.81" y2="616.15"/></g><g class="cls-2"><text class="cls-4" transform="translate(149.35 626.22)">1970</text></g><g class="cls-2"><line class="cls-3" x1="221.51" y1="610.15" x2="221.51" y2="616.15"/></g><g class="cls-2"><text class="cls-4" transform="translate(211.01 626.22)">1975</text></g><g class="cls-2"><line class="cls-3" x1="283.21" y1="610.15" x2="283.21" y2="616.15"/></g><g class="cls-2"><text class="cls-4" transform="translate(272.68 626.22)">1980</text></g><g class="cls-2"><line class="cls-3" x1="344.81" y1="610.15" x2="344.81" y2="616.15"/></g><g class="cls-2"><text class="cls-4" transform="translate(334.35 626.22)">1985</text></g><g class="cls-2"><line class="cls-3" x1="406.51" y1="610.15" x2="406.51" y2="616.15"/></g><g class="cls-2"><text class="cls-4" transform="translate(396.01 626.22)">1990</text></g><g class="cls-2"><line class="cls-3" x1="468.21" y1="610.15" x2="468.21" y2="616.15"/></g><g class="cls-2"><text class="cls-4" transform="translate(457.68 626.22)">1995</text></g><g class="cls-2"><line class="cls-3" x1="529.81" y1="610.15" x2="529.81" y2="616.15"/></g><g class="cls-2"><text class="cls-4" transform="translate(519.35 626.22)">2000</text></g><g class="cls-2"><line class="cls-3" x1="591.51" y1="610.15" x2="591.51" y2="616.15"/></g><g class="cls-2"><text class="cls-4" transform="translate(581.01 626.22)">2005</text></g><g class="cls-2"><line class="cls-3" x1="653.21" y1="610.15" x2="653.21" y2="616.15"/></g><g class="cls-2"><text class="cls-4" transform="translate(642.68 626.22)">2010</text></g><g class="cls-2"><line class="cls-3" x1="714.81" y1="610.15" x2="714.81" y2="616.15"/></g><g class="cls-2"><text class="cls-4" transform="translate(704.35 626.22)">2015</text></g><g class="cls-2"><line class="cls-3" x1="776.51" y1="610.15" x2="776.51" y2="616.15"/></g><g class="cls-2"><text class="cls-5" transform="translate(766.01 626.22)">2020</text></g><g class="cls-2"><text class="cls-6" transform="translate(831.86 613.95)"><tspan class="cls-7">y</tspan><tspan x="5.16" y="0">ear</tspan></text></g><g class="cls-2"><path class="cls-3" d="M50.5,662V92" transform="translate(-13.99 -51.35)"/></g><g class="cls-2"><line class="cls-3" x1="36.01" y1="610.65" x2="30.01" y2="610.65"/></g><g class="cls-2"><text class="cls-4" transform="translate(21.46 613.82)">0</text></g><g class="cls-2"><line class="cls-3" x1="36.01" y1="539.35" x2="30.01" y2="539.35"/></g><g class="cls-2"><text class="cls-4" transform="translate(8.34 542.57)">200</text></g><g class="cls-2"><line class="cls-3" x1="36.01" y1="468.15" x2="30.01" y2="468.15"/></g><g class="cls-2"><text class="cls-4" transform="translate(8.34 471.32)">400</text></g><g class="cls-2"><line class="cls-3" x1="36.01" y1="396.85" x2="30.01" y2="396.85"/></g><g class="cls-2"><text class="cls-6" transform="translate(10.34 400.07)">600</text></g><g class="cls-2"><line class="cls-3" x1="36.01" y1="325.65" x2="30.01" y2="325.65"/></g><g class="cls-2"><text class="cls-4" transform="translate(8.34 328.82)">800</text></g><g class="cls-2"><line class="cls-3" x1="36.01" y1="254.35" x2="30.01" y2="254.35"/></g><g class="cls-2"><text class="cls-4" transform="translate(0 257.57)">1,000</text></g><g class="cls-2"><line class="cls-3" x1="36.01" y1="183.15" x2="30.01" y2="183.15"/></g><g class="cls-2"><text class="cls-6" transform="translate(0 186.32)">1,200</text></g><g class="cls-2"><line class="cls-3" x1="36.01" y1="111.85" x2="30.01" y2="111.85"/></g><g class="cls-2"><text class="cls-4" transform="translate(0 115.07)">1,400</text></g><g class="cls-2"><line class="cls-3" x1="36.01" y1="40.65" x2="30.01" y2="40.65"/></g><text class="cls-4" transform="translate(0 43.82)">1,600</text><g class="cls-2"><g class="cls-8"><g class="cls-8"><text class="cls-6" transform="translate(9.02 9.42)"><tspan class="cls-9">p</tspan><tspan x="6.45" y="0">opul</tspan><tspan class="cls-10" x="28.02" y="0">a</tspan><tspan x="33.75" y="0">tion</tspan></text><text class="cls-6" transform="translate(9.02 22.62)">(millions)</text></g></g></g><g class="cls-2"><text class="cls-11" transform="translate(781.02 494.2)">America</text></g><g class="cls-2"><text class="cls-12" transform="translate(781.02 611.79)">Canada</text></g><g class="cls-2"><g class="cls-8"><text class="cls-13" transform="translate(781.02 578.94)">UK</text></g></g><g class="cls-2"><text class="cls-14" transform="translate(781.02 531.4)">B<tspan class="cls-15" x="5.64" y="0">r</tspan><tspan class="cls-16" x="8.69" y="0">azil</tspan></text></g><g class="cls-2"><text class="cls-17" transform="translate(781.02 594.86)">South <tspan class="cls-18" x="25.88" y="0">K</tspan><tspan x="31.09" y="0">o</tspan><tspan class="cls-19" x="36.17" y="0">r</tspan><tspan class="cls-16" x="39.26" y="0">ea</tspan></text></g><g class="cls-2"><text class="cls-20" transform="translate(781.02 554.06)">Ja<tspan class="cls-21" x="7.98" y="0">p</tspan><tspan x="13.26" y="0">en</tspan></text></g><g class="cls-2"><text class="cls-22" transform="translate(781.02 562.44)">Vi<tspan class="cls-23" x="7.81" y="0">e</tspan><tspan class="cls-16" x="12.71" y="0">tnam</tspan></text></g><g class="cls-2"><text class="cls-24" transform="translate(781.02 542.73)">Nigeria</text></g><g class="cls-2"><text class="cls-25" transform="translate(781.02 586.87)">F<tspan class="cls-15" x="5.16" y="0">r</tspan><tspan x="8.21" y="0">an</tspan><tspan class="cls-26" x="18.17" y="0">c</tspan><tspan x="23.03" y="0">e</tspan></text></g><g class="cls-2"><text class="cls-27" transform="translate(781.02 570.2)">Germa<tspan class="cls-28" x="27.33" y="0">n</tspan><tspan x="32.34" y="0">y</tspan></text></g><g class="cls-2"><text class="cls-29" transform="translate(781.02 603.25)"><tspan class="cls-30">A</tspan><tspan class="cls-31" x="5.95" y="0">f</tspan><tspan x="8.6" y="0">ghanistan</tspan></text></g></g></g></svg>